<?xml version="1.0" standalone="no"?>
<!DOCTYPE svg PUBLIC "-//W3C//DTD SVG 1.1//EN" "http://www.w3.org/Graphics/SVG/1.1/DTD/svg11.dtd" >
<svg xmlns="http://www.w3.org/2000/svg" xmlns:xlink="http://www.w3.org/1999/xlink" version="1.1">
<metadata>
Created by FontForge 20150102 at Wed Jan 21 05:10:22 2015
 By uniteet7
Copyright (c) 2012, Pablo Impallari (www.impallari.com|impallari@gmail.com), Rodrigo Fuenzalida (www.rfuenzalida.com|hello@rfuenzalida.com), with Reserved Font Name Libre Caslon.
</metadata>
<defs>
<font id="LibreCaslonTextItalic" horiz-adv-x="600" >
  <font-face 
    font-family="LibreCaslonTextItalic"
    font-weight="400"
    font-style="italic"
    font-stretch="normal"
    units-per-em="1000"
    panose-1="2 2 6 2 6 3 0 0 0 4"
    ascent="800"
    descent="-200"
    x-height="540"
    cap-height="770"
    bbox="-342 -257 1571 970"
    underline-thickness="50"
    underline-position="-50"
    slope="-22"
    unicode-range="U+0020-FB06"
  />
<missing-glyph horiz-adv-x="0" 
 />
    <glyph glyph-name="f_f" unicode="ff" horiz-adv-x="669" 
d="M515 780q42 0 77.5 -12.5t58.5 -32.5q39 43 91.5 69t105.5 26q29 0 54 -8t44 -21.5t29.5 -32.5t10.5 -40q0 -23 -12.5 -36.5t-33.5 -13.5q-22 0 -35.5 12.5t-13.5 32.5q0 12 3.5 23t3.5 21q0 17 -13.5 26.5t-36.5 9.5q-48 0 -88.5 -50t-85.5 -163l-24 -60h98l-13 -32h-97
l-127 -295q-53 -122 -100.5 -209t-93.5 -142.5t-91 -81.5t-92 -26q-45 0 -73 22t-28 58q0 22 13 35.5t33 13.5q21 0 30 -14.5t15 -32.5t13 -32.5t25 -14.5q19 0 42 21.5t50 66t59.5 113t70.5 163.5l144 355h-235l-127 -295q-51 -119 -100 -206t-98 -143t-98 -83t-101 -27
q-50 0 -80.5 22.5t-30.5 57.5q0 44 46 44q26 0 36.5 -14t16.5 -30.5t13 -30.5t27 -14q47 0 108 92t134 272l144 355h-88l12 32h89l9 20q24 54 58 96.5t74 72t85 45.5t93 16zM541 530l60 131q0 47 -19 68.5t-60 21.5q-125 0 -213 -211l-4 -10h236z" />
    <glyph glyph-name="f_i" unicode="fi" horiz-adv-x="673" 
d="M476 530q25 0 55.5 5t49.5 5q20 0 32 -14t12 -36q0 -27 -16 -65l-143 -344q-3 -9 -3 -13q0 -19 21 -19q7 0 14.5 3.5t19.5 12.5t28.5 24.5t41.5 39.5l20 -12q-48 -60 -98 -93.5t-92 -33.5q-29 0 -45.5 15t-16.5 42q0 14 4 30.5t11 33.5l145 356q5 12 5 18q0 13 -13 13
h-215l-127 -295q-51 -119 -100 -206t-98 -143t-98 -83t-101 -27q-50 0 -80.5 22.5t-30.5 57.5q0 44 46 44q26 0 36.5 -14t16.5 -30.5t13 -30.5t27 -14q47 0 108 92t134 272l144 355h-88l12 32h89l31 70q48 111 125.5 170.5t171.5 59.5q34 0 64 -8t51.5 -22.5t34 -34
t12.5 -41.5q0 -27 -16 -44t-41 -17t-41.5 16t-16.5 41q0 17 6 26.5t6 21.5q0 16 -16.5 25.5t-42.5 9.5q-57 0 -104 -51.5t-91 -161.5l-24 -60h171z" />
    <glyph glyph-name="f_l" unicode="fl" horiz-adv-x="647" 
d="M510 830q35 0 64.5 -11t48.5 -29l117 30l3 -3l-220 -512q-30 -69 -48.5 -112.5t-28 -68.5t-13 -36.5t-3.5 -17.5q0 -21 21 -21q15 0 38.5 18t66.5 62l22 -12q-23 -28 -49 -51.5t-51.5 -40t-49.5 -26t-44 -9.5q-26 0 -40 16t-14 45q0 13 5 33t21.5 63.5t47.5 119t83 199.5
l71 169q11 26 14 43t3 39q0 45 -15 65.5t-48 20.5q-52 0 -95 -50.5t-88 -162.5l-24 -60h98l-13 -32h-97l-127 -295q-51 -119 -100 -206t-98 -143t-98 -83t-101 -27q-50 0 -80.5 22.5t-30.5 57.5q0 44 46 44q26 0 36.5 -14t16.5 -30.5t13 -30.5t27 -14q47 0 108 91.5
t134 272.5l144 355h-88l12 32h89l31 70q48 109 122 169.5t161 60.5z" />
    <glyph glyph-name="f_f_i" unicode="ffi" horiz-adv-x="1018" 
d="M821 530q25 0 55.5 5t49.5 5q20 0 32 -14t12 -36q0 -27 -16 -65l-143 -344q-3 -9 -3 -13q0 -19 21 -19q7 0 14.5 3.5t19.5 12.5t28.5 24.5t41.5 39.5l20 -12q-48 -60 -98 -93.5t-92 -33.5q-29 0 -45.5 15t-16.5 42q0 14 4 30.5t11 33.5l145 356q5 12 5 18q0 13 -13 13
h-215l-127 -295q-51 -119 -100 -206t-98 -143t-98 -83t-101 -27q-50 0 -80.5 22.5t-30.5 57.5q0 44 46 44q26 0 36.5 -14t16.5 -30.5t13 -30.5t27 -14q47 0 108 92t134 272l144 355h-235l-127 -295q-51 -119 -100 -206t-98 -143t-98 -83t-101 -27q-50 0 -80.5 22.5
t-30.5 57.5q0 44 46 44q26 0 36.5 -14t16.5 -30.5t13 -30.5t27 -14q47 0 108 92t134 272l144 355h-88l12 32h89l9 20q24 54 58 96.5t74 72t85 45.5t93 16q45 0 81.5 -13t58.5 -36q45 48 99 73.5t115 25.5q34 0 64 -8t51.5 -22.5t34 -34t12.5 -41.5q0 -27 -16 -44t-41 -17
t-41.5 16t-16.5 41q0 17 6 26.5t6 21.5q0 16 -16.5 25.5t-42.5 9.5q-57 0 -104 -51.5t-91 -161.5l-24 -60h171zM522 751q-125 0 -213 -211l-4 -10h236l31 70q7 15 14 29t15 28q0 94 -79 94z" />
    <glyph glyph-name="f_f_l" unicode="ffl" horiz-adv-x="992" 
d="M855 830q35 0 64.5 -11t48.5 -29l117 30l3 -3l-220 -512q-30 -69 -48.5 -112.5t-28 -68.5t-13 -36.5t-3.5 -17.5q0 -21 21 -21q15 0 38.5 18t66.5 62l22 -12q-23 -28 -49 -51.5t-51.5 -40t-49.5 -26t-44 -9.5q-26 0 -40 16t-14 45q0 13 5 33t21.5 63.5t47.5 119t83 199.5
l74 178q9 22 11.5 37.5t2.5 35.5q0 45 -15 65.5t-48 20.5q-52 0 -95 -50.5t-88 -162.5l-24 -60h98l-13 -32h-97l-127 -295q-51 -119 -100 -206t-98 -143t-98 -83t-101 -27q-50 0 -80.5 22.5t-30.5 57.5q0 44 46 44q26 0 36.5 -14t16.5 -30.5t13 -30.5t27 -14q47 0 108 91.5
t134 272.5l144 355h-235l-127 -295q-51 -119 -100 -206t-98 -143t-98 -83t-101 -27q-50 0 -80.5 22.5t-30.5 57.5q0 44 46 44q26 0 36.5 -14t16.5 -30.5t13 -30.5t27 -14q47 0 108 92t134 272l144 355h-88l12 32h89l9 20q24 54 58 96.5t74 72t85 45.5t93 16q45 0 81 -13
t59 -35q43 48 93.5 73t106.5 25zM522 751q-125 0 -213 -211l-4 -10h236l31 70q7 15 14 29t15 28q0 94 -79 94z" />
    <glyph glyph-name="f_b" unicode="fb" horiz-adv-x="914" 
d="M732 820l4 -4l-145 -354h5q34 38 73.5 58t77.5 20q57 0 90.5 -39.5t33.5 -114.5q0 -72 -30.5 -143t-80.5 -127.5t-114 -91t-130 -34.5q-70 0 -106.5 37.5t-36.5 103.5q0 52 27 118l158 386q11 26 14 43t3 39q0 45 -15 65.5t-48 20.5q-52 0 -95 -50.5t-88 -162.5l-24 -60
h98l-13 -32h-97l-127 -295q-51 -119 -100 -206t-98 -143t-98 -83t-101 -27q-50 0 -80.5 22.5t-30.5 57.5q0 44 46 44q26 0 36.5 -14t16.5 -30.5t13 -30.5t27 -14q47 0 108 91.5t134 272.5l144 355h-88l12 32h89l31 70q48 109 122 169.5t161 60.5q35 0 64.5 -11t48.5 -29z
M528 310q-11 -21 -23.5 -51t-23.5 -61.5t-18.5 -62t-7.5 -53.5q0 -26 15 -41.5t38 -15.5q25 0 54.5 19t59 50t57 71.5t49 84t34 86.5t12.5 80q0 40 -14 64.5t-38 24.5q-21 0 -46.5 -15t-51.5 -41.5t-51.5 -62t-44.5 -76.5z" />
    <glyph glyph-name="f_f_b" unicode="ffb" horiz-adv-x="1259" 
d="M855 830q35 0 64.5 -11t48.5 -29l109 30l4 -4l-145 -354h5q34 38 73.5 58t77.5 20q57 0 90.5 -39.5t33.5 -114.5q0 -72 -30.5 -143t-80.5 -127.5t-114 -91t-130 -34.5q-70 0 -106.5 37.5t-36.5 103.5q0 52 27 118l158 386q11 26 14 43t3 39q0 45 -15 65.5t-48 20.5
q-52 0 -95 -50.5t-88 -162.5l-24 -60h98l-13 -32h-97l-127 -295q-51 -119 -100 -206t-98 -143t-98 -83t-101 -27q-50 0 -80.5 22.5t-30.5 57.5q0 44 46 44q26 0 36.5 -14t16.5 -30.5t13 -30.5t27 -14q47 0 108 91.5t134 272.5l144 355h-235l-127 -295q-51 -119 -100 -206
t-98 -143t-98 -83t-101 -27q-50 0 -80.5 22.5t-30.5 57.5q0 44 46 44q26 0 36.5 -14t16.5 -30.5t13 -30.5t27 -14q47 0 108 92t134 272l144 355h-88l12 32h89l9 20q24 54 58 96.5t74 72t85 45.5t93 16q45 0 81 -13t59 -35q43 48 93.5 73t106.5 25zM873 310
q-11 -21 -23.5 -51t-23.5 -61.5t-18.5 -62t-7.5 -53.5q0 -26 15 -41.5t38 -15.5q25 0 54.5 19t59 50t57 71.5t49 84t34 86.5t12.5 80q0 40 -14 64.5t-38 24.5q-21 0 -46.5 -15t-51.5 -41.5t-51.5 -62t-44.5 -76.5zM522 751q-125 0 -213 -211l-4 -10h236l31 70q7 15 14 29
t15 28q0 94 -79 94z" />
    <glyph glyph-name="f_f_h" unicode="ffh" horiz-adv-x="1270" 
d="M855 830q35 0 64.5 -11t48.5 -29l111 30l4 -4l-192 -434l5 -2q63 85 115.5 122t108.5 37q42 0 67 -20.5t25 -58.5q0 -20 -6 -44.5t-21 -55.5l-117 -239q-10 -20 -15 -34t-5 -23q0 -15 15 -15q17 0 47.5 24.5t66.5 65.5l21 -15q-51 -66 -101 -100t-98 -34
q-32 0 -45.5 14.5t-13.5 43.5q0 40 35 110l134 269q14 30 14 50q0 28 -29 28q-26 0 -59.5 -23.5t-70 -65.5t-73 -99t-67.5 -123l-91 -194h-93l270 654q5 17 7.5 31.5t2.5 31.5q0 45 -15 65.5t-48 20.5q-52 0 -95 -50.5t-88 -162.5l-24 -60h98l-13 -32h-97l-127 -295
q-51 -119 -100 -206t-98 -143t-98 -83t-101 -27q-50 0 -80.5 22.5t-30.5 57.5q0 44 46 44q26 0 36.5 -14t16.5 -30.5t13 -30.5t27 -14q47 0 108 91.5t134 272.5l144 355h-235l-127 -295q-51 -119 -100 -206t-98 -143t-98 -83t-101 -27q-50 0 -80.5 22.5t-30.5 57.5
q0 44 46 44q26 0 36.5 -14t16.5 -30.5t13 -30.5t27 -14q47 0 108 92t134 272l144 355h-88l12 32h89l9 20q24 54 58 96.5t74 72t85 45.5t93 16q45 0 81 -13t59 -35q43 48 93.5 73t106.5 25zM522 751q-125 0 -213 -211l-4 -10h236l31 70q7 15 14 29t15 28q0 94 -79 94z" />
    <glyph glyph-name="f_f_j" unicode="ffj" horiz-adv-x="985" 
d="M821 530q30 0 53.5 5t45.5 5t32.5 -12.5t10.5 -35.5q-1 -27 -25 -98.5t-78 -190.5l-127 -284q-38 -85 -95.5 -130t-132.5 -45q-51 0 -84 21t-33 56q0 47 46 47q26 0 36 -14t16 -30.5t15 -30.5t33 -14q15 0 29.5 9.5t30 31.5t33 59t39.5 93l110 280q24 63 39.5 103
t24.5 65t12.5 38t3.5 21t-6.5 13.5t-26.5 5.5h-185l-127 -295q-51 -119 -100 -206t-98 -143t-98 -83t-101 -27q-50 0 -80.5 22.5t-30.5 57.5q0 44 46 44q26 0 36.5 -14t16.5 -30.5t13 -30.5t27 -14q47 0 108 92t134 272l144 355h-235l-127 -295q-51 -119 -100 -206t-98 -143
t-98 -83t-101 -27q-50 0 -80.5 22.5t-30.5 57.5q0 44 46 44q26 0 36.5 -14t16.5 -30.5t13 -30.5t27 -14q47 0 108 92t134 272l144 355h-88l12 32h89l9 20q24 54 58 96.5t74 72t85 45.5t93 16q45 0 81.5 -13t58.5 -36q45 48 99 73.5t115 25.5q34 0 64 -8t51.5 -22.5t34 -34
t12.5 -41.5q0 -27 -16 -44t-41 -17t-41.5 16t-16.5 41q0 17 6 26.5t6 21.5q0 16 -16.5 25.5t-42.5 9.5q-57 0 -104 -51.5t-91 -161.5l-24 -60h171zM305 530h236l31 70q7 15 14 29t15 28q0 94 -79 94q-125 0 -213 -211z" />
    <glyph glyph-name="f_f_k" unicode="ffk" horiz-adv-x="1232" 
d="M855 830q35 0 64.5 -11t48.5 -29l112 30l4 -4l-155 -354h4q31 35 77.5 56.5t93.5 21.5q46 0 70 -19.5t24 -55.5q0 -29 -21 -60t-57 -59.5t-83.5 -52.5t-101.5 -39l68 -143q21 -44 33.5 -61t28.5 -17q32 0 68 47l20 -11q-20 -34 -56.5 -56.5t-73.5 -22.5q-36 0 -63 24
t-52 76l-69 145h-8l-95 -235h-98l269 646q7 17 11.5 36.5t4.5 39.5q0 32 -15 56.5t-51 24.5q-52 0 -95 -50.5t-88 -162.5l-24 -60h98l-13 -32h-97l-127 -295q-51 -119 -100 -206t-98 -143t-98 -83t-101 -27q-50 0 -80.5 22.5t-30.5 57.5q0 44 46 44q26 0 36.5 -14
t16.5 -30.5t13 -30.5t27 -14q47 0 108 91.5t134 272.5l144 355h-235l-127 -295q-51 -119 -100 -206t-98 -143t-98 -83t-101 -27q-50 0 -80.5 22.5t-30.5 57.5q0 44 46 44q26 0 36.5 -14t16.5 -30.5t13 -30.5t27 -14q47 0 108 92t134 272l144 355h-88l12 32h89l9 20
q24 54 58 96.5t74 72t85 45.5t93 16q45 0 81 -13t59 -35q43 48 93.5 73t106.5 25zM522 751q-125 0 -213 -211l-4 -10h236l31 70q7 15 14 29t15 28q0 94 -79 94zM966 453q-37 -32 -65 -75t-54 -110q50 3 95 20t79.5 43.5t55 59t20.5 65.5q0 40 -38 40q-23 0 -45.5 -11
t-47.5 -32z" />
    <glyph glyph-name="f_f_t" unicode="fft" horiz-adv-x="1034" 
d="M862 830q27 0 51.5 -6.5t42.5 -18t29 -26.5t11 -33q0 -22 -12.5 -35t-35.5 -13q-20 0 -33.5 12t-13.5 32q0 11 3.5 19t3.5 17q0 13 -14 19t-37 6q-50 0 -94 -50.5t-89 -162.5l-24 -60h242l34 78l107 10l-38 -88h88l-11 -32h-91l-82 -193q-32 -75 -51 -119t-28.5 -67
t-12 -32t-2.5 -14q0 -24 22 -24q15 0 39 19t65 61l20 -12q-48 -61 -98.5 -94t-94.5 -33q-30 0 -41.5 15t-11.5 48q0 10 2.5 23.5t9.5 35.5t20.5 56t36.5 87l104 243h-240l-127 -295q-51 -120 -100.5 -206.5t-98 -142.5t-98.5 -83t-102 -27q-51 0 -80 23t-29 60
q0 20 12.5 30.5t34.5 10.5q25 0 35.5 -14t16.5 -30.5t13 -30.5t27 -14t45 18.5t55 61.5t65.5 112.5t76.5 171.5l144 355h-235l-127 -295q-51 -119 -100 -206t-98 -143t-98 -83t-101 -27q-50 0 -80.5 22.5t-30.5 57.5q0 44 46 44q26 0 36.5 -14t16.5 -30.5t13 -30.5t27 -14
q47 0 108 92t134 272l144 355h-88l12 32h89l9 20q24 54 58 96.5t74 72t85 45.5t93 16q45 0 81 -13t58 -35q48 53 101 75.5t107 22.5zM522 751q-125 0 -213 -211l-4 -10h236l31 70q7 15 14 29t15 28q0 94 -79 94z" />
    <glyph glyph-name="f_h" unicode="fh" horiz-adv-x="925" 
d="M509 830q37 0 66 -11t48 -29l111 30l4 -4l-192 -434l5 -2q63 85 115 122t108 37q43 0 68 -20t25 -61q0 -18 -6 -42.5t-21 -55.5l-117 -239q-10 -20 -15 -34t-5 -23q0 -15 15 -15q17 0 47.5 24.5t66.5 65.5l21 -15q-51 -66 -101.5 -100t-98.5 -34q-31 0 -44.5 14t-13.5 41
q0 23 9 50.5t26 62.5l134 269q14 28 14 50q0 28 -29 28q-26 0 -59.5 -23.5t-70 -65.5t-73 -99t-67.5 -123l-91 -194h-93l270 654q6 15 8.5 30.5t2.5 32.5q0 33 -14.5 59.5t-49.5 26.5q-26 0 -49 -12t-45 -37.5t-44 -66t-45 -97.5l-24 -60h98l-13 -32h-97l-127 -295
q-51 -119 -100 -206t-98 -143t-98 -83t-101 -27q-50 0 -80.5 22.5t-30.5 57.5q0 44 46 44q26 0 36.5 -14t16.5 -30.5t13 -30.5t27 -14q47 0 108 91.5t134 272.5l144 355h-88l12 32h89l31 70q49 111 123 170.5t159 59.5z" />
    <glyph glyph-name="f_j" unicode="fj" horiz-adv-x="640" 
d="M476 530q30 0 53.5 5t45.5 5t32.5 -12.5t10.5 -35.5q-1 -27 -25 -98.5t-78 -190.5l-127 -284q-38 -85 -95.5 -130t-132.5 -45q-51 0 -84 21t-33 56q0 47 46 47q26 0 36 -14t16 -30.5t15 -30.5t33 -14q15 0 29.5 9.5t30 31.5t33 59t39.5 93l110 280q24 63 39.5 103
t24.5 65t12.5 38t3.5 21t-6.5 13.5t-26.5 5.5h-185l-127 -295q-51 -119 -100 -206t-98 -143t-98 -83t-101 -27q-50 0 -80.5 22.5t-30.5 57.5q0 44 46 44q26 0 36.5 -14t16.5 -30.5t13 -30.5t27 -14q47 0 108 92t134 272l144 355h-88l12 32h89l31 70q48 111 125.5 170.5
t171.5 59.5q34 0 64 -8t51.5 -22.5t34 -34t12.5 -41.5q0 -27 -16 -44t-41 -17t-41.5 16t-16.5 41q0 17 6 26.5t6 21.5q0 16 -16.5 25.5t-42.5 9.5q-57 0 -104 -51.5t-91 -161.5l-24 -60h171z" />
    <glyph glyph-name="f_k" unicode="fk" horiz-adv-x="887" 
d="M735 820l4 -4l-155 -354h4q31 35 77.5 56.5t93.5 21.5q46 0 70 -19.5t24 -55.5q0 -29 -21 -60t-57 -59.5t-83.5 -52.5t-101.5 -39l68 -143q21 -44 33.5 -61t28.5 -17q32 0 68 47l20 -11q-20 -34 -56.5 -56.5t-73.5 -22.5q-36 0 -63 24t-52 76l-69 145h-8l-95 -235h-98
l269 646q6 15 10 34t4 39q0 16 -3.5 31t-11 27t-19.5 19t-30 7q-52 0 -95 -50.5t-88 -162.5l-24 -60h98l-13 -32h-97l-127 -295q-51 -119 -100 -206t-98 -143t-98 -83t-101 -27q-50 0 -80.5 22.5t-30.5 57.5q0 44 46 44q26 0 36.5 -14t16.5 -30.5t13 -30.5t27 -14
q47 0 108 91.5t134 272.5l144 355h-88l12 32h89l31 70q48 109 122 169.5t161 60.5q35 0 64.5 -11t48.5 -29zM621 453q-37 -32 -65 -75t-54 -110q50 3 95 20t79.5 43.5t55 59t20.5 65.5q0 40 -38 40q-23 0 -45.5 -11t-47.5 -32z" />
    <glyph glyph-name="f_t" unicode="ft" horiz-adv-x="689" 
d="M517 830q27 0 51.5 -6.5t42.5 -18t29 -26.5t11 -33q0 -22 -12.5 -35t-35.5 -13q-20 0 -33.5 12t-13.5 32q0 11 3.5 19t3.5 17q0 13 -14 19t-37 6q-50 0 -94 -50.5t-89 -162.5l-24 -60h242l34 78l107 10l-38 -88h88l-11 -32h-91l-82 -193q-32 -75 -51 -119t-28.5 -67
t-12 -32t-2.5 -14q0 -24 22 -24q15 0 39 19t65 61l20 -12q-48 -61 -98.5 -94t-94.5 -33q-30 0 -41.5 15t-11.5 48q0 10 2.5 23.5t9.5 35.5t20.5 56t36.5 87l104 243h-240l-127 -295q-51 -120 -100.5 -206.5t-98 -142.5t-98.5 -83t-102 -27q-51 0 -80 23t-29 60
q0 20 12.5 30.5t34.5 10.5q25 0 35.5 -14t16.5 -30.5t13 -30.5t27 -14t45 18.5t55 61.5t65.5 112.5t76.5 171.5l144 355h-88l12 32h89l31 70q28 63 61.5 106.5t71 71t77.5 40t80 12.5z" />
    <glyph glyph-name=".notdef" horiz-adv-x="0" 
 />
    <glyph glyph-name=".null" horiz-adv-x="0" 
 />
    <glyph glyph-name="nonmarkingreturn" horiz-adv-x="305" 
 />
    <glyph glyph-name="space" unicode=" " horiz-adv-x="283" 
 />
    <glyph glyph-name="exclam" unicode="!" horiz-adv-x="336" 
d="M137 230l81 341q14 58 25 100.5t16 57.5q8 23 25.5 37t42.5 14q29 0 46.5 -17.5t17.5 -45.5q0 -11 -3 -23t-12 -30t-24.5 -44.5t-39.5 -66.5q-20 -33 -38 -67.5t-34.5 -73.5t-33 -83.5t-34.5 -98.5h-35zM107 115q26 0 44.5 -16.5t18.5 -41.5q0 -27 -22.5 -47t-52.5 -20
q-26 0 -42.5 16t-16.5 41q0 28 21 48t50 20z" />
    <glyph glyph-name="quotedbl" unicode="&#x22;" horiz-adv-x="372" 
d="M210 545q13 45 18.5 79t7 60.5t2.5 47t7 38.5q9 28 28.5 44t44.5 16q20 0 29 -9.5t9 -25.5q0 -20 -11 -42.5t-28.5 -51.5t-38 -67t-38.5 -89h-30zM362 545q13 45 18.5 79t7 60.5t2.5 47t7 38.5q9 28 28.5 44t44.5 16q20 0 29 -9.5t9 -25.5q0 -20 -11 -42.5t-28.5 -51.5
t-38 -67t-38.5 -89h-30z" />
    <glyph glyph-name="numbersign" unicode="#" horiz-adv-x="667" 
d="M612 696l-60 -171h143l-23 -56h-140l-53 -151h140l-25 -56h-134l-60 -170h-57l59 170h-148l-60 -170h-58l59 170h-144l24 56h140l53 151h-140l23 56h136l61 171h58l-60 -171h148l61 171h57zM273 318h149l53 151h-149z" />
    <glyph glyph-name="dollar" unicode="$" horiz-adv-x="577" 
d="M503 772q59 -15 94.5 -53.5t35.5 -89.5q0 -29 -14 -45t-39 -16q-46 0 -55 67q-5 38 -14 60t-26 33l-118 -294q34 -41 56 -70t34.5 -52.5t17 -44.5t4.5 -44q0 -51 -21 -93.5t-58 -73.5t-89 -48.5t-113 -17.5h-10l-56 -140h-45l58 145q-63 13 -102.5 52.5t-39.5 93.5
q0 29 14 45t39 16q46 0 55 -67q6 -45 17 -68t34 -31l125 310q-20 21 -38.5 42t-33.5 45t-24 53t-9 65q0 50 19 92t53 72.5t81 47.5t103 17q6 0 12 -0.5t11 -0.5l54 133h45zM204 30q79 0 123 39t44 108q0 42 -15.5 74t-38.5 60zM287 586q0 -17 1.5 -29.5t7 -25.5t15 -27.5
t26.5 -34.5l108 270q-5 1 -16 1q-69 0 -105.5 -39.5t-36.5 -114.5z" />
    <glyph glyph-name="percent" unicode="%" horiz-adv-x="961" 
d="M207 0l549 770h70l-551 -770h-68zM223 315q-49 0 -71.5 27.5t-22.5 87.5q0 66 24 128.5t63.5 112t90 79.5t103.5 30q101 0 101 -116q0 -63 -25.5 -125.5t-66 -112t-92.5 -80.5t-104 -31zM250 351q27 0 57.5 32t56.5 81t43 106.5t17 108.5q0 65 -35 65q-18 0 -37.5 -15
t-38.5 -40t-36.5 -58.5t-30.5 -70t-21 -74t-8 -71.5q0 -64 33 -64zM619 -10q-49 0 -71.5 27.5t-22.5 87.5q0 66 24 128.5t63.5 112t90 79.5t103.5 30q101 0 101 -116q0 -63 -25.5 -125.5t-66 -112t-92.5 -80.5t-104 -31zM646 26q27 0 57.5 32t56.5 81t43 106.5t17 108.5
q0 65 -35 65q-17 0 -37 -15t-39 -40t-36.5 -58.5t-30.5 -70t-21 -74t-8 -71.5q0 -64 33 -64z" />
    <glyph glyph-name="ampersand" unicode="&#x26;" horiz-adv-x="931" 
d="M449 88q70 0 129.5 18.5t103 50.5t68.5 75.5t25 93.5q0 59 -36.5 91t-96.5 32q-24 0 -46 -6t-38 -15.5t-25.5 -22t-9.5 -24.5q0 -17 12 -22.5t27 -9.5t27 -11.5t12 -28.5q0 -20 -16.5 -30.5t-37.5 -10.5q-13 0 -26 5t-23.5 15.5t-17.5 26t-7 35.5q0 31 10.5 54.5t39 41.5
t79 32.5t131.5 28.5q44 7 83 15.5t68 23t45.5 38t16.5 59.5t-18.5 53.5t-42.5 17.5q-18 0 -30 -8t-22.5 -18t-21.5 -18t-27 -8q-17 0 -28 10t-11 29q0 35 34 57t83 22q54 0 88 -29t34 -91q0 -91 -57 -141.5t-166 -68.5l-1 -4q34 -14 53 -49.5t19 -85.5q0 -68 -33 -126.5
t-90 -101.5t-132.5 -68t-160.5 -25q-72 0 -131.5 18.5t-102 52.5t-66 81.5t-23.5 105.5q0 72 33 127t94 89q-12 17 -19 40.5t-7 49.5q0 36 14 68.5t38 57t55.5 39t66.5 14.5q27 0 51 -8.5t41.5 -23t28 -34t10.5 -41.5q0 -28 -15 -45t-41 -17q-21 0 -30 9.5t-12.5 23t-3.5 30
t-4 30t-14 23t-33 9.5q-22 0 -42 -10t-35 -27t-23.5 -39.5t-8.5 -48.5q0 -21 4.5 -42t13.5 -35q13 5 28 8t29 3q28 0 45.5 -13t17.5 -33q0 -22 -15.5 -36t-40.5 -14q-18 0 -39.5 8.5t-38.5 22.5q-36 -14 -59.5 -52t-23.5 -87q0 -46 21.5 -84t60.5 -65t92.5 -42t116.5 -15z
" />
    <glyph glyph-name="quotesingle" unicode="'" horiz-adv-x="220" 
d="M210 545q13 45 18.5 79t7 60.5t2.5 47t7 38.5q9 28 28.5 44t44.5 16q20 0 29 -9.5t9 -25.5q0 -20 -11 -42.5t-28.5 -51.5t-38 -67t-38.5 -89h-30z" />
    <glyph glyph-name="parenleft" unicode="(" horiz-adv-x="318" 
d="M97 -200q-15 22 -29 50t-25 62t-18 74.5t-7 88.5q0 106 35.5 216t95 211t137.5 186t163 142l8 -10q-75 -80 -141 -179t-115.5 -208.5t-78.5 -223t-29 -221.5q0 -60 8 -103t16 -72z" />
    <glyph glyph-name="parenright" unicode=")" horiz-adv-x="329" 
d="M-105 -187q23 24 56.5 65.5t71 98.5t75 128t67.5 153.5t48.5 176t18.5 195.5q0 64 -6.5 113t-15.5 77l14 10q18 -20 33.5 -50.5t27 -69t18.5 -84t7 -96.5q0 -91 -20.5 -173.5t-53.5 -155t-76 -134.5t-87.5 -112.5t-88 -89.5t-77.5 -65z" />
    <glyph glyph-name="asterisk" unicode="*" horiz-adv-x="487" 
d="M383 612l-4 -34q-4 -34 -3.5 -60t-4.5 -46q-5 -17 -17.5 -28.5t-30.5 -11.5q-28 0 -28 26q0 12 6 26t14 29t17.5 31.5t16.5 34.5l13 33l-34 -21q-19 -12 -34.5 -25.5t-29.5 -25t-27.5 -19t-28.5 -7.5q-16 0 -24 7.5t-8 19.5q0 22 13.5 32.5t34.5 17t47 11.5t52 16l33 13
l-28 13q-18 8 -37 12.5t-35 9t-26.5 11t-10.5 19.5q0 20 15.5 35.5t38.5 15.5q15 0 24 -7.5t16.5 -19t15.5 -25.5t22 -26l21 -19l5 34q2 9 2 17v15q0 11 -0.5 20t-0.5 18q0 39 17.5 57.5t37.5 18.5q11 0 19 -6.5t8 -20.5q0 -16 -6 -29t-14 -27t-17.5 -29.5t-16.5 -35.5
l-12 -32l30 20q23 15 39.5 29t30 25t26 17.5t26.5 6.5q17 0 24.5 -8t7.5 -20q0 -23 -13 -33.5t-34 -16.5t-47 -10.5t-51 -14.5l-34 -13l25 -13q19 -10 38.5 -15t35.5 -9.5t26.5 -10.5t10.5 -19q0 -23 -17 -36.5t-37 -13.5q-15 0 -24.5 7.5t-17 19t-15.5 25t-20 25.5z" />
    <glyph glyph-name="plus" unicode="+" horiz-adv-x="512" 
d="M247 315h-180v49h180v180h51v-180h179v-49h-179v-181h-51v181z" />
    <glyph glyph-name="comma" unicode="," horiz-adv-x="289" 
d="M30 0q-57 10 -57 64q0 34 20.5 53.5t55.5 19.5q38 0 59 -23.5t21 -68.5q0 -61 -39 -119.5t-116 -111.5l-18 21q22 16 41.5 35.5t34.5 39.5t24 38t9 31q0 10 -5.5 13t-29.5 8z" />
    <glyph glyph-name="hyphen" unicode="-" horiz-adv-x="480" 
d="M44 210l33 84h319l-33 -84h-319z" />
    <glyph glyph-name="period" unicode="." horiz-adv-x="282" 
d="M54 137q30 0 52.5 -18.5t22.5 -46.5q0 -16 -7.5 -30.5t-20 -26t-28.5 -18.5t-32 -7q-34 0 -53.5 18.5t-19.5 48.5q0 16 7 31t19 25.5t27.5 17t32.5 6.5z" />
    <glyph glyph-name="slash" unicode="/" horiz-adv-x="345" 
d="M-1 -169l302 988h69l-304 -988h-67z" />
    <glyph glyph-name="zero" unicode="0" horiz-adv-x="645" 
d="M210 -10q-71 0 -103.5 46.5t-32.5 146.5q0 75 16.5 148t46 139.5t70 123t87.5 98t99 65t105 23.5q150 0 150 -198q0 -71 -18 -142.5t-49 -137.5t-73 -123t-90.5 -99t-101.5 -66t-106 -24zM234 31q32 0 67 27.5t69.5 73.5t66 106t55.5 126.5t38 134.5t14 129
q0 110 -59 110q-32 0 -67 -27.5t-69 -73.5t-65.5 -107t-55.5 -127.5t-38 -134.5t-14 -129q0 -56 14 -82t44 -26z" />
    <glyph glyph-name="one" unicode="1" horiz-adv-x="429" 
d="M-37 23l118 24l236 607l-3 2l-135 -32l-8 27q32 9 70 23.5t74 32.5t67 37t51 36h34l-283 -738l126 -19l-10 -23h-346z" />
    <glyph glyph-name="two" unicode="2" horiz-adv-x="607" 
d="M405 91q29 29 49 55t37 58h32l-82 -204h-425q22 82 66 150t97.5 125.5t109 107t101.5 95t75 89t29 89.5q0 35 -19 56t-54 21q-63 0 -126.5 -38t-112.5 -104l-29 20q63 83 134.5 126t163.5 43q78 0 117.5 -33t39.5 -96q0 -55 -28 -99t-72.5 -84t-100.5 -78.5t-112.5 -82.5
t-107.5 -96.5t-85 -119.5h303z" />
    <glyph glyph-name="three" unicode="3" horiz-adv-x="593" 
d="M193 390q63 21 115 51t89.5 64.5t58.5 71.5t21 73q0 38 -22 60.5t-58 22.5q-48 0 -100 -36t-102 -104l-29 21q118 166 266 166q69 0 107.5 -31.5t38.5 -88.5t-43 -110t-137 -110q51 -10 81.5 -52t30.5 -103q0 -59 -28 -112t-75.5 -94t-109.5 -65t-131 -24q-36 0 -66.5 7
t-53 19t-35 28.5t-12.5 36.5q0 22 15.5 36t39.5 14q18 0 27.5 -7t16 -18t12.5 -23.5t16 -23.5t27 -18t46 -7q42 0 78 17t62.5 46t41.5 69t15 87q0 61 -25.5 93.5t-73.5 32.5q-22 0 -48 -5.5t-45 -14.5z" />
    <glyph glyph-name="four" unicode="4" horiz-adv-x="556" 
d="M279 221h-278l15 48l454 501h102l-167 -472h100l-26 -77h-100l-73 -221h-105zM306 298l133 377h-4l-340 -377h211z" />
    <glyph glyph-name="five" unicode="5" horiz-adv-x="543" 
d="M247 757h252l26 40l22 -7l-39 -123h-250l-67 -191q19 3 47 5t54 2q92 0 143 -48.5t51 -136.5q0 -63 -26.5 -119t-71.5 -98t-105.5 -66.5t-128.5 -24.5q-69 0 -110 24t-41 65q0 23 14 37.5t38 14.5q25 0 36 -15t21 -33.5t26 -33.5t51 -15q36 0 69 18t58 48.5t39.5 71
t14.5 84.5q0 65 -33 98.5t-99 33.5q-32 0 -61 -4.5t-50 -11.5l-12 10z" />
    <glyph glyph-name="six" unicode="6" horiz-adv-x="578" 
d="M570 754q-47 -18 -94.5 -48t-91.5 -68t-82.5 -82t-66.5 -90l3 -3q26 16 58.5 26t70.5 10q162 0 162 -153q0 -66 -29 -130t-76 -114t-106.5 -81t-120.5 -31q-144 0 -144 181q0 101 37.5 196t105 175t160.5 141.5t204 96.5zM221 33q35 0 70 30.5t63 78t45.5 104.5t17.5 110
q0 99 -75 99q-38 0 -72 -25t-59.5 -67.5t-40.5 -99t-15 -120.5q0 -58 15 -84t51 -26z" />
    <glyph glyph-name="seven" unicode="7" horiz-adv-x="520" 
d="M255 820h27v-50h346l10 -25q-75 -107 -133.5 -197t-103.5 -171t-79 -155.5t-59 -149.5q-8 -24 -15.5 -40t-16 -25t-18.5 -13t-23 -4q-51 0 -51 53q0 16 7.5 39t25 57t47.5 81.5t74 113t104 151t139 195.5h-279l-60 -61h-36z" />
    <glyph glyph-name="eight" unicode="8" horiz-adv-x="621" 
d="M253 447q-6 7 -14.5 20t-16.5 31t-13.5 40.5t-5.5 46.5q0 49 18.5 86t49 61t69.5 36t80 12q80 0 125.5 -38.5t45.5 -100.5q0 -41 -18 -72t-45.5 -55t-61.5 -42t-65 -32l32 -39q27 -33 48.5 -77.5t21.5 -93.5q0 -62 -21 -107t-55.5 -74.5t-78.5 -44t-90 -14.5
q-57 0 -98.5 15t-69 40.5t-40.5 58.5t-13 68q0 51 23.5 91t58.5 70t77 51.5t78 36.5zM298 390q-35 -19 -64 -38.5t-49.5 -43.5t-32 -55t-11.5 -74q0 -30 8 -56.5t24 -47t40.5 -32t56.5 -11.5q67 0 105 40t38 109q0 39 -15 71t-39 62zM376 467q25 17 47.5 36.5t39 42t26 48.5
t9.5 57q0 38 -19.5 62.5t-63.5 24.5q-27 0 -50 -8t-40 -23t-26.5 -36.5t-9.5 -47.5q0 -24 8 -46t21 -41.5t28.5 -36.5t29.5 -32z" />
    <glyph glyph-name="nine" unicode="9" horiz-adv-x="578" 
d="M81 16q49 19 97 49t92 68t82 83t66 93l-3 3q-25 -17 -60 -29t-71 -12q-162 0 -162 153q0 66 29 130t76 114t106.5 81t120.5 31q144 0 144 -181q0 -101 -37.5 -196t-105 -175t-160.5 -141.5t-204 -96.5zM430 737q-35 0 -70 -30.5t-63 -78t-45.5 -104.5t-17.5 -110
q0 -99 75 -99q38 0 72 25t59.5 67.5t40.5 99t15 120.5q0 58 -15 84t-51 26z" />
    <glyph glyph-name="colon" unicode=":" horiz-adv-x="327" 
d="M88 137q30 0 52.5 -18.5t22.5 -46.5q0 -16 -7.5 -30.5t-20 -26t-28.5 -18.5t-32 -7q-34 0 -53.5 18.5t-19.5 48.5q0 16 7 31t19 25.5t27.5 17t32.5 6.5zM207 501q30 0 52.5 -18.5t22.5 -46.5q0 -16 -7.5 -30.5t-20 -26t-28.5 -18.5t-32 -7q-34 0 -53.5 18.5t-19.5 48.5
q0 16 7 31t19 25.5t27.5 17t32.5 6.5z" />
    <glyph glyph-name="semicolon" unicode=";" horiz-adv-x="331" 
d="M209 501q30 0 52.5 -18.5t22.5 -46.5q0 -16 -7.5 -30.5t-20 -26t-28.5 -18.5t-32 -7q-34 0 -53.5 18.5t-19.5 48.5q0 16 7 31t19 25.5t27.5 17t32.5 6.5zM61 0q-57 10 -57 64q0 34 20.5 53.5t55.5 19.5q38 0 59 -23.5t21 -68.5q0 -61 -39 -119.5t-116 -111.5l-18 21
q22 16 41.5 35.5t34.5 39.5t24 38t9 31q0 10 -5.5 13t-29.5 8z" />
    <glyph glyph-name="less" unicode="&#x3c;" horiz-adv-x="589" 
d="M65 310v51l409 195v-61l-337 -154v-4l337 -156v-65z" />
    <glyph glyph-name="equal" unicode="=" horiz-adv-x="628" 
d="M139 274h366v-42h-366v42zM139 424h366v-42h-366v42z" />
    <glyph glyph-name="greater" unicode="&#x3e;" horiz-adv-x="582" 
d="M138 121v60l337 156v4l-337 154v66l409 -195v-51z" />
    <glyph glyph-name="question" unicode="?" horiz-adv-x="483" 
d="M184 -10q-26 0 -44.5 16.5t-18.5 41.5q0 27 22.5 47t52.5 20q26 0 42.5 -16t16.5 -41q0 -28 -21 -48t-50 -20zM331 194q-69 2 -104 31.5t-35 81.5q0 37 20 67.5t50 57.5t64.5 52t64.5 52.5t50 58.5t20 70q0 36 -21 59t-54 23q-24 0 -37.5 -14t-25 -30.5t-25.5 -30
t-38 -13.5q-20 0 -32 12t-12 32q0 34 40.5 55.5t105.5 21.5q83 0 129.5 -37.5t46.5 -105.5q0 -45 -19.5 -79.5t-49 -63t-63.5 -52.5t-63.5 -48t-49 -49t-19.5 -56q0 -29 17 -47t45 -20z" />
    <glyph glyph-name="at" unicode="@" horiz-adv-x="920" 
d="M648 -123q-44 -26 -97.5 -40.5t-124.5 -14.5t-139.5 20.5t-123 63t-88 108t-33.5 155.5q0 100 37.5 181.5t99.5 139.5t143.5 89t169.5 31q79 0 141.5 -25t105.5 -66t66 -94.5t23 -110.5q0 -59 -17.5 -112.5t-48 -93.5t-73 -63.5t-92.5 -23.5q-45 0 -70 22t-25 64
q0 12 5 20l-4 1q-38 -57 -77 -75.5t-76 -18.5q-53 0 -82.5 33.5t-29.5 96.5q0 41 22 90.5t58.5 93t84 73t99.5 29.5q23 0 43 -11t30 -28h4l11 39h80l-81 -290q-7 -22 -7 -41q0 -48 48 -48q26 0 52.5 15.5t47.5 45.5t34.5 74.5t13.5 102.5q0 59 -22.5 106.5t-62.5 80.5
t-94 51t-117 18q-82 0 -146.5 -33t-109.5 -87.5t-69 -126t-24 -148.5q0 -50 16 -103.5t54 -98t100.5 -73.5t156.5 -29q62 0 104.5 11t72.5 29zM379 89q29 0 59 26.5t54 66t39 85t15 84.5q0 24 -9.5 40t-33.5 16q-27 0 -58 -26t-57.5 -63.5t-44.5 -80.5t-18 -77
q0 -38 13 -54.5t41 -16.5z" />
    <glyph glyph-name="A" unicode="A" horiz-adv-x="748" 
d="M640 793l-91 -701q-1 -5 -1 -9v-8q1 -26 19.5 -35t65.5 -12l-14 -28h-308l14 28q28 0 49 3.5t35 12t22 23.5t11 38l25 181h-237l-129 -149q-23 -27 -31.5 -40.5t-8.5 -27.5q1 -16 20.5 -25.5t64.5 -15.5l-13 -28h-278l14 28q36 5 61 12.5t45.5 20.5t39.5 31.5t43 46.5
l463 538l11 93zM514 614l-252 -291h210z" />
    <glyph glyph-name="B" unicode="B" horiz-adv-x="715" 
d="M243 38q132 0 200 55t68 158q0 72 -37.5 105t-114.5 33h-72l-104 -254q-17 -41 -17 -61t17.5 -28t59.5 -8zM397 429q106 0 164.5 48.5t58.5 134.5q0 60 -32.5 88.5t-96.5 28.5h-61l-126 -300h93zM-52 28l88 19l282 676l-78 19l11 28h240q53 0 96 -11t73.5 -31t47 -49.5
t16.5 -65.5q0 -38 -17.5 -73t-48 -63.5t-73 -48.5t-91.5 -27v-4q60 -15 92.5 -57.5t32.5 -105.5q0 -53 -23 -96t-65.5 -74t-102 -47.5t-132.5 -16.5h-359z" />
    <glyph glyph-name="C" unicode="C" horiz-adv-x="742" 
d="M540 77h-4q-59 -47 -115 -67t-123 -20q-235 0 -235 223q0 71 22.5 140.5t62 132.5t93.5 116.5t117 93t133 62t141 22.5q48 0 89 -11.5t68 -31.5l36 33h22l-97 -230h-29q15 55 15 94q0 54 -27.5 78t-86.5 24q-56 0 -111.5 -20.5t-105 -56.5t-92 -85t-74 -106.5t-49 -121
t-17.5 -127.5q0 -182 152 -182q48 0 94 17.5t87 50.5t75 80.5t60 107.5h29l-111 -293h-27z" />
    <glyph glyph-name="D" unicode="D" horiz-adv-x="805" 
d="M-58 23l92 19l284 686l-78 19l10 23h206q74 0 134 -21t102.5 -60t65.5 -94.5t23 -124.5q0 -67 -20 -131t-56 -119.5t-87 -100t-113 -72.5q-104 -47 -263 -47h-310zM236 42q87 0 166 30.5t139 88.5t95 142.5t35 191.5q0 112 -56.5 173.5t-159.5 61.5h-27l-249 -601
q-13 -30 -13 -49q0 -21 16 -29.5t54 -8.5z" />
    <glyph glyph-name="E" unicode="E" horiz-adv-x="713" 
d="M-68 0l10 23l92 19l284 686l-78 19l10 23h480l8 -220h-27q-9 54 -22.5 98t-35.5 82h-226l-124 -304h168q49 57 84 114h29l-113 -274h-29q8 30 11.5 60t5.5 60h-174l-142 -346h323q41 48 74.5 95t62.5 95h29l-91 -230h-609z" />
    <glyph glyph-name="F" unicode="F" horiz-adv-x="644" 
d="M-68 0l10 23l92 19l284 686l-78 19l10 23h488v-220h-27q-8 54 -20.5 98t-29.5 82h-234l-129 -316h168q49 57 84 114h29l-113 -274h-29q8 30 11.5 60t5.5 60h-174l-137 -334l117 -17l-10 -23h-318z" />
    <glyph glyph-name="G" unicode="G" horiz-adv-x="798" 
d="M598 344l-83 19l10 23h284l-10 -23l-96 -19l-118 -285q-61 -34 -128.5 -51.5t-130.5 -17.5q-122 0 -188.5 64.5t-66.5 182.5q0 68 21.5 134.5t59 127t89.5 112t112.5 89t127.5 59t135 21.5q53 0 92 -13t72 -42l51 45h24l-98 -240h-30q7 27 10.5 49t3.5 42q0 115 -129 115
q-55 0 -108.5 -19t-101 -53.5t-87.5 -81.5t-69 -103t-45.5 -118.5t-16.5 -127.5q0 -199 164 -199q64 0 105 29.5t68 95.5z" />
    <glyph glyph-name="H" unicode="H" horiz-adv-x="859" 
d="M643 385h-356l-142 -343l82 -19l-10 -23h-289l10 23l97 19l284 686l-83 19l10 23h290l-10 -23l-96 -19l-126 -303h356l126 303l-83 19l10 23h290l-10 -25l-96 -17l-285 -686l81 -21l-9 -21h-290l10 23l97 19z" />
    <glyph glyph-name="I" unicode="I" horiz-adv-x="392" 
d="M319 728l-83 19l10 23h290l-10 -23l-96 -19l-285 -686l82 -19l-10 -23h-289l10 23l97 19z" />
    <glyph glyph-name="J" unicode="J" horiz-adv-x="380" 
d="M115 -27q-22 -53 -52 -95.5t-65.5 -72t-74.5 -45.5t-80 -16q-55 0 -87 23.5t-32 55.5q0 24 15.5 37t35.5 13q24 0 34 -14t16.5 -30.5t15 -30.5t31.5 -14q16 0 30 9t29 31t32 58.5t40 90.5l315 755l-83 19l10 23h290l-10 -23l-96 -19z" />
    <glyph glyph-name="K" unicode="K" horiz-adv-x="743" 
d="M429 729l-134 -322l315 248q45 36 45 55q0 15 -16.5 25t-52.5 12l9 23h259l-14 -28q-22 -2 -39.5 -5.5t-32.5 -9.5t-30 -15.5t-31 -22.5l-290 -231l157 -416l88 -19l-7 -23h-181l-139 392l-69 -54l-123 -296l119 -19l-10 -23h-316l9 23l88 19l286 686l-78 19l9 23h270
l-10 -23z" />
    <glyph glyph-name="L" unicode="L" horiz-adv-x="695" 
d="M-68 0l10 23l92 19l284 686l-78 19l10 23h286l-10 -23l-101 -22l-282 -685h318q41 48 77 101t65 101h34l-96 -242h-609z" />
    <glyph glyph-name="M" unicode="M" horiz-adv-x="994" 
d="M-90 23l97 19l351 686l-90 19l9 23h234l-72 -601h4l461 601h234l-9 -23l-97 -19l-285 -686l82 -19l-10 -23h-284l10 23l97 19l279 668h-4l-558 -720h-53l87 700h-4l-334 -648l82 -19l-10 -23h-227z" />
    <glyph glyph-name="N" unicode="N" horiz-adv-x="815" 
d="M353 690h-4l-269 -648l82 -19l-10 -23h-227l10 23l97 19l284 686l-83 19l10 23h212l124 -599h4l231 557l-83 19l10 23h228l-10 -23l-96 -19l-307 -738h-58z" />
    <glyph glyph-name="O" unicode="O" horiz-adv-x="804" 
d="M304 -10q-109 0 -169 64t-60 182q0 68 19.5 134.5t54 127t81.5 112.5t102 89.5t116 59t123 21.5q110 0 170 -65t60 -184q0 -68 -19.5 -134.5t-54 -126.5t-81.5 -111.5t-102 -89t-116.5 -58.5t-123.5 -21zM319 37q46 0 91 21t86.5 58t77 87.5t61 109t40.5 123t15 129.5
q0 171 -125 171q-46 0 -91.5 -21t-87 -58t-77 -87.5t-62 -109t-41.5 -122.5t-15 -128q0 -173 128 -173z" />
    <glyph glyph-name="P" unicode="P" horiz-adv-x="653" 
d="M265 341l-122 -299l119 -19l-10 -23h-316l9 23l88 19l286 686l-78 19l9 23h240q109 0 169.5 -46t60.5 -130q0 -57 -25.5 -103.5t-72.5 -80t-113 -51.5t-146 -18h-98zM377 385q49 0 93 17.5t76 48t51 71t19 86.5q0 59 -32 90t-94 31h-61l-145 -344h93z" />
    <glyph glyph-name="Q" unicode="Q" horiz-adv-x="804" 
d="M270 -8q-92 11 -143 73t-51 172q0 68 19.5 134.5t54 127t81.5 112t102.5 89t116.5 59t124 21.5q109 0 168.5 -65t59.5 -185q0 -87 -31 -168t-83 -149.5t-120 -121.5t-143 -83l-235 -95q28 -21 59 -30.5t76 -9.5q66 0 114.5 18t68.5 46h34q-5 -17 -20.5 -45t-43 -54.5
t-66 -45.5t-87.5 -19q-46 0 -74 16t-49.5 34.5t-42 34.5t-51.5 16q-14 0 -18 -3.5t-4 -10.5q0 -6 2 -12.5t2 -13.5q0 -14 -11.5 -24.5t-28.5 -10.5q-20 0 -29 13t-9 29q0 23 16.5 39t50.5 30l191 78v4zM318 37q46 0 91.5 21t87 58t77 87t61.5 108.5t41 122.5t15 128
q0 89 -30.5 131.5t-93.5 42.5q-46 0 -91.5 -21t-87.5 -58t-77.5 -87.5t-62 -108.5t-41.5 -121.5t-15 -127.5q0 -175 126 -175z" />
    <glyph glyph-name="R" unicode="R" horiz-adv-x="740" 
d="M270 354l-127 -312l119 -19l-10 -23h-316l9 23l88 19l286 686l-78 19l9 23h240q117 0 172 -42t55 -121q0 -49 -19 -90.5t-53.5 -73.5t-84 -53.5t-110.5 -30.5l114 -317l108 -19l-7 -23h-201l-117 354h-77zM382 398q48 0 90.5 17t74.5 45.5t50.5 66.5t18.5 81q0 59 -32 90
t-94 31h-61l-140 -331h93z" />
    <glyph glyph-name="S" unicode="S" horiz-adv-x="589" 
d="M69 261h29q-13 -52 -13 -96q0 -135 137 -135q77 0 120.5 39t43.5 108q0 40 -14 71t-35 57.5t-45.5 51.5t-45.5 53.5t-35 62.5t-14 79q0 50 18.5 92t51.5 72t78.5 47t100.5 17q49 0 85.5 -15t65.5 -47l46 52h32l-86 -220h-30q5 19 9 44t4 43q0 50 -31 76.5t-91 26.5
q-72 0 -110 -38.5t-38 -110.5q0 -21 3 -37t11 -32.5t23.5 -36t39.5 -47.5q34 -39 56 -69t35 -55t18.5 -47.5t5.5 -47.5q0 -49 -21 -91t-58.5 -72.5t-88 -48t-110.5 -17.5q-128 0 -171 82l-51 -72h-31z" />
    <glyph glyph-name="T" unicode="T" horiz-adv-x="735" 
d="M490 730h-178q-50 -43 -93.5 -90t-75.5 -90h-24l128 220h626l-54 -220h-24q1 11 1 22.5v22.5q0 34 -4 68.5t-15 66.5h-178l-285 -688l102 -19l-10 -23h-318l10 23l107 19z" />
    <glyph glyph-name="U" unicode="U" horiz-adv-x="778" 
d="M310 728l-82 19l9 23h285l-10 -23l-96 -20l-191 -458q-14 -32 -21.5 -65.5t-7.5 -59.5q0 -107 144 -107q40 0 73.5 11t63 36.5t56.5 68.5t54 106l203 469l-84 19l11 23h221l-9 -23l-95 -19l-211 -498q-31 -73 -66.5 -119.5t-75 -73.5t-82.5 -37t-89 -10q-106 0 -161 41
t-55 119q0 69 43 170z" />
    <glyph glyph-name="V" unicode="V" horiz-adv-x="734" 
d="M180 -10l89 688q1 5 1 9v8q-1 26 -19.5 35t-65.5 12l14 28h308l-14 -28q-29 0 -49.5 -3.5t-34.5 -12t-22 -23.5t-11 -38l-73 -532h4l390 500q22 28 28 41t6 27q-1 16 -20.5 25.5t-64.5 15.5l13 28h289l-14 -28q-36 -5 -61.5 -12.5t-46.5 -19.5t-40 -31t-41 -48l-506 -641
h-59z" />
    <glyph glyph-name="W" unicode="W" horiz-adv-x="1029" 
d="M175 -10l89 688q1 5 1 9v8q-1 26 -19.5 35t-65.5 12l14 28h288l-14 -28q-24 0 -41 -3.5t-28.5 -12t-18 -23.5t-9.5 -38l-73 -531l286 392l20 152q1 5 1 9v8q-1 26 -12.5 35t-42.5 12l14 28h278l-14 -28q-28 0 -48.5 -3.5t-34.5 -12t-22.5 -23.5t-11.5 -38l-73 -531
l364 499q20 28 27 41t7 27q-1 16 -20.5 25.5t-64.5 15.5l13 28h269l-14 -28q-32 -5 -54.5 -12.5t-41 -20t-35.5 -31.5t-38 -47l-476 -641h-59l59 457l-340 -457h-59z" />
    <glyph glyph-name="X" unicode="X" horiz-adv-x="744" 
d="M-108 0l10 23q27 1 50.5 6.5t50.5 20.5t61 42.5t83 74.5l215 206l-70 290q-5 21 -11.5 35t-18.5 23.5t-31 15.5t-49 9l11 24h294l-9 -23q-42 -4 -59 -16t-17 -38q0 -16 6 -38l49 -207l213 203q27 26 39.5 44t12.5 29q0 23 -53 23l9 23h238l-10 -23q-28 -4 -50.5 -10
t-43.5 -16t-41.5 -26t-44.5 -39l-259 -249l71 -291q6 -24 13.5 -40t19 -26.5t28 -16.5t40.5 -10l-10 -23h-299l9 23q49 7 69 19t20 38q0 8 -1.5 16t-3.5 19l-49 215l-190 -184q-50 -48 -50 -76q0 -35 78 -47l-11 -23h-309z" />
    <glyph glyph-name="Y" unicode="Y" horiz-adv-x="716" 
d="M88 0l10 23l97 19l124 298l-49 324q-4 25 -8.5 41t-14 25.5t-25.5 13t-42 3.5l10 23h282l-10 -23q-42 -2 -60 -15.5t-18 -54.5q0 -16 3 -37l30 -246l269 270q33 33 33 52q0 31 -83 31l9 23h276l-13 -23q-31 -2 -54 -7t-45 -17t-45.5 -32t-55.5 -53l-269 -275l-135 -321
l98 -19l-10 -23h-304z" />
    <glyph glyph-name="Z" unicode="Z" horiz-adv-x="697" 
d="M-29 0l22 51l625 679h-269q-49 -41 -93.5 -87t-78.5 -90h-27l120 217h496l-22 -52l-622 -676h312q107 101 178 202h34l-123 -244h-552z" />
    <glyph glyph-name="bracketleft" unicode="[" horiz-adv-x="364" 
d="M-34 -187l326 1007h199l-10 -32h-118l-306 -944h117l-10 -31h-198z" />
    <glyph glyph-name="backslash" unicode="\" horiz-adv-x="627" 
d="M339 -169l-98 988h70l97 -988h-69z" />
    <glyph glyph-name="bracketright" unicode="]" horiz-adv-x="363" 
d="M-112 -187l10 31h118l306 944h-118l10 32h199l-327 -1007h-198z" />
    <glyph glyph-name="asciicircum" unicode="^" horiz-adv-x="498" 
d="M68 332l341 379h36l27 -379h-36l-28 317h-4l-288 -317h-48z" />
    <glyph glyph-name="underscore" unicode="_" horiz-adv-x="718" 
d="M-79 -74l17 44h550l-17 -44h-550z" />
    <glyph glyph-name="grave" unicode="`" horiz-adv-x="119" 
d="M68 636l-45 119q-8 20 -10.5 31.5t-2.5 24.5q0 20 16 33t36 13q47 0 47 -42q0 -10 -0.5 -14.5t-0.5 -8.5l-12 -150z" />
    <glyph glyph-name="a" unicode="a" horiz-adv-x="604" 
d="M371 540q28 0 46.5 -10.5t36.5 -36.5l16 37h102l-172 -421q-6 -19 -8 -27t-2 -14q0 -19 16 -19q15 0 42 21t69 68l20 -14q-53 -66 -100.5 -100t-89.5 -34q-28 0 -43.5 14.5t-15.5 43.5q0 22 7 45.5t27 55.5l-6 3q-59 -86 -107 -124t-99 -38t-80.5 34.5t-29.5 97.5
q0 45 16 93.5t43.5 95t64 88t78 73t85 50t84.5 18.5zM129 25q25 0 60.5 27.5t73.5 75t75.5 110.5t67.5 134q15 35 18.5 53.5t3.5 32.5q0 23 -13 36.5t-33 13.5q-25 0 -56 -21.5t-63.5 -56.5t-63 -80t-54.5 -92.5t-38.5 -93t-14.5 -81.5q0 -30 8.5 -44t28.5 -14z" />
    <glyph glyph-name="b" unicode="b" horiz-adv-x="575" 
d="M201 820h192l-141 -358h5q34 38 73.5 58t77.5 20q57 0 90.5 -39.5t33.5 -114.5q0 -72 -30.5 -143t-80.5 -127.5t-114 -91t-130 -34.5q-70 0 -106.5 37.5t-36.5 103.5q0 52 27 118l222 544l-78 12zM189 310q-11 -21 -23.5 -51t-23.5 -61.5t-18.5 -62t-7.5 -53.5
q0 -26 15 -41.5t38 -15.5q25 0 54.5 19t59 50t57 71.5t49 84t34 86.5t12.5 80q0 40 -14 64.5t-38 24.5q-21 0 -46.5 -15t-51.5 -41.5t-51.5 -62t-44.5 -76.5z" />
    <glyph glyph-name="c" unicode="c" horiz-adv-x="498" 
d="M387 509q-30 0 -62.5 -19.5t-63 -52.5t-58.5 -75.5t-48.5 -88t-33 -91t-12.5 -83.5t13.5 -56t45.5 -18q85 0 216 134l22 -13q-66 -77 -133 -116.5t-133 -39.5q-65 0 -97.5 39t-32.5 114q1 82 44.5 164t122.5 144q54 42 113 65.5t109 23.5q26 0 48 -7t38.5 -19.5t25.5 -29
t9 -35.5q0 -18 -12 -29t-32 -11q-39 0 -46 48q-5 28 -14.5 40t-28.5 12z" />
    <glyph glyph-name="d" unicode="d" horiz-adv-x="603" 
d="M481 820h191l-268 -711q-7 -18 -9 -26.5t-2 -14.5q0 -11 5 -15t13 -4q15 0 39 21t66 68l20 -14q-99 -134 -183 -134q-33 0 -47 18t-14 54q0 18 7.5 38.5t21.5 48.5l-2 3q-30 -44 -56 -75t-50.5 -50.5t-49 -28t-51.5 -8.5q-109 0 -109 130q0 70 32.5 144t84.5 135.5
t115.5 101t126.5 39.5q29 0 47.5 -10.5t37.5 -36.5l116 300l-77 12zM130 25q25 0 60 28t72 75.5t73.5 110.5t65.5 133q14 35 19 53t6 33q-4 23 -15.5 36.5t-31.5 13.5q-25 0 -56 -21.5t-63 -57t-62 -80.5t-53.5 -92.5t-37.5 -93.5t-14 -82q0 -29 10 -42.5t27 -13.5z" />
    <glyph glyph-name="e" unicode="e" horiz-adv-x="485" 
d="M398 540q45 0 70.5 -18.5t25.5 -50.5t-25 -62.5t-70 -57t-107.5 -48t-137.5 -34.5q-57 -107 -57 -177q0 -67 58 -67q23 0 50 10t54 27.5t53.5 42t48.5 54.5l22 -14q-123 -155 -253 -155q-62 0 -96 35t-34 100q0 46 17 94.5t46.5 94.5t69 87.5t83.5 72t91 48.5t91 18z
M176 302q46 9 89 28t76 43.5t53 52t20 53.5q0 30 -32 30q-21 0 -44.5 -11t-46.5 -31t-44.5 -47t-38.5 -59z" />
    <glyph glyph-name="f" unicode="f" horiz-adv-x="324" 
d="M517 830q27 0 51.5 -8t42.5 -22t29 -33t11 -41t-12.5 -35t-35.5 -13q-20 0 -33.5 12t-13.5 32q0 14 3.5 24.5t3.5 21.5q0 17 -14 26t-37 9q-50 0 -94 -50.5t-89 -162.5l-24 -60h98l-13 -32h-97l-127 -295q-51 -120 -100.5 -206.5t-98 -142.5t-98.5 -83t-102 -27
q-51 0 -80 23t-29 60q0 20 12.5 30.5t34.5 10.5q25 0 35.5 -14t16.5 -30.5t13 -30.5t27 -14t45 18.5t55 61.5t65.5 112.5t76.5 171.5l144 355h-88l12 32h89l31 70q28 63 61.5 106.5t71 71t77.5 40t80 12.5z" />
    <glyph glyph-name="g" unicode="g" horiz-adv-x="527" 
d="M232 218q27 0 53 18.5t46.5 49t32.5 70t12 80.5q0 35 -12.5 51t-41.5 16q-25 0 -51.5 -18.5t-48.5 -48t-36 -65.5t-14 -71q0 -39 15.5 -60.5t44.5 -21.5zM528 540q26 0 41 -15t15 -35q0 -17 -12.5 -28.5t-29.5 -11.5q-11 0 -18 4.5t-13.5 9.5t-13 9.5t-15.5 4.5
q-11 0 -21 -6.5t-15 -17.5q11 -23 15 -40.5t4 -37.5q0 -40 -16.5 -75t-45 -61t-66.5 -41t-81 -15q-16 0 -37.5 1.5t-40.5 1.5q-91 0 -91 -45q0 -35 50 -51l156 -53q48 -17 76.5 -51.5t28.5 -78.5q0 -36 -20 -66t-55.5 -51.5t-85 -34t-108.5 -12.5q-54 0 -99 11t-77.5 30.5
t-50 47.5t-17.5 62q0 29 12.5 54t35 43.5t53.5 29t67 10.5q-21 16 -32.5 38t-11.5 46q0 47 39.5 73.5t109.5 26.5l1 4q-74 52 -74 132q0 37 17 71.5t46 60t67.5 41t81.5 15.5q81 0 130 -61q52 61 101 61zM143 -226q39 0 71 7.5t55 21t36 32t13 40.5q0 25 -21 48t-53 34
l-128 43q-11 4 -17.5 5t-14.5 1q-24 0 -44.5 -9t-35 -24.5t-23 -36t-8.5 -43.5q0 -56 46 -87.5t124 -31.5z" />
    <glyph glyph-name="h" unicode="h" horiz-adv-x="595" 
d="M293 793l-76 12l-2 15h191l-190 -438l5 -2q63 85 115.5 122t108.5 37q42 0 67 -20.5t25 -58.5q0 -20 -6 -44.5t-21 -55.5l-117 -239q-10 -20 -15 -34t-5 -23q0 -15 15 -15q17 0 47.5 24.5t66.5 65.5l21 -15q-51 -66 -101 -100t-98 -34q-32 0 -45.5 14.5t-13.5 43.5
q0 40 35 110l134 269q14 30 14 50q0 28 -29 28q-26 0 -59.5 -23.5t-70 -65.5t-73 -99t-67.5 -123l-91 -194h-93z" />
    <glyph glyph-name="i" unicode="i" horiz-adv-x="340" 
d="M307 780q26 0 45 -16t19 -39q0 -14 -6.5 -26.5t-17 -22t-24 -15.5t-27.5 -6q-29 0 -45.5 15.5t-16.5 41.5q0 28 22 48t51 20zM227 540q29 0 47 -12.5t18 -36.5q0 -28 -16 -66l-143 -344q-3 -8 -3 -13q0 -19 20 -19q7 0 15 3.5t20 12.5t29 24.5t41 39.5l20 -12
q-47 -60 -98 -93.5t-89 -33.5q-29 0 -47 13.5t-18 42.5q0 13 3.5 29t11.5 36l145 356q5 11 5 19q0 9 -13 9q-18 0 -41.5 -16.5t-46.5 -45.5l-23 18q34 42 78.5 65.5t84.5 23.5z" />
    <glyph glyph-name="j" unicode="j" horiz-adv-x="306" 
d="M221 540q32 0 47.5 -12.5t15.5 -35.5q-1 -27 -25 -98.5t-78 -190.5l-127 -284q-38 -85 -95.5 -130t-132.5 -45q-51 0 -84 21t-33 56q0 47 46 47q26 0 36 -14t16 -30.5t15 -30.5t33 -14q15 0 29.5 9.5t30 31.5t33 59t39.5 93l110 280q24 63 39.5 103t24.5 65t12.5 38
t3.5 21q0 13 -14 13q-36 0 -83 -59l-21 18q36 43 78.5 66t83.5 23zM300 780q27 0 45 -17t18 -41q0 -26 -22 -46.5t-52 -20.5q-28 0 -44 16.5t-16 40.5q0 28 21 48t50 20z" />
    <glyph glyph-name="k" unicode="k" horiz-adv-x="560" 
d="M220 820h191l-154 -358h4q31 35 77.5 56.5t93.5 21.5q46 0 70 -19.5t24 -55.5q0 -29 -21 -60t-57 -59.5t-83.5 -52.5t-101.5 -39l68 -143q21 -44 33.5 -61t28.5 -17q32 0 68 47l20 -11q-20 -34 -56.5 -56.5t-73.5 -22.5q-36 0 -63 24t-52 76l-69 145h-8l-95 -235h-100
l333 793l-75 12zM295 453q-37 -32 -65 -75t-54 -110q50 3 95 20t79.5 43.5t55 59t20.5 65.5q0 40 -38 40q-23 0 -45.5 -11t-47.5 -32z" />
    <glyph glyph-name="l" unicode="l" horiz-adv-x="316" 
d="M215 820h198l-221 -515q-29 -66 -47 -108t-28 -68t-14 -39.5t-4 -22.5q0 -8 6.5 -13t14.5 -5q6 0 14 3t20.5 11.5t29.5 24t41 41.5l22 -12q-51 -62 -103.5 -94.5t-93.5 -32.5q-24 0 -37.5 16.5t-13.5 45.5q0 9 2 20t7.5 29t16.5 46t28.5 71t42.5 103.5t60 144.5l137 327
l-76 12z" />
    <glyph glyph-name="m" unicode="m" horiz-adv-x="891" 
d="M525 380q54 83 104.5 121t104.5 38q87 0 87 -88q0 -21 -5.5 -42t-18.5 -49l-107 -239q-12 -26 -16.5 -38.5t-4.5 -18.5q0 -15 15 -15q17 0 48 24t67 66l21 -15q-51 -66 -102 -100t-98 -34q-60 0 -60 52q0 20 9 48t27 68l125 269q14 30 14 48q0 14 -8 22t-22 8
q-24 0 -55 -23t-64.5 -63.5t-66.5 -95t-60 -116.5l-92 -207h-108l196 427q13 29 13 48q0 14 -8.5 22t-23.5 8q-24 0 -55.5 -23t-65 -64.5t-68.5 -98.5t-66 -125l-90 -194h-97l192 446q11 25 11 36q0 13 -15 13q-18 0 -47 -23.5t-58 -61.5l-20 16q38 53 89.5 83.5t99.5 30.5
t48 -40q0 -20 -10.5 -47.5t-34.5 -70.5l5 -2q59 85 108.5 122t103.5 37q82 0 82 -73q0 -39 -27 -84z" />
    <glyph glyph-name="n" unicode="n" horiz-adv-x="629" 
d="M246 540q26 0 37 -9.5t11 -30.5q0 -20 -10 -46.5t-34 -71.5l4 -2q32 42 61 72.5t56 49.5t53.5 28t54.5 9q91 0 91 -87q0 -42 -25 -92l-117 -239q-9 -18 -14.5 -34t-5.5 -24q0 -14 12 -14q17 0 48 23.5t69 66.5l21 -15q-107 -134 -201 -134q-59 0 -59 53q0 21 9.5 50.5
t26.5 64.5l136 269q5 11 9 24t4 24q0 30 -32 30q-26 0 -58.5 -23.5t-68 -65t-72 -98.5t-68.5 -124l-93 -194h-97l192 446q11 27 11 34q0 15 -14 15q-17 0 -46 -23.5t-60 -61.5l-20 16q38 53 89.5 83.5t99.5 30.5z" />
    <glyph glyph-name="o" unicode="o" horiz-adv-x="557" 
d="M161 -10q-72 0 -110 44t-38 121q0 44 14.5 90t40 89t59.5 80.5t73.5 65.5t81.5 44t84 16q72 0 110.5 -44t38.5 -120q0 -68 -32 -136.5t-83 -124t-114 -90.5t-125 -35zM378 505q-27 0 -57.5 -19.5t-61 -51.5t-58.5 -74t-49.5 -87t-34.5 -90.5t-13 -84.5q0 -36 10.5 -54.5
t34.5 -18.5q25 0 55 20t61 53.5t60 77t51.5 89t36 90.5t13.5 82q0 34 -11 51t-37 17z" />
    <glyph glyph-name="p" unicode="p" horiz-adv-x="566" 
d="M338 630l-36 -90q103 -11 158 -63.5t55 -128.5q0 -68 -32 -129.5t-85.5 -108t-122 -73.5t-140.5 -27q-25 0 -52 3l-97 -233l102 -12v-18h-286v15l80 12l310 726q-69 -12 -105 -37l-8 20q25 17 57 29.5t67 17.5l35 86zM94 40q9 -1 14.5 -1h11.5q55 0 107.5 27.5t93.5 73.5
t65.5 105.5t24.5 123.5q0 68 -29.5 103.5t-74.5 35.5q-18 0 -23 -11z" />
    <glyph glyph-name="q" unicode="q" horiz-adv-x="571" 
d="M121 25q25 0 61.5 28t76 75.5t79.5 110.5t72 133q16 35 20.5 53t5.5 33q-2 23 -13 36.5t-31 13.5q-26 0 -58.5 -22t-66 -58t-66 -82t-58 -94t-41 -94t-15.5 -82q0 -51 34 -51zM260 -223l72 -9v-18h-288v15l116 17l156 367l-2 3q-32 -44 -60 -75t-53.5 -50.5t-50.5 -28
t-52 -8.5q-102 0 -102 119q0 47 16.5 97t45 98t66.5 91t80.5 75t87.5 51t88 19q29 0 47.5 -10.5t32.5 -36.5l18 37h101z" />
    <glyph glyph-name="r" unicode="r" horiz-adv-x="455" 
d="M438 540q32 0 53.5 -15t21.5 -41q0 -20 -11 -32.5t-33 -12.5q-15 0 -23 5.5t-15 12.5t-15 12.5t-22 5.5q-43 0 -93.5 -70t-118.5 -211l-93 -194h-97l193 446q5 11 8 20.5t3 16.5q0 12 -13 12q-17 0 -47.5 -23.5t-60.5 -61.5l-19 16q40 51 88.5 82.5t90.5 31.5
q21 0 34 -12.5t13 -38.5q0 -20 -9 -43t-34 -64l5 -2q52 85 98.5 122.5t95.5 37.5z" />
    <glyph glyph-name="s" unicode="s" horiz-adv-x="441" 
d="M281 540q31 0 59 -7.5t49 -20t33.5 -29.5t12.5 -35t-12.5 -29.5t-32.5 -11.5q-39 0 -45 44q-5 37 -16 48.5t-42 11.5q-45 0 -67.5 -24t-22.5 -66q0 -35 19.5 -69.5t43.5 -70t43.5 -71.5t19.5 -74q0 -31 -15 -57.5t-41.5 -46t-62 -31t-76.5 -11.5q-33 0 -62.5 8
t-51.5 21.5t-35 31.5t-13 37q0 18 12.5 29t32.5 11q18 0 27 -8t14 -20t9.5 -25.5t12 -25.5t21 -20t38.5 -8q43 0 68 26t25 65q0 31 -20.5 63.5t-44.5 66.5t-44.5 70.5t-20.5 77.5q0 31 14.5 58.5t39.5 47.5t59 32t72 12z" />
    <glyph glyph-name="t" unicode="t" horiz-adv-x="339" 
d="M112 530h86l63 147l107 10l-68 -157h88l-11 -32h-90l-83 -193q-32 -75 -51 -119t-28.5 -67t-12 -32t-2.5 -14q0 -24 22 -24q15 0 39 19t65 61l20 -12q-48 -61 -98.5 -94t-94.5 -33q-30 0 -41.5 15t-11.5 48q0 10 2.5 23.5t9.5 35.5t20.5 56t36.5 87l105 243h-83z" />
    <glyph glyph-name="u" unicode="u" horiz-adv-x="618" 
d="M66 434q45 52 89.5 79t86.5 27q28 0 43.5 -13t15.5 -39q0 -43 -35 -116l-131 -269q-7 -14 -10 -27t-3 -23q0 -14 9 -21t21 -7q24 0 55 23.5t65 64.5t68 98t66 125l91 194h99l-194 -446q-11 -24 -11 -37q0 -6 4.5 -9t9.5 -3q18 0 47 23.5t59 61.5l20 -16q-20 -26 -42 -47
t-43.5 -36t-42 -23t-38.5 -8q-24 0 -40.5 16t-16.5 42q0 18 7 42.5t24 57.5l-5 2q-31 -43 -58.5 -73t-53.5 -49t-51.5 -28t-52.5 -9q-89 0 -89 88q0 39 25 91l117 239q20 40 20 59q0 13 -12 13q-14 0 -37.5 -16.5t-52.5 -46.5z" />
    <glyph glyph-name="v" unicode="v" horiz-adv-x="614" 
d="M101 360q-11 9 -14 24q0 14 12 24t30 10q16 0 28 -11t12 -29q0 -19 -13 -29.5t-35 -10.5q-32 0 -52 22t-20 61q0 55 46 82t143 27h156q-13 -28 -22 -47t-20.5 -39.5t-28.5 -46t-44 -67.5q-26 -40 -43.5 -69.5t-28 -53.5t-14.5 -44t-4 -41q0 -48 15.5 -70.5t45.5 -22.5
q50 0 103.5 42t107.5 127q32 51 47 91t15 78q0 29 -6 59.5t-6 53.5q0 27 12.5 43.5t35.5 16.5q21 0 32.5 -15.5t11.5 -42.5q0 -24 -7.5 -56t-20.5 -68t-31 -74.5t-40 -75.5q-64 -108 -140.5 -163t-157.5 -55q-57 0 -90 30t-33 83q0 24 8 48t25.5 51.5t45.5 60t68 73.5
q15 16 27 29t22 25.5t19.5 27t21.5 33.5h-148q-50 0 -71.5 -14t-21.5 -43q0 -25 19 -38z" />
    <glyph glyph-name="w" unicode="w" horiz-adv-x="905" 
d="M532 -10q-86 0 -129 65q-90 -65 -177 -65q-63 0 -98.5 29t-35.5 81q0 23 6.5 47.5t22.5 53t41.5 61.5t64.5 74q16 16 28 29.5t22 26.5t20 27t21 32h-149q-50 0 -71.5 -14t-21.5 -43q0 -13 5.5 -22.5t13.5 -15.5l3 4q-5 5 -8.5 11t-3.5 13q0 14 11.5 24t28.5 10
q16 0 28.5 -11t12.5 -29q0 -19 -13 -29.5t-36 -10.5q-32 0 -51.5 21t-19.5 58q0 57 44 85t144 28h157q-14 -30 -24.5 -50t-22 -40.5t-27.5 -45.5t-41 -64q-24 -36 -39 -65t-24 -53t-12.5 -44.5t-3.5 -39.5q0 -90 71 -90q26 0 56 12.5t62 34.5q-16 36 -16 88q0 61 24.5 126.5
t63 118.5t85 87.5t91.5 34.5q28 0 44 -16t16 -45t-16.5 -71t-45 -89.5t-67.5 -97.5t-84 -96q13 -41 37.5 -63t59.5 -22q43 0 88.5 40t88.5 118q26 49 38.5 88.5t12.5 77.5q0 32 -6 62.5t-6 53.5q0 28 12.5 44t35.5 16q19 0 31 -14t12 -41q0 -23 -6.5 -55.5t-17.5 -69
t-27.5 -76t-35.5 -76.5q-55 -106 -123.5 -162t-143.5 -56zM470 221q0 -16 1 -30t3 -28q32 35 60.5 75t50 80.5t34 80t12.5 74.5q0 19 -4.5 26.5t-12.5 7.5q-26 0 -51.5 -26t-46 -67.5t-33.5 -92.5t-13 -100z" />
    <glyph glyph-name="x" unicode="x" horiz-adv-x="568" 
d="M224 213l-65 -90q-42 -59 -91.5 -91t-89.5 -32q-27 0 -47 14t-20 35q0 19 13.5 32.5t33.5 13.5q14 0 22 -7t14 -15t12.5 -15t18.5 -7q20 0 45 20t53 58l94 128l-30 183q-4 22 -7.5 28t-15.5 6q-16 0 -30.5 -10.5t-36.5 -39.5l-18 10q13 22 31.5 41.5t38.5 34t41 22.5
t40 8q52 0 60 -61l18 -132l55 67q95 116 173 116q28 0 48.5 -14t20.5 -35q0 -19 -13.5 -32.5t-33.5 -13.5q-15 0 -23.5 7t-15 15t-13 15t-17.5 7q-17 0 -39 -17t-52 -54l-85 -104l28 -169q5 -31 9 -50.5t7.5 -30t8 -14t10.5 -3.5t12.5 3t15.5 10.5t21.5 21t30.5 34.5l20 -13
q-30 -49 -69 -76t-78 -27q-38 0 -58.5 26t-29.5 86z" />
    <glyph glyph-name="y" unicode="y" horiz-adv-x="546" 
d="M49 448q26 43 67.5 67.5t84.5 24.5q26 0 43.5 -12.5t28 -46.5t15 -93.5t4.5 -153.5q0 -41 -1.5 -84.5t-4.5 -99.5l3 -3q31 39 58 84t46 89.5t30 84t11 68.5q0 10 -1.5 26t-3 32.5t-2.5 30.5t-1 20q0 26 14 42t37 16t36.5 -16.5t13.5 -45.5q0 -42 -25.5 -112.5
t-68.5 -152.5t-98.5 -165t-114.5 -151t-118 -110.5t-109 -42.5q-38 0 -62.5 15.5t-24.5 41.5q0 20 12 31.5t35 11.5q19 0 29 -8t18 -17t16.5 -17t24.5 -8q19 0 42 13.5t43 38.5q11 13 19.5 25t15 27.5t11 37.5t7 56t3.5 82.5t1 116.5q0 83 -2.5 140t-8.5 92t-15 50t-22 15
q-25 0 -67 -55z" />
    <glyph glyph-name="z" unicode="z" horiz-adv-x="556" 
d="M244 540q27 0 61 -3.5t67.5 -8t63 -8t47.5 -3.5q39 0 76 23l21 -19l-468 -422v-4q40 0 75.5 -5t67 -11.5t58.5 -11.5t50 -5q65 0 65 50l-4 2q-6 -11 -13 -16.5t-18 -5.5q-19 0 -30 12.5t-11 30.5t13 29t34 11q29 0 45 -18.5t16 -50.5q0 -53 -47.5 -84.5t-127.5 -31.5
q-28 0 -55.5 3.5t-54.5 8t-54 8t-54 3.5q-28 0 -45 -5t-35 -18l-23 19l469 421l-2 4q-37 0 -72.5 3.5t-67.5 7.5t-59.5 7.5t-48.5 3.5q-81 0 -81 -52q0 -16 9.5 -26.5t25.5 -13.5l1 4q-18 10 -18 25t11 25.5t28 10.5q19 0 29.5 -13t10.5 -33t-14 -31.5t-37 -11.5
q-33 0 -56 24t-23 60q0 25 12.5 46.5t36 37t55.5 24t71 8.5z" />
    <glyph glyph-name="braceleft" unicode="{" horiz-adv-x="359" 
d="M159 -180q-20 -7 -38 -10.5t-38 -3.5q-50 0 -73.5 15.5t-23.5 50.5q0 27 13.5 64t33 79.5t40.5 88.5t35 90q14 45 14 71q0 29 -17 42t-53 13l8 23q52 0 83.5 28.5t51.5 91.5q9 28 15.5 60.5t12 64.5t10.5 61t13 52q20 62 66 94.5t111 32.5q18 0 32 -3.5t27 -9.5l-14 -26
q-16 3 -24 4t-16 1q-32 0 -57 -25.5t-39 -69.5q-7 -21 -12.5 -49.5t-11.5 -60.5t-12.5 -64.5t-15.5 -60.5q-17 -54 -45 -86t-70 -46l-1 -4q22 -10 32.5 -25t10.5 -39t-15.5 -66.5t-36 -90t-41.5 -94t-31 -78.5q-10 -30 -10 -52q0 -40 46 -40q22 0 43 6z" />
    <glyph glyph-name="bar" unicode="|" horiz-adv-x="311" 
d="M-28 -170l320 989h70l-321 -989h-69z" />
    <glyph glyph-name="braceright" unicode="}" horiz-adv-x="358" 
d="M-93 -151q18 -6 39 -6q43 0 65 32t35.5 83.5t24.5 115.5t32 128q17 54 43.5 82.5t69.5 43.5l1 4q-41 18 -41 68q0 28 14.5 67t33.5 81t38 82t28 69q5 13 6.5 24.5t1.5 22.5q0 23 -10.5 35.5t-33.5 12.5q-8 0 -16.5 -1t-25.5 -4l2 26q17 6 34 9.5t35 3.5q102 0 102 -77
q0 -23 -12.5 -55.5t-30.5 -71t-37 -80t-32 -81.5q-6 -20 -9.5 -35.5t-3.5 -28.5q0 -56 70 -56l-8 -23q-53 0 -83.5 -29t-52.5 -97q-11 -33 -18.5 -68.5t-14 -70t-12.5 -66.5t-15 -59q-22 -66 -62 -95t-106 -29q-20 0 -35 3.5t-31 10.5z" />
    <glyph glyph-name="asciitilde" unicode="~" horiz-adv-x="587" 
d="M55 223q6 19 18.5 43t32 44.5t46 34.5t61.5 14q27 0 51 -8t47.5 -18t47.5 -18t52 -8q34 0 52 14.5t32 37.5h30q-6 -20 -18.5 -43.5t-32 -44t-46.5 -34.5t-61 -14q-27 0 -51 8.5t-48 18t-48.5 18t-51.5 8.5q-34 0 -51.5 -15t-31.5 -38h-30z" />
    <glyph glyph-name="uni00A0" unicode="&#xa0;" horiz-adv-x="283" 
 />
    <glyph glyph-name="exclamdown" unicode="&#xa1;" horiz-adv-x="314" 
d="M159 300l-81 -341q-13 -55 -22 -94.5t-14 -53.5q-8 -23 -23 -37t-40 -14q-29 0 -46.5 17.5t-17.5 45.5q0 10 2.5 21.5t10 28.5t21 42t35.5 62q20 34 37.5 68.5t34.5 73t33.5 83t34.5 98.5h35zM189 415q-26 0 -44.5 16.5t-18.5 41.5q0 27 22.5 47t52.5 20q26 0 42.5 -16
t16.5 -41q0 -28 -21 -48t-50 -20z" />
    <glyph glyph-name="cent" unicode="&#xa2;" horiz-adv-x="521" 
d="M422 539q45 -5 74 -30.5t29 -59.5q0 -18 -12 -29t-32 -11q-39 0 -46 48q-7 41 -27 49l-198 -475q77 23 179 128l22 -13q-106 -125 -215 -150l-61 -146h-45l58 140q-67 0 -100 39t-33 114q1 82 44.5 164t122.5 144q47 36 98 59t97 28l61 148h45zM114 99q0 -35 11 -53
t38 -21l199 479q-29 -9 -58.5 -32.5t-57 -57t-51.5 -73.5t-42 -82t-28.5 -83.5t-10.5 -76.5z" />
    <glyph glyph-name="sterling" unicode="&#xa3;" horiz-adv-x="657" 
d="M141 379h93l79 182q47 109 104.5 164t141.5 55q31 0 57.5 -9t46 -25.5t30.5 -38.5t11 -49q0 -23 -15.5 -39.5t-41.5 -16.5q-25 0 -42.5 17.5t-17.5 49.5q0 44 -8 59.5t-28 15.5q-15 0 -29 -6.5t-29 -24.5t-31.5 -50.5t-36.5 -84.5l-76 -199h180l-16 -44h-183
q-35 -78 -62.5 -129.5t-53.5 -87.5q19 -6 42 -12t45.5 -10.5t44 -7t39.5 -2.5q44 0 75 21t51 61h35q-14 -85 -59 -131.5t-111 -46.5q-42 0 -90.5 19t-111.5 60q-76 -79 -149 -79q-35 0 -55.5 17.5t-20.5 49.5q0 40 28.5 64.5t75.5 24.5q21 0 41.5 -2t35.5 -6q17 34 37 81
t47 116h-93zM110 94q-32 13 -58 13q-24 0 -38.5 -11t-14.5 -30q0 -15 10 -24t27 -9q20 0 36 13.5t38 47.5z" />
    <glyph glyph-name="currency" unicode="&#xa4;" horiz-adv-x="710" 
d="M191 127l-48 48l67 66q-42 51 -42 127q0 72 42 126l-67 65l48 48l66 -67q53 42 126 42q69 0 127 -41l65 66l48 -48l-67 -66q42 -53 42 -125q0 -71 -41 -127l66 -66l-48 -48l-66 67q-53 -42 -126 -42q-72 0 -126 42zM383 216q30 0 56 12t46 32.5t31.5 48t11.5 58.5
t-11.5 58.5t-31.5 48t-46 32.5t-56 12t-56 -12t-46 -32.5t-31.5 -47.5t-11.5 -58t11.5 -58.5t31.5 -48.5t46 -33t56 -12z" />
    <glyph glyph-name="yen" unicode="&#xa5;" horiz-adv-x="798" 
d="M158 254h163l32 77h-159l22 44h135l-43 289q-4 25 -8.5 41t-14 25.5t-25.5 13t-42 3.5l10 23h282l-10 -23q-42 -2 -60 -15.5t-18 -54.5q0 -16 3 -37l30 -246l269 270q33 33 33 52q0 31 -83 31l9 23h276l-13 -23q-31 -2 -54 -7t-45 -17t-45.5 -32t-55.5 -53l-258 -263h157
l-22 -44h-160l-32 -77h156l-22 -44h-153l-70 -168l98 -19l-10 -23h-304l10 23l97 19l70 168h-167z" />
    <glyph glyph-name="brokenbar" unicode="&#xa6;" horiz-adv-x="262" 
d="M153 432l125 387h67l-125 -387h-67zM-42 -171l124 387h67l-125 -387h-66z" />
    <glyph glyph-name="section" unicode="&#xa7;" horiz-adv-x="584" 
d="M303 486q-18 19 -34 39.5t-29 42.5t-20.5 45.5t-7.5 50.5q0 35 14.5 65.5t40 53t60.5 35t77 12.5q34 0 66.5 -9t58 -24t41.5 -34t16 -39t-13 -32t-34 -12q-37 0 -56 51q-14 36 -30.5 50t-39.5 14q-44 0 -69.5 -25.5t-25.5 -68.5q0 -35 14.5 -66t35.5 -59.5t46.5 -56.5
t46.5 -56.5t35.5 -58.5t14.5 -64q0 -33 -14.5 -61.5t-40 -50t-59.5 -33.5t-74 -12h-10t-10 1q19 -22 37.5 -44t33 -45t23.5 -47t9 -51q0 -33 -14.5 -61.5t-39.5 -50t-59 -33.5t-74 -12q-38 0 -75.5 11t-67.5 28.5t-49 39.5t-19 45q0 20 13 32.5t34 12.5q37 0 57 -50
q17 -45 40.5 -64.5t56.5 -19.5q41 0 67 26t26 67q0 31 -14.5 58.5t-36 54.5t-47 53.5t-47 55.5t-36 61t-14.5 70q0 35 14.5 65.5t40.5 52.5t62 34.5t79 12.5zM408 312q0 37 -20.5 70t-49.5 65q-11 4 -29 4q-43 0 -69 -25t-26 -67q0 -35 13.5 -65.5t34.5 -59.5q22 -16 51 -16
q42 0 68.5 26.5t26.5 67.5z" />
    <glyph glyph-name="dieresis" unicode="&#xa8;" horiz-adv-x="317" 
d="M75 780q23 0 40 -14t17 -35q0 -12 -5.5 -23t-15 -20t-21.5 -14t-25 -5q-26 0 -40.5 14t-14.5 37q0 24 19.5 42t45.5 18zM250 780q23 0 40 -14t17 -35q0 -12 -5.5 -23t-15 -20t-21.5 -14t-25 -5q-26 0 -40.5 14t-14.5 37q0 24 19.5 42t45.5 18z" />
    <glyph glyph-name="copyright" unicode="&#xa9;" horiz-adv-x="975" 
d="M127 385q0 81 31 153t85 126t126.5 85t154.5 31t154.5 -31t126.5 -85t85 -126t31 -153t-31 -153t-85 -126t-126.5 -85t-154.5 -31t-154.5 31t-126.5 85t-85 126t-31 153zM174 385q0 -72 27.5 -135t75 -110t111.5 -74.5t136 -27.5t136 27.5t111 74.5t74.5 110t27.5 135
t-27.5 135t-74.5 110t-111 74.5t-136 27.5t-136 -27.5t-111.5 -74.5t-75 -110t-27.5 -135zM279 386q0 56 18 103t50.5 81t77.5 53t99 19q36 0 70.5 -11t63.5 -33h4l27 42h15v-159h-24q-5 16 -10.5 28.5t-14.5 28.5q-20 35 -49 50.5t-71 15.5q-73 0 -112 -55.5t-39 -158.5
t40 -159.5t112 -56.5q74 0 113 59q22 31 33 83h22v-179h-15l-29 51q-32 -27 -65 -39.5t-73 -12.5q-54 0 -98.5 18t-77 51t-50 79t-17.5 102z" />
    <glyph glyph-name="ordfeminine" unicode="&#xaa;" horiz-adv-x="475" 
d="M407 780q18 0 30.5 -6.5t23.5 -23.5l11 24h71l-112 -274q-4 -12 -5 -17.5t-1 -9.5q0 -12 10 -12t27 13.5t45 44.5l18 -14q-37 -42 -70 -62.5t-56 -20.5q-46 0 -46 38q0 14 4.5 29.5t17.5 36.5l-3 2q-38 -56 -70 -81t-64 -25q-38 0 -60 22.5t-22 63.5q0 44 23.5 92
t60.5 88t81 66t86 26zM254 460q16 0 37.5 16t44.5 43.5t46 64t42 77.5q10 23 12 35t2 21q0 15 -9 24t-21 9q-15 0 -34.5 -12.5t-39 -33.5t-38.5 -47.5t-33.5 -54.5t-23.5 -55.5t-9 -48.5q0 -20 5 -29t19 -9z" />
    <glyph glyph-name="guillemotleft" unicode="&#xab;" horiz-adv-x="478" 
d="M105 53l-74 186l5 12l222 185l16 -15l-149 -187v-170zM281 53l-74 186l5 12l222 185l16 -15l-149 -187v-170z" />
    <glyph glyph-name="logicalnot" unicode="&#xac;" horiz-adv-x="634" 
d="M452 264h-359v44h410v-161h-51v117z" />
    <glyph glyph-name="uni00AD" unicode="&#xad;" horiz-adv-x="480" 
d="M44 210l33 84h319l-33 -84h-319z" />
    <glyph glyph-name="registered" unicode="&#xae;" horiz-adv-x="974" 
d="M126 385q0 82 31.5 154t85.5 125.5t126 84.5t154 31t154 -31t126 -84.5t85.5 -125.5t31.5 -154t-31.5 -154t-85.5 -125.5t-126 -84.5t-154 -31t-154 31t-126 84.5t-85.5 125.5t-31.5 154zM173 385q0 -72 27.5 -135t75.5 -110.5t111.5 -74.5t135.5 -27t135.5 27t111 74.5
t75 110.5t27.5 135t-27.5 135t-75 110.5t-111 74.5t-135.5 27t-135.5 -27t-111.5 -74.5t-75.5 -110.5t-27.5 -135zM325 632h186q40 0 73 -9t57 -26.5t37 -43.5t13 -60q0 -47 -29 -76.5t-80 -42.5l107 -199l47 -13v-19h-136l-113 222h-37v-190l58 -13v-19h-183v19l39 13v425
l-39 12v20zM450 399h22q41 0 64 9t37 26q14 14 19.5 30t5.5 35q0 35 -15 58.5t-43 33.5q-11 4 -24 6t-33 2h-33v-200z" />
    <glyph glyph-name="macron" unicode="&#xaf;" horiz-adv-x="335" 
d="M10 709l28 71h287l-29 -71h-286z" />
    <glyph glyph-name="degree" unicode="&#xb0;" horiz-adv-x="355" 
d="M345 587q-26 0 -48 9.5t-38 25.5t-25.5 38t-9.5 48q0 25 9.5 47.5t25.5 39t38 26t48 9.5q25 0 47 -9.5t38.5 -26t26 -39t9.5 -47.5q0 -26 -9.5 -48t-25.5 -38t-38.5 -25.5t-47.5 -9.5zM265 708q0 -35 22.5 -57.5t57.5 -22.5q36 0 58 22.5t22 57.5q0 36 -22 59t-58 23
q-35 0 -57.5 -23t-22.5 -59z" />
    <glyph glyph-name="plusminus" unicode="&#xb1;" horiz-adv-x="643" 
d="M295 422h-180v49h180v180h51v-180h179v-49h-179v-181h-51v181zM115 106v49h410v-49h-410z" />
    <glyph glyph-name="twosuperior" unicode="&#xb2;" horiz-adv-x="406" 
d="M424 502q14 14 22.5 27t16.5 28l23 -8l-54 -133h-288q14 52 41.5 95t60.5 79.5t67.5 68t63 60.5t47 56.5t18.5 57.5q0 23 -12 36t-38 13q-35 0 -72.5 -25t-66.5 -68l-27 23q38 51 89 82.5t115 31.5q53 0 82 -23t29 -66q0 -34 -17 -61.5t-45 -53t-62.5 -49.5t-69.5 -50
t-67 -55.5t-54 -65.5h198z" />
    <glyph glyph-name="threesuperior" unicode="&#xb3;" horiz-adv-x="396" 
d="M255 681q39 12 71.5 29.5t55.5 38t36 43.5t13 47q0 20 -10.5 32t-32.5 12q-30 0 -63 -23.5t-64 -68.5l-23 19q38 58 84 87t94 29q50 0 78 -20.5t28 -57.5q0 -38 -34 -77.5t-100 -67.5q38 -7 63.5 -33.5t25.5 -66.5q0 -39 -19 -74t-51.5 -61.5t-75 -42.5t-89.5 -16
q-49 0 -79.5 20t-30.5 49q0 18 9.5 27.5t22.5 9.5q15 0 23 -11t16.5 -23.5t21.5 -23.5t39 -11q24 0 45 10.5t36.5 28.5t24 43t8.5 54q0 77 -55 77q-13 0 -29 -3.5t-27 -9.5z" />
    <glyph glyph-name="acute" unicode="&#xb4;" horiz-adv-x="248" 
d="M10 642l116 171q29 44 63 44q21 0 35 -12t14 -30q0 -15 -11.5 -30t-38.5 -35l-162 -119z" />
    <glyph glyph-name="mu" unicode="&#xb5;" horiz-adv-x="668" 
d="M24 -100q-2 -69 -20.5 -105.5t-52.5 -36.5q-22 0 -34 15.5t-12 42.5q0 16 6 39.5t18.5 55.5t33 74t49.5 97q27 52 46.5 88t32 61.5t20.5 41.5t13 27l100 230h113l-188 -427q-13 -31 -13 -48q0 -30 31 -30q24 0 54 23t63.5 64t68.5 98t67 126l91 194h99l-194 -446
q-11 -25 -11 -37t14 -12q17 0 46 23t60 62l20 -16q-41 -52 -86 -83t-80 -31q-26 0 -41.5 16.5t-15.5 42.5q0 37 31 99l-5 2q-60 -81 -110 -120.5t-97 -39.5q-70 0 -70 84q0 16 3 37h-4q-12 -27 -20 -51.5t-13.5 -49t-8.5 -51.5t-4 -59z" />
    <glyph glyph-name="paragraph" unicode="&#xb6;" horiz-adv-x="565" 
d="M405 336h-85q-79 0 -124.5 44.5t-45.5 122.5q0 55 25.5 104t69.5 85t103 57t127 21h191l-9 -25l-74 -15l-224 -654q-20 -57 -38.5 -94t-40 -59.5t-47.5 -31.5t-61 -9q-33 0 -61.5 7t-49.5 20t-32.5 30.5t-11.5 37.5q0 22 12 34t32 12q18 0 28 -11t18 -37q9 -33 25 -46
t46 -13q23 0 41.5 7.5t34 25.5t30 48.5t30.5 76.5z" />
    <glyph glyph-name="periodcentered" unicode="&#xb7;" horiz-adv-x="298" 
d="M158 384q30 0 52.5 -18.5t22.5 -46.5q0 -16 -7.5 -30.5t-20 -26t-28.5 -18.5t-32 -7q-34 0 -53.5 18.5t-19.5 48.5q0 16 7 31t19 25.5t27.5 17t32.5 6.5z" />
    <glyph glyph-name="cedilla" unicode="&#xb8;" horiz-adv-x="230" 
d="M-10 -210q22 -16 52 -16q38 0 63.5 19.5t25.5 50.5q0 34 -42 34q-30 0 -48 -12l-8 13l109 138h40l-57 -75q42 0 65 -18.5t23 -51.5q0 -26 -14 -49t-37.5 -41t-54 -28.5t-64.5 -10.5q-52 0 -70 24z" />
    <glyph glyph-name="onesuperior" unicode="&#xb9;" horiz-adv-x="355" 
d="M140 439l78 16l144 373l-3 3l-89 -13l-7 24q22 6 48.5 16t51.5 21.5t46.5 24t35.5 23.5h47l-182 -475l83 -13l-10 -23h-252z" />
    <glyph glyph-name="ordmasculine" unicode="&#xba;" horiz-adv-x="422" 
d="M267 422q-48 0 -76 28.5t-28 78.5q0 44 22 89t56.5 81t78 58.5t86.5 22.5q48 0 76 -28.5t28 -78.5q0 -44 -22 -89t-56.5 -81t-78 -58.5t-86.5 -22.5zM411 747q-26 0 -57.5 -25t-58.5 -62.5t-45 -80.5t-18 -79q0 -45 30 -45q16 0 36 12t40 32.5t38.5 46.5t33 54t23.5 55
t9 50q0 42 -31 42z" />
    <glyph glyph-name="guillemotright" unicode="&#xbb;" horiz-adv-x="476" 
d="M325 436l74 -186l-5 -12l-222 -185l-16 15l149 187v170zM149 436l74 -186l-5 -12l-222 -185l-16 15l149 187v170z" />
    <glyph glyph-name="onequarter" unicode="&#xbc;" horiz-adv-x="878" 
d="M176 0l549 770h70l-551 -770h-68zM95 342l70 14l129 335l-3 3l-80 -12l-6 21q20 6 44 15t46.5 19.5t41.5 21.5t31 21h43l-163 -427l74 -11l-9 -21h-226zM630 120h-167l14 41l271 298h78l-99 -281h60l-20 -58h-61l-37 -120h-82zM651 178l70 199h-4l-179 -199h113z" />
    <glyph glyph-name="onehalf" unicode="&#xbd;" horiz-adv-x="925" 
d="M156 0l549 770h70l-551 -770h-68zM96 342l70 14l129 335l-3 3l-80 -12l-6 21q20 6 44 15t46.5 19.5t41.5 21.5t31 21h43l-163 -427l74 -11l-9 -21h-226zM750 77q12 13 20 24.5t15 25.5l21 -7l-49 -120h-259q12 47 36.5 85.5t54.5 71.5t61.5 61t57 54t42 51t16.5 52
q0 20 -11 32t-34 12q-31 0 -65 -22.5t-60 -60.5l-24 20q34 47 80 75t103 28q48 0 74 -21t26 -59q0 -45 -33 -80t-79 -68t-93.5 -69t-77.5 -85h178z" />
    <glyph glyph-name="threequarters" unicode="&#xbe;" horiz-adv-x="904" 
d="M205 0l549 770h70l-551 -770h-68zM658 120h-167l14 41l271 298h78l-99 -281h60l-20 -58h-61l-37 -120h-82zM679 178l70 199h-4l-179 -199h113zM215 560q72 23 115.5 60.5t43.5 81.5q0 17 -9 28t-29 11q-27 0 -57 -21t-58 -61l-21 17q34 52 75.5 78t85.5 26q45 0 70 -18.5
t25 -51.5q0 -34 -30.5 -69.5t-89.5 -60.5q35 -6 57.5 -30t22.5 -61q0 -35 -17 -66.5t-46.5 -55.5t-68 -38t-80.5 -14q-45 0 -72 18t-27 44q0 16 8.5 24.5t20.5 8.5q14 0 21 -9.5t14.5 -21.5t19 -21.5t34.5 -9.5q22 0 41.5 9t33 25.5t21.5 39t8 48.5q0 70 -51 70
q-11 0 -25 -3t-25 -8z" />
    <glyph glyph-name="questiondown" unicode="&#xbf;" horiz-adv-x="465" 
d="M257 540q26 0 44.5 -16.5t18.5 -41.5q0 -27 -22.5 -47t-52.5 -20q-26 0 -42.5 16t-16.5 41q0 28 21 48t50 20zM110 336q69 -2 104 -31.5t35 -81.5q0 -37 -20 -68t-50 -58.5t-65 -53.5t-65 -54t-50 -60t-20 -70q0 -36 21 -59t54 -23q24 0 37.5 13.5t25 30t25.5 30.5t38 14
q20 0 32 -12t12 -32q0 -34 -40.5 -55.5t-105.5 -21.5q-83 0 -129.5 37.5t-46.5 105.5q0 46 19.5 82t49 65t64 53.5t64 48.5t49 49t19.5 56q0 29 -17 47t-45 20z" />
    <glyph glyph-name="Agrave" unicode="&#xc0;" horiz-adv-x="748" 
d="M640 793l-91 -701q-1 -5 -1 -9v-8q1 -26 19.5 -35t65.5 -12l-14 -28h-308l14 28q28 0 49 3.5t35 12t22 23.5t11 38l25 181h-237l-129 -149q-23 -27 -31.5 -40.5t-8.5 -27.5q1 -16 20.5 -25.5t64.5 -15.5l-13 -28h-278l14 28q36 5 61 12.5t45.5 20.5t39.5 31.5t43 46.5
l463 538l11 93zM514 614l-252 -291h210zM662 826l-161 47q-37 11 -37 49q0 22 13.5 35t36.5 13q17 0 31.5 -8.5t31.5 -23.5l104 -91z" />
    <glyph glyph-name="Aacute" unicode="&#xc1;" horiz-adv-x="748" 
d="M640 793l-91 -701q-1 -5 -1 -9v-8q1 -26 19.5 -35t65.5 -12l-14 -28h-308l14 28q28 0 49 3.5t35 12t22 23.5t11 38l25 181h-237l-129 -149q-23 -27 -31.5 -40.5t-8.5 -27.5q1 -16 20.5 -25.5t64.5 -15.5l-13 -28h-278l14 28q36 5 61 12.5t45.5 20.5t39.5 31.5t43 46.5
l463 538l11 93zM514 614l-252 -291h210zM491 847l144 107q22 16 44 16q17 0 30 -12t13 -31q0 -17 -14.5 -31.5t-53.5 -25.5l-152 -44z" />
    <glyph glyph-name="Acircumflex" unicode="&#xc2;" horiz-adv-x="748" 
d="M640 793l-91 -701q-1 -5 -1 -9v-8q1 -26 19.5 -35t65.5 -12l-14 -28h-308l14 28q28 0 49 3.5t35 12t22 23.5t11 38l25 181h-237l-129 -149q-23 -27 -31.5 -40.5t-8.5 -27.5q1 -16 20.5 -25.5t64.5 -15.5l-13 -28h-278l14 28q36 5 61 12.5t45.5 20.5t39.5 31.5t43 46.5
l463 538l11 93zM514 614l-252 -291h210zM652 970q17 0 26.5 -6.5t17.5 -20.5l54 -96l-26 -17l-91 68l-165 -68l-12 17l132 96q18 13 31.5 20t32.5 7z" />
    <glyph glyph-name="Atilde" unicode="&#xc3;" horiz-adv-x="748" 
d="M640 793l-91 -701q-1 -5 -1 -9v-8q1 -26 19.5 -35t65.5 -12l-14 -28h-308l14 28q28 0 49 3.5t35 12t22 23.5t11 38l25 181h-237l-129 -149q-23 -27 -31.5 -40.5t-8.5 -27.5q1 -16 20.5 -25.5t64.5 -15.5l-13 -28h-278l14 28q36 5 61 12.5t45.5 20.5t39.5 31.5t43 46.5
l463 538l11 93zM514 614l-252 -291h210zM436 853q14 51 48 82.5t71 31.5q17 0 34.5 -5.5t35 -12t34.5 -12t34 -5.5q42 0 62 38h24q-17 -52 -51.5 -85t-71.5 -33q-18 0 -34.5 6t-33.5 13.5t-33.5 13.5t-34.5 6q-46 0 -63 -38h-21z" />
    <glyph glyph-name="Adieresis" unicode="&#xc4;" horiz-adv-x="748" 
d="M640 793l-91 -701q-1 -5 -1 -9v-8q1 -26 19.5 -35t65.5 -12l-14 -28h-308l14 28q28 0 49 3.5t35 12t22 23.5t11 38l25 181h-237l-129 -149q-23 -27 -31.5 -40.5t-8.5 -27.5q1 -16 20.5 -25.5t64.5 -15.5l-13 -28h-278l14 28q36 5 61 12.5t45.5 20.5t39.5 31.5t43 46.5
l463 538l11 93zM514 614l-252 -291h210zM531 970q23 0 40 -14t17 -35q0 -12 -5.5 -23t-15 -20t-21.5 -14t-25 -5q-26 0 -40.5 14t-14.5 37q0 24 19.5 42t45.5 18zM706 970q23 0 40 -14t17 -35q0 -12 -5.5 -23t-15 -20t-21.5 -14t-25 -5q-26 0 -40.5 14t-14.5 37
q0 24 19.5 42t45.5 18z" />
    <glyph glyph-name="Aring" unicode="&#xc5;" horiz-adv-x="748" 
d="M640 793l-91 -701q-1 -5 -1 -9v-8q1 -26 19.5 -35t65.5 -12l-14 -28h-308l14 28q28 0 49 3.5t35 12t22 23.5t11 38l25 181h-237l-129 -149q-23 -27 -31.5 -40.5t-8.5 -27.5q1 -16 20.5 -25.5t64.5 -15.5l-13 -28h-278l14 28q36 5 61 12.5t45.5 20.5t39.5 31.5t43 46.5
l463 538l11 93zM514 614l-252 -291h210zM634 970q30 0 51 -18.5t21 -44.5q0 -15 -7 -29t-19 -24.5t-28 -17t-33 -6.5q-29 0 -48 18t-19 45q0 31 24 54t58 23zM631 932q-16 0 -27.5 -10.5t-11.5 -24.5t9 -22.5t23 -8.5q16 0 29 11.5t13 25.5q0 12 -10.5 20.5t-24.5 8.5z" />
    <glyph glyph-name="AE" unicode="&#xc6;" horiz-adv-x="1040" 
d="M259 0l12 28l92 19l99 239h-209l-135 -149q-24 -26 -33.5 -40.5t-9.5 -27.5q0 -16 19.5 -25.5t63.5 -15.5l-13 -28h-281l14 28q36 5 61 12.5t46 20.5t41 31.5t45 46.5l531 589l-77 19l10 23h522l8 -220h-27q-9 54 -22.5 98t-35.5 82h-226l-124 -304h168q49 57 84 114h29
l-113 -274h-29q8 30 11.5 60t5.5 60h-174l-142 -346h323q41 48 74.5 95t62.5 95h29l-91 -230h-609zM634 702h-4l-344 -379h191z" />
    <glyph glyph-name="Ccedilla" unicode="&#xc7;" horiz-adv-x="742" 
d="M155 -210q22 -16 52 -16q38 0 63.5 19.5t25.5 50.5q0 34 -42 34q-30 0 -48 -12l-8 13l87 111q-222 6 -222 223q0 71 22.5 140.5t62 132.5t93.5 116.5t117 93t133 62t141 22.5q48 0 89 -11.5t68 -31.5l36 33h22l-97 -230h-29q15 55 15 94q0 54 -27.5 78t-86.5 24
q-56 0 -111.5 -20.5t-105 -56.5t-92 -85t-74 -106.5t-49 -121t-17.5 -127.5q0 -182 152 -182q48 0 94 17.5t87 50.5t75 80.5t60 107.5h29l-111 -293h-27l8 77h-4q-53 -41 -102.5 -61.5t-106.5 -24.5l-37 -49q42 0 65 -18.5t23 -51.5q0 -26 -14 -49t-37.5 -41t-54 -28.5
t-64.5 -10.5q-52 0 -70 24z" />
    <glyph glyph-name="Egrave" unicode="&#xc8;" horiz-adv-x="713" 
d="M-68 0l10 23l92 19l284 686l-78 19l10 23h480l8 -220h-27q-9 54 -22.5 98t-35.5 82h-226l-124 -304h168q49 57 84 114h29l-113 -274h-29q8 30 11.5 60t5.5 60h-174l-142 -346h323q41 48 74.5 95t62.5 95h29l-91 -230h-609zM599 826l-161 47q-37 11 -37 49q0 22 13.5 35
t36.5 13q17 0 31.5 -8.5t31.5 -23.5l104 -91z" />
    <glyph glyph-name="Eacute" unicode="&#xc9;" horiz-adv-x="713" 
d="M-68 0l10 23l92 19l284 686l-78 19l10 23h480l8 -220h-27q-9 54 -22.5 98t-35.5 82h-226l-124 -304h168q49 57 84 114h29l-113 -274h-29q8 30 11.5 60t5.5 60h-174l-142 -346h323q41 48 74.5 95t62.5 95h29l-91 -230h-609zM454 847l144 107q22 16 44 16q17 0 30 -12
t13 -31q0 -17 -14.5 -31.5t-53.5 -25.5l-152 -44z" />
    <glyph glyph-name="Ecircumflex" unicode="&#xca;" horiz-adv-x="713" 
d="M-68 0l10 23l92 19l284 686l-78 19l10 23h480l8 -220h-27q-9 54 -22.5 98t-35.5 82h-226l-124 -304h168q49 57 84 114h29l-113 -274h-29q8 30 11.5 60t5.5 60h-174l-142 -346h323q41 48 74.5 95t62.5 95h29l-91 -230h-609zM600 970q17 0 26.5 -6.5t17.5 -20.5l54 -96
l-26 -17l-91 68l-165 -68l-12 17l132 96q18 13 31.5 20t32.5 7z" />
    <glyph glyph-name="Edieresis" unicode="&#xcb;" horiz-adv-x="713" 
d="M-68 0l10 23l92 19l284 686l-78 19l10 23h480l8 -220h-27q-9 54 -22.5 98t-35.5 82h-226l-124 -304h168q49 57 84 114h29l-113 -274h-29q8 30 11.5 60t5.5 60h-174l-142 -346h323q41 48 74.5 95t62.5 95h29l-91 -230h-609zM490 970q23 0 40 -14t17 -35q0 -12 -5.5 -23
t-15 -20t-21.5 -14t-25 -5q-26 0 -40.5 14t-14.5 37q0 24 19.5 42t45.5 18zM665 970q23 0 40 -14t17 -35q0 -12 -5.5 -23t-15 -20t-21.5 -14t-25 -5q-26 0 -40.5 14t-14.5 37q0 24 19.5 42t45.5 18z" />
    <glyph glyph-name="Igrave" unicode="&#xcc;" horiz-adv-x="392" 
d="M319 728l-83 19l10 23h290l-10 -23l-96 -19l-285 -686l82 -19l-10 -23h-289l10 23l97 19zM491 826l-161 47q-37 11 -37 49q0 22 13.5 35t36.5 13q17 0 31.5 -8.5t31.5 -23.5l104 -91z" />
    <glyph glyph-name="Iacute" unicode="&#xcd;" horiz-adv-x="392" 
d="M319 728l-83 19l10 23h290l-10 -23l-96 -19l-285 -686l82 -19l-10 -23h-289l10 23l97 19zM336 847l144 107q22 16 44 16q17 0 30 -12t13 -31q0 -17 -14.5 -31.5t-53.5 -25.5l-152 -44z" />
    <glyph glyph-name="Icircumflex" unicode="&#xce;" horiz-adv-x="392" 
d="M319 728l-83 19l10 23h290l-10 -23l-96 -19l-285 -686l82 -19l-10 -23h-289l10 23l97 19zM473 970q17 0 26.5 -6.5t17.5 -20.5l54 -96l-26 -17l-91 68l-165 -68l-12 17l132 96q18 13 31.5 20t32.5 7z" />
    <glyph glyph-name="Idieresis" unicode="&#xcf;" horiz-adv-x="392" 
d="M319 728l-83 19l10 23h290l-10 -23l-96 -19l-285 -686l82 -19l-10 -23h-289l10 23l97 19zM359 970q23 0 40 -14t17 -35q0 -12 -5.5 -23t-15 -20t-21.5 -14t-25 -5q-26 0 -40.5 14t-14.5 37q0 24 19.5 42t45.5 18zM534 970q23 0 40 -14t17 -35q0 -12 -5.5 -23t-15 -20
t-21.5 -14t-25 -5q-26 0 -40.5 14t-14.5 37q0 24 19.5 42t45.5 18z" />
    <glyph glyph-name="Eth" unicode="&#xd0;" horiz-adv-x="808" 
d="M-55 23l92 19l138 334h-97l18 44h97l128 308l-78 19l10 23h206q74 0 134 -21t102.5 -60t65.5 -94.5t23 -124.5q0 -67 -20 -131t-56 -119.5t-87 -100t-113 -72.5q-104 -47 -263 -47h-310zM239 42q87 0 166 30.5t139 88.5t95 142.5t35 191.5q0 112 -56.5 173.5t-159.5 61.5
h-27l-129 -310h151l-19 -44h-150l-102 -247q-13 -30 -13 -49q0 -21 16 -29.5t54 -8.5z" />
    <glyph glyph-name="Ntilde" unicode="&#xd1;" horiz-adv-x="815" 
d="M353 690h-4l-269 -648l82 -19l-10 -23h-227l10 23l97 19l284 686l-83 19l10 23h212l124 -599h4l231 557l-83 19l10 23h228l-10 -23l-96 -19l-307 -738h-58zM486 853q14 51 48 82.5t71 31.5q17 0 34.5 -5.5t35 -12t34.5 -12t34 -5.5q42 0 62 38h24q-17 -52 -51.5 -85
t-71.5 -33q-18 0 -34.5 6t-33.5 13.5t-33.5 13.5t-34.5 6q-46 0 -63 -38h-21z" />
    <glyph glyph-name="Ograve" unicode="&#xd2;" horiz-adv-x="804" 
d="M304 -10q-109 0 -169 64t-60 182q0 68 19.5 134.5t54 127t81.5 112.5t102 89.5t116 59t123 21.5q110 0 170 -65t60 -184q0 -68 -19.5 -134.5t-54 -126.5t-81.5 -111.5t-102 -89t-116.5 -58.5t-123.5 -21zM319 37q46 0 91 21t86.5 58t77 87.5t61 109t40.5 123t15 129.5
q0 171 -125 171q-46 0 -91.5 -21t-87 -58t-77 -87.5t-62 -109t-41.5 -122.5t-15 -128q0 -173 128 -173zM710 826l-161 47q-37 11 -37 49q0 22 13.5 35t36.5 13q17 0 31.5 -8.5t31.5 -23.5l104 -91z" />
    <glyph glyph-name="Oacute" unicode="&#xd3;" horiz-adv-x="804" 
d="M304 -10q-109 0 -169 64t-60 182q0 68 19.5 134.5t54 127t81.5 112.5t102 89.5t116 59t123 21.5q110 0 170 -65t60 -184q0 -68 -19.5 -134.5t-54 -126.5t-81.5 -111.5t-102 -89t-116.5 -58.5t-123.5 -21zM319 37q46 0 91 21t86.5 58t77 87.5t61 109t40.5 123t15 129.5
q0 171 -125 171q-46 0 -91.5 -21t-87 -58t-77 -87.5t-62 -109t-41.5 -122.5t-15 -128q0 -173 128 -173zM555 847l144 107q22 16 44 16q17 0 30 -12t13 -31q0 -17 -14.5 -31.5t-53.5 -25.5l-152 -44z" />
    <glyph glyph-name="Ocircumflex" unicode="&#xd4;" horiz-adv-x="804" 
d="M304 -10q-109 0 -169 64t-60 182q0 68 19.5 134.5t54 127t81.5 112.5t102 89.5t116 59t123 21.5q110 0 170 -65t60 -184q0 -68 -19.5 -134.5t-54 -126.5t-81.5 -111.5t-102 -89t-116.5 -58.5t-123.5 -21zM319 37q46 0 91 21t86.5 58t77 87.5t61 109t40.5 123t15 129.5
q0 171 -125 171q-46 0 -91.5 -21t-87 -58t-77 -87.5t-62 -109t-41.5 -122.5t-15 -128q0 -173 128 -173zM671 970q17 0 26.5 -6.5t17.5 -20.5l54 -96l-26 -17l-91 68l-165 -68l-12 17l132 96q18 13 31.5 20t32.5 7z" />
    <glyph glyph-name="Otilde" unicode="&#xd5;" horiz-adv-x="804" 
d="M304 -10q-109 0 -169 64t-60 182q0 68 19.5 134.5t54 127t81.5 112.5t102 89.5t116 59t123 21.5q110 0 170 -65t60 -184q0 -68 -19.5 -134.5t-54 -126.5t-81.5 -111.5t-102 -89t-116.5 -58.5t-123.5 -21zM319 37q46 0 91 21t86.5 58t77 87.5t61 109t40.5 123t15 129.5
q0 171 -125 171q-46 0 -91.5 -21t-87 -58t-77 -87.5t-62 -109t-41.5 -122.5t-15 -128q0 -173 128 -173zM475 853q14 51 48 82.5t71 31.5q17 0 34.5 -5.5t35 -12t34.5 -12t34 -5.5q42 0 62 38h24q-17 -52 -51.5 -85t-71.5 -33q-18 0 -34.5 6t-33.5 13.5t-33.5 13.5t-34.5 6
q-46 0 -63 -38h-21z" />
    <glyph glyph-name="Odieresis" unicode="&#xd6;" horiz-adv-x="804" 
d="M304 -10q-109 0 -169 64t-60 182q0 68 19.5 134.5t54 127t81.5 112.5t102 89.5t116 59t123 21.5q110 0 170 -65t60 -184q0 -68 -19.5 -134.5t-54 -126.5t-81.5 -111.5t-102 -89t-116.5 -58.5t-123.5 -21zM319 37q46 0 91 21t86.5 58t77 87.5t61 109t40.5 123t15 129.5
q0 171 -125 171q-46 0 -91.5 -21t-87 -58t-77 -87.5t-62 -109t-41.5 -122.5t-15 -128q0 -173 128 -173zM574 970q23 0 40 -14t17 -35q0 -12 -5.5 -23t-15 -20t-21.5 -14t-25 -5q-26 0 -40.5 14t-14.5 37q0 24 19.5 42t45.5 18zM749 970q23 0 40 -14t17 -35q0 -12 -5.5 -23
t-15 -20t-21.5 -14t-25 -5q-26 0 -40.5 14t-14.5 37q0 24 19.5 42t45.5 18z" />
    <glyph glyph-name="multiply" unicode="&#xd7;" horiz-adv-x="553" 
d="M251 340l-140 140l37 37l140 -140l140 140l39 -39l-140 -140l139 -139l-37 -37l-139 139l-141 -141l-39 39z" />
    <glyph glyph-name="Oslash" unicode="&#xd8;" horiz-adv-x="804" 
d="M304 -10q-103 0 -163 58l-48 -48h-61l82 82q-39 58 -39 154q0 68 19.5 134.5t54 127t81.5 112.5t102 89.5t116 59t123 21.5q110 0 172 -68l57 58h63l-95 -95q16 -29 24.5 -65t8.5 -79q0 -68 -19.5 -134.5t-54 -126.5t-81.5 -111.5t-102 -89t-116.5 -58.5t-123.5 -21z
M565 736q-46 0 -91.5 -21t-87 -58t-77 -87.5t-62 -109t-41.5 -122.5t-15 -128q0 -27 3 -48l486 487q-26 87 -115 87zM319 37q46 0 91 21t86.5 58t77 87.5t61 109t40.5 123t15 129.5q0 8 -0.5 15.5t-0.5 15.5l-484 -484q26 -75 114 -75z" />
    <glyph glyph-name="Ugrave" unicode="&#xd9;" horiz-adv-x="778" 
d="M310 728l-82 19l9 23h285l-10 -23l-96 -20l-191 -458q-14 -32 -21.5 -65.5t-7.5 -59.5q0 -107 144 -107q40 0 73.5 11t63 36.5t56.5 68.5t54 106l203 469l-84 19l11 23h221l-9 -23l-95 -19l-211 -498q-31 -73 -66.5 -119.5t-75 -73.5t-82.5 -37t-89 -10q-106 0 -161 41
t-55 119q0 69 43 170zM673 826l-161 47q-37 11 -37 49q0 22 13.5 35t36.5 13q17 0 31.5 -8.5t31.5 -23.5l104 -91z" />
    <glyph glyph-name="Uacute" unicode="&#xda;" horiz-adv-x="778" 
d="M310 728l-82 19l9 23h285l-10 -23l-96 -20l-191 -458q-14 -32 -21.5 -65.5t-7.5 -59.5q0 -107 144 -107q40 0 73.5 11t63 36.5t56.5 68.5t54 106l203 469l-84 19l11 23h221l-9 -23l-95 -19l-211 -498q-31 -73 -66.5 -119.5t-75 -73.5t-82.5 -37t-89 -10q-106 0 -161 41
t-55 119q0 69 43 170zM568 847l144 107q22 16 44 16q17 0 30 -12t13 -31q0 -17 -14.5 -31.5t-53.5 -25.5l-152 -44z" />
    <glyph glyph-name="Ucircumflex" unicode="&#xdb;" horiz-adv-x="778" 
d="M310 728l-82 19l9 23h285l-10 -23l-96 -20l-191 -458q-14 -32 -21.5 -65.5t-7.5 -59.5q0 -107 144 -107q40 0 73.5 11t63 36.5t56.5 68.5t54 106l203 469l-84 19l11 23h221l-9 -23l-95 -19l-211 -498q-31 -73 -66.5 -119.5t-75 -73.5t-82.5 -37t-89 -10q-106 0 -161 41
t-55 119q0 69 43 170zM704 970q17 0 26.5 -6.5t17.5 -20.5l54 -96l-26 -17l-91 68l-165 -68l-12 17l132 96q18 13 31.5 20t32.5 7z" />
    <glyph glyph-name="Udieresis" unicode="&#xdc;" horiz-adv-x="778" 
d="M310 728l-82 19l9 23h285l-10 -23l-96 -20l-191 -458q-14 -32 -21.5 -65.5t-7.5 -59.5q0 -107 144 -107q40 0 73.5 11t63 36.5t56.5 68.5t54 106l203 469l-84 19l11 23h221l-9 -23l-95 -19l-211 -498q-31 -73 -66.5 -119.5t-75 -73.5t-82.5 -37t-89 -10q-106 0 -161 41
t-55 119q0 69 43 170zM579 970q23 0 40 -14t17 -35q0 -12 -5.5 -23t-15 -20t-21.5 -14t-25 -5q-26 0 -40.5 14t-14.5 37q0 24 19.5 42t45.5 18zM754 970q23 0 40 -14t17 -35q0 -12 -5.5 -23t-15 -20t-21.5 -14t-25 -5q-26 0 -40.5 14t-14.5 37q0 24 19.5 42t45.5 18z" />
    <glyph glyph-name="Yacute" unicode="&#xdd;" horiz-adv-x="716" 
d="M88 0l10 23l97 19l124 298l-49 324q-4 25 -8.5 41t-14 25.5t-25.5 13t-42 3.5l10 23h282l-10 -23q-42 -2 -60 -15.5t-18 -54.5q0 -16 3 -37l30 -246l269 270q33 33 33 52q0 31 -83 31l9 23h276l-13 -23q-31 -2 -54 -7t-45 -17t-45.5 -32t-55.5 -53l-269 -275l-135 -321
l98 -19l-10 -23h-304zM532 847l144 107q22 16 44 16q17 0 30 -12t13 -31q0 -17 -14.5 -31.5t-53.5 -25.5l-152 -44z" />
    <glyph glyph-name="Thorn" unicode="&#xde;" horiz-adv-x="658" 
d="M326 728l-119 19l10 23h316l-9 -23l-88 -19l-56 -132h44q109 0 169.5 -46t60.5 -130q0 -57 -25.5 -103.5t-72.5 -80t-113 -51.5t-146 -18h-98l-53 -125l119 -19l-10 -23h-316l9 23l88 19zM311 211q49 0 93 17.5t76 48t51 71t19 86.5q0 59 -32 90t-94 31h-61l-145 -344h93
z" />
    <glyph glyph-name="germandbls" unicode="&#xdf;" horiz-adv-x="669" 
d="M346 394q0 36 14 63t35.5 48.5t46 41.5t46 43.5t35.5 53.5t14 71q0 88 -68 88q-49 0 -89 -50.5t-81 -162.5l-142 -387q-42 -113 -79 -189.5t-74.5 -123.5t-78.5 -67t-90 -20q-57 0 -90.5 22t-33.5 60q0 42 44 42q18 0 28.5 -6.5t16.5 -16.5t10 -21.5t9.5 -21.5
t14.5 -16.5t25 -6.5q19 0 36.5 13t37 47t43.5 93t57 152l164 457q38 109 110.5 169.5t163.5 60.5q69 0 111 -32.5t42 -86.5q0 -32 -14.5 -55.5t-35.5 -43t-46.5 -37.5t-46.5 -39t-35.5 -46t-14.5 -59q0 -44 22 -80t49 -70.5t49 -69t22 -74.5q0 -31 -15 -57.5t-41 -46.5
t-61 -31.5t-75 -11.5q-33 0 -63 8t-52.5 21t-36 30.5t-13.5 37.5q0 19 12.5 30t32.5 11q26 0 35 -16.5t16 -37t20.5 -37t48.5 -16.5q42 0 68.5 25t26.5 63q0 35 -20.5 67t-44.5 65.5t-44.5 70.5t-20.5 82z" />
    <glyph glyph-name="agrave" unicode="&#xe0;" horiz-adv-x="604" 
d="M371 540q28 0 46.5 -10.5t36.5 -36.5l16 37h102l-172 -421q-6 -19 -8 -27t-2 -14q0 -19 16 -19q15 0 42 21t69 68l20 -14q-53 -66 -100.5 -100t-89.5 -34q-28 0 -43.5 14.5t-15.5 43.5q0 22 7 45.5t27 55.5l-6 3q-59 -86 -107 -124t-99 -38t-80.5 34.5t-29.5 97.5
q0 45 16 93.5t43.5 95t64 88t78 73t85 50t84.5 18.5zM129 25q25 0 60.5 27.5t73.5 75t75.5 110.5t67.5 134q15 35 18.5 53.5t3.5 32.5q0 23 -13 36.5t-33 13.5q-25 0 -56 -21.5t-63.5 -56.5t-63 -80t-54.5 -92.5t-38.5 -93t-14.5 -81.5q0 -30 8.5 -44t28.5 -14zM440 636
l-45 119q-8 20 -10.5 31.5t-2.5 24.5q0 20 16 33t36 13q47 0 47 -42q0 -10 -0.5 -14.5t-0.5 -8.5l-12 -150z" />
    <glyph glyph-name="aacute" unicode="&#xe1;" horiz-adv-x="604" 
d="M371 540q28 0 46.5 -10.5t36.5 -36.5l16 37h102l-172 -421q-6 -19 -8 -27t-2 -14q0 -19 16 -19q15 0 42 21t69 68l20 -14q-53 -66 -100.5 -100t-89.5 -34q-28 0 -43.5 14.5t-15.5 43.5q0 22 7 45.5t27 55.5l-6 3q-59 -86 -107 -124t-99 -38t-80.5 34.5t-29.5 97.5
q0 45 16 93.5t43.5 95t64 88t78 73t85 50t84.5 18.5zM129 25q25 0 60.5 27.5t73.5 75t75.5 110.5t67.5 134q15 35 18.5 53.5t3.5 32.5q0 23 -13 36.5t-33 13.5q-25 0 -56 -21.5t-63.5 -56.5t-63 -80t-54.5 -92.5t-38.5 -93t-14.5 -81.5q0 -30 8.5 -44t28.5 -14zM407 642
l116 171q29 44 63 44q21 0 35 -12t14 -30q0 -15 -11.5 -30t-38.5 -35l-162 -119z" />
    <glyph glyph-name="acircumflex" unicode="&#xe2;" horiz-adv-x="604" 
d="M371 540q28 0 46.5 -10.5t36.5 -36.5l16 37h102l-172 -421q-6 -19 -8 -27t-2 -14q0 -19 16 -19q15 0 42 21t69 68l20 -14q-53 -66 -100.5 -100t-89.5 -34q-28 0 -43.5 14.5t-15.5 43.5q0 22 7 45.5t27 55.5l-6 3q-59 -86 -107 -124t-99 -38t-80.5 34.5t-29.5 97.5
q0 45 16 93.5t43.5 95t64 88t78 73t85 50t84.5 18.5zM129 25q25 0 60.5 27.5t73.5 75t75.5 110.5t67.5 134q15 35 18.5 53.5t3.5 32.5q0 23 -13 36.5t-33 13.5q-25 0 -56 -21.5t-63.5 -56.5t-63 -80t-54.5 -92.5t-38.5 -93t-14.5 -81.5q0 -30 8.5 -44t28.5 -14zM516 857
q22 0 30 -7.5t10 -21.5l16 -188l-23 -12l-70 141l-183 -141l-19 12l171 188q26 29 68 29z" />
    <glyph glyph-name="atilde" unicode="&#xe3;" horiz-adv-x="604" 
d="M371 540q28 0 46.5 -10.5t36.5 -36.5l16 37h102l-172 -421q-6 -19 -8 -27t-2 -14q0 -19 16 -19q15 0 42 21t69 68l20 -14q-53 -66 -100.5 -100t-89.5 -34q-28 0 -43.5 14.5t-15.5 43.5q0 22 7 45.5t27 55.5l-6 3q-59 -86 -107 -124t-99 -38t-80.5 34.5t-29.5 97.5
q0 45 16 93.5t43.5 95t64 88t78 73t85 50t84.5 18.5zM129 25q25 0 60.5 27.5t73.5 75t75.5 110.5t67.5 134q15 35 18.5 53.5t3.5 32.5q0 23 -13 36.5t-33 13.5q-25 0 -56 -21.5t-63.5 -56.5t-63 -80t-54.5 -92.5t-38.5 -93t-14.5 -81.5q0 -30 8.5 -44t28.5 -14zM288 683
q14 51 48 82.5t71 31.5q17 0 34.5 -5.5t35 -12t34.5 -12t34 -5.5q42 0 62 38h24q-17 -52 -51.5 -85t-71.5 -33q-18 0 -34.5 6t-33.5 13.5t-33.5 13.5t-34.5 6q-46 0 -63 -38h-21z" />
    <glyph glyph-name="adieresis" unicode="&#xe4;" horiz-adv-x="604" 
d="M371 540q28 0 46.5 -10.5t36.5 -36.5l16 37h102l-172 -421q-6 -19 -8 -27t-2 -14q0 -19 16 -19q15 0 42 21t69 68l20 -14q-53 -66 -100.5 -100t-89.5 -34q-28 0 -43.5 14.5t-15.5 43.5q0 22 7 45.5t27 55.5l-6 3q-59 -86 -107 -124t-99 -38t-80.5 34.5t-29.5 97.5
q0 45 16 93.5t43.5 95t64 88t78 73t85 50t84.5 18.5zM129 25q25 0 60.5 27.5t73.5 75t75.5 110.5t67.5 134q15 35 18.5 53.5t3.5 32.5q0 23 -13 36.5t-33 13.5q-25 0 -56 -21.5t-63.5 -56.5t-63 -80t-54.5 -92.5t-38.5 -93t-14.5 -81.5q0 -30 8.5 -44t28.5 -14zM385 780
q23 0 40 -14t17 -35q0 -12 -5.5 -23t-15 -20t-21.5 -14t-25 -5q-26 0 -40.5 14t-14.5 37q0 24 19.5 42t45.5 18zM560 780q23 0 40 -14t17 -35q0 -12 -5.5 -23t-15 -20t-21.5 -14t-25 -5q-26 0 -40.5 14t-14.5 37q0 24 19.5 42t45.5 18z" />
    <glyph glyph-name="aring" unicode="&#xe5;" horiz-adv-x="604" 
d="M371 540q28 0 46.5 -10.5t36.5 -36.5l16 37h102l-172 -421q-6 -19 -8 -27t-2 -14q0 -19 16 -19q15 0 42 21t69 68l20 -14q-53 -66 -100.5 -100t-89.5 -34q-28 0 -43.5 14.5t-15.5 43.5q0 22 7 45.5t27 55.5l-6 3q-59 -86 -107 -124t-99 -38t-80.5 34.5t-29.5 97.5
q0 45 16 93.5t43.5 95t64 88t78 73t85 50t84.5 18.5zM129 25q25 0 60.5 27.5t73.5 75t75.5 110.5t67.5 134q15 35 18.5 53.5t3.5 32.5q0 23 -13 36.5t-33 13.5q-25 0 -56 -21.5t-63.5 -56.5t-63 -80t-54.5 -92.5t-38.5 -93t-14.5 -81.5q0 -30 8.5 -44t28.5 -14zM482 817
q35 0 60 -21.5t25 -52.5q0 -18 -8.5 -34.5t-23 -29.5t-33 -20.5t-38.5 -7.5q-35 0 -57 21.5t-22 53.5q0 18 7.5 34.5t21 29t31 20t37.5 7.5zM479 782q-23 0 -39.5 -15.5t-16.5 -37.5q0 -19 13 -31t33 -12q23 0 41.5 16.5t18.5 36.5q0 18 -15 30.5t-35 12.5z" />
    <glyph glyph-name="ae" unicode="&#xe6;" horiz-adv-x="804" 
d="M720 540q42 0 67.5 -18.5t25.5 -50.5t-25 -62.5t-70 -57t-107.5 -48t-137.5 -34.5q-57 -107 -57 -177q0 -67 58 -67q23 0 50 10t54 27.5t53.5 42t48.5 54.5l22 -14q-62 -77 -125.5 -116t-127.5 -39q-61 0 -94 34.5t-33 100.5v14t1 10l-6 3q-59 -86 -107 -124t-99 -38
t-80.5 35t-29.5 96q0 46 16 95t44 95.5t64.5 88t77.5 72.5t84 49.5t84 18.5q28 0 46.5 -10.5t37.5 -36.5l16 37h102l-24 -58q42 33 86 50.5t85 17.5zM128 25q26 0 62.5 28.5t75 76.5t75.5 111t66 131q11 27 16.5 46t5.5 34q0 26 -12 41t-33 15q-26 0 -57 -21.5t-63.5 -56.5
t-63 -80t-54.5 -92.5t-38.5 -93.5t-14.5 -83q0 -56 35 -56zM495 302q47 9 90 28t76 43.5t52.5 52t19.5 53.5q0 30 -32 30q-21 0 -44 -11t-46.5 -30.5t-45 -47t-38.5 -59.5z" />
    <glyph glyph-name="ccedilla" unicode="&#xe7;" horiz-adv-x="498" 
d="M6 -210q22 -16 52 -16q38 0 63.5 19.5t25.5 50.5q0 34 -42 34q-30 0 -48 -12l-8 13l87 111q-126 3 -126 153q1 82 44.5 164t122.5 144q54 42 113 65.5t109 23.5q26 0 48 -7t38.5 -19.5t25.5 -29t9 -35.5q0 -18 -12 -29t-32 -11q-39 0 -46 48q-5 28 -14.5 40t-28.5 12
q-30 0 -62.5 -19.5t-63 -52.5t-58.5 -75.5t-48.5 -88t-33 -91t-12.5 -83.5t13.5 -56t45.5 -18q85 0 216 134l22 -13q-113 -132 -226 -152l-39 -52q42 0 65 -18.5t23 -51.5q0 -26 -14 -49t-37.5 -41t-54 -28.5t-64.5 -10.5q-52 0 -70 24z" />
    <glyph glyph-name="egrave" unicode="&#xe8;" horiz-adv-x="485" 
d="M398 540q45 0 70.5 -18.5t25.5 -50.5t-25 -62.5t-70 -57t-107.5 -48t-137.5 -34.5q-57 -107 -57 -177q0 -67 58 -67q23 0 50 10t54 27.5t53.5 42t48.5 54.5l22 -14q-123 -155 -253 -155q-62 0 -96 35t-34 100q0 46 17 94.5t46.5 94.5t69 87.5t83.5 72t91 48.5t91 18z
M176 302q46 9 89 28t76 43.5t53 52t20 53.5q0 30 -32 30q-21 0 -44.5 -11t-46.5 -31t-44.5 -47t-38.5 -59zM432 636l-45 119q-8 20 -10.5 31.5t-2.5 24.5q0 20 16 33t36 13q47 0 47 -42q0 -10 -0.5 -14.5t-0.5 -8.5l-12 -150z" />
    <glyph glyph-name="eacute" unicode="&#xe9;" horiz-adv-x="485" 
d="M398 540q45 0 70.5 -18.5t25.5 -50.5t-25 -62.5t-70 -57t-107.5 -48t-137.5 -34.5q-57 -107 -57 -177q0 -67 58 -67q23 0 50 10t54 27.5t53.5 42t48.5 54.5l22 -14q-123 -155 -253 -155q-62 0 -96 35t-34 100q0 46 17 94.5t46.5 94.5t69 87.5t83.5 72t91 48.5t91 18z
M176 302q46 9 89 28t76 43.5t53 52t20 53.5q0 30 -32 30q-21 0 -44.5 -11t-46.5 -31t-44.5 -47t-38.5 -59zM389 642l116 171q29 44 63 44q21 0 35 -12t14 -30q0 -15 -11.5 -30t-38.5 -35l-162 -119z" />
    <glyph glyph-name="ecircumflex" unicode="&#xea;" horiz-adv-x="485" 
d="M398 540q45 0 70.5 -18.5t25.5 -50.5t-25 -62.5t-70 -57t-107.5 -48t-137.5 -34.5q-57 -107 -57 -177q0 -67 58 -67q23 0 50 10t54 27.5t53.5 42t48.5 54.5l22 -14q-123 -155 -253 -155q-62 0 -96 35t-34 100q0 46 17 94.5t46.5 94.5t69 87.5t83.5 72t91 48.5t91 18z
M176 302q46 9 89 28t76 43.5t53 52t20 53.5q0 30 -32 30q-21 0 -44.5 -11t-46.5 -31t-44.5 -47t-38.5 -59zM508 857q22 0 30 -7.5t10 -21.5l16 -188l-23 -12l-70 141l-183 -141l-19 12l171 188q26 29 68 29z" />
    <glyph glyph-name="edieresis" unicode="&#xeb;" horiz-adv-x="485" 
d="M398 540q45 0 70.5 -18.5t25.5 -50.5t-25 -62.5t-70 -57t-107.5 -48t-137.5 -34.5q-57 -107 -57 -177q0 -67 58 -67q23 0 50 10t54 27.5t53.5 42t48.5 54.5l22 -14q-123 -155 -253 -155q-62 0 -96 35t-34 100q0 46 17 94.5t46.5 94.5t69 87.5t83.5 72t91 48.5t91 18z
M176 302q46 9 89 28t76 43.5t53 52t20 53.5q0 30 -32 30q-21 0 -44.5 -11t-46.5 -31t-44.5 -47t-38.5 -59zM374 780q23 0 40 -14t17 -35q0 -12 -5.5 -23t-15 -20t-21.5 -14t-25 -5q-26 0 -40.5 14t-14.5 37q0 24 19.5 42t45.5 18zM549 780q23 0 40 -14t17 -35
q0 -12 -5.5 -23t-15 -20t-21.5 -14t-25 -5q-26 0 -40.5 14t-14.5 37q0 24 19.5 42t45.5 18z" />
    <glyph glyph-name="igrave" unicode="&#xec;" horiz-adv-x="340" 
d="M227 540q29 0 47 -12.5t18 -36.5q0 -28 -16 -66l-143 -344q-3 -8 -3 -13q0 -19 20 -19q7 0 15 3.5t20 12.5t29 24.5t41 39.5l20 -12q-47 -60 -98 -93.5t-89 -33.5q-29 0 -47 13.5t-18 42.5q0 13 3.5 29t11.5 36l145 356q5 11 5 19q0 9 -13 9q-18 0 -41.5 -16.5
t-46.5 -45.5l-23 18q34 42 78.5 65.5t84.5 23.5zM304 636l-45 119q-8 20 -10.5 31.5t-2.5 24.5q0 20 16 33t36 13q47 0 47 -42q0 -10 -0.5 -14.5t-0.5 -8.5l-12 -150z" />
    <glyph glyph-name="iacute" unicode="&#xed;" horiz-adv-x="340" 
d="M227 540q29 0 47 -12.5t18 -36.5q0 -28 -16 -66l-143 -344q-3 -8 -3 -13q0 -19 20 -19q7 0 15 3.5t20 12.5t29 24.5t41 39.5l20 -12q-47 -60 -98 -93.5t-89 -33.5q-29 0 -47 13.5t-18 42.5q0 13 3.5 29t11.5 36l145 356q5 11 5 19q0 9 -13 9q-18 0 -41.5 -16.5
t-46.5 -45.5l-23 18q34 42 78.5 65.5t84.5 23.5zM272 642l116 171q29 44 63 44q21 0 35 -12t14 -30q0 -15 -11.5 -30t-38.5 -35l-162 -119z" />
    <glyph glyph-name="icircumflex" unicode="&#xee;" horiz-adv-x="340" 
d="M227 540q29 0 47 -12.5t18 -36.5q0 -28 -16 -66l-143 -344q-3 -8 -3 -13q0 -19 20 -19q7 0 15 3.5t20 12.5t29 24.5t41 39.5l20 -12q-47 -60 -98 -93.5t-89 -33.5q-29 0 -47 13.5t-18 42.5q0 13 3.5 29t11.5 36l145 356q5 11 5 19q0 9 -13 9q-18 0 -41.5 -16.5
t-46.5 -45.5l-23 18q34 42 78.5 65.5t84.5 23.5zM350 857q22 0 30 -7.5t10 -21.5l16 -188l-23 -12l-70 141l-183 -141l-19 12l171 188q26 29 68 29z" />
    <glyph glyph-name="idieresis" unicode="&#xef;" horiz-adv-x="340" 
d="M227 540q29 0 47 -12.5t18 -36.5q0 -28 -16 -66l-143 -344q-3 -8 -3 -13q0 -19 20 -19q7 0 15 3.5t20 12.5t29 24.5t41 39.5l20 -12q-47 -60 -98 -93.5t-89 -33.5q-29 0 -47 13.5t-18 42.5q0 13 3.5 29t11.5 36l145 356q5 11 5 19q0 9 -13 9q-18 0 -41.5 -16.5
t-46.5 -45.5l-23 18q34 42 78.5 65.5t84.5 23.5zM215 780q23 0 40 -14t17 -35q0 -12 -5.5 -23t-15 -20t-21.5 -14t-25 -5q-26 0 -40.5 14t-14.5 37q0 24 19.5 42t45.5 18zM390 780q23 0 40 -14t17 -35q0 -12 -5.5 -23t-15 -20t-21.5 -14t-25 -5q-26 0 -40.5 14t-14.5 37
q0 24 19.5 42t45.5 18z" />
    <glyph glyph-name="eth" unicode="&#xf0;" horiz-adv-x="555" 
d="M362 540q56 0 75 -38h4q-2 41 -12.5 75.5t-33.5 79.5l-130 -84l-21 33l135 87q-20 31 -48.5 53.5t-76.5 46.5l14 26q54 -24 89.5 -47t62.5 -52l130 82l22 -32l-129 -82q15 -20 28 -51t22.5 -68.5t15.5 -77t6 -75.5q0 -81 -29.5 -158t-78.5 -136.5t-112.5 -95.5
t-130.5 -36q-71 0 -111 42.5t-40 118.5q0 45 14.5 91.5t40 90t59.5 81t72.5 66t80 44.5t82.5 16zM374 496q-27 0 -57.5 -18.5t-60.5 -50t-57.5 -72t-48.5 -85t-33.5 -89.5t-12.5 -84q0 -72 45 -72q25 0 55 19.5t60 52t58.5 74.5t50.5 87t35 89.5t13 81.5q0 67 -47 67z" />
    <glyph glyph-name="ntilde" unicode="&#xf1;" horiz-adv-x="629" 
d="M246 540q26 0 37 -9.5t11 -30.5q0 -20 -10 -46.5t-34 -71.5l4 -2q32 42 61 72.5t56 49.5t53.5 28t54.5 9q91 0 91 -87q0 -42 -25 -92l-117 -239q-9 -18 -14.5 -34t-5.5 -24q0 -14 12 -14q17 0 48 23.5t69 66.5l21 -15q-107 -134 -201 -134q-59 0 -59 53q0 21 9.5 50.5
t26.5 64.5l136 269q5 11 9 24t4 24q0 30 -32 30q-26 0 -58.5 -23.5t-68 -65t-72 -98.5t-68.5 -124l-93 -194h-97l192 446q11 27 11 34q0 15 -14 15q-17 0 -46 -23.5t-60 -61.5l-20 16q38 53 89.5 83.5t99.5 30.5zM289 683q14 51 48 82.5t71 31.5q17 0 34.5 -5.5t35 -12
t34.5 -12t34 -5.5q42 0 62 38h24q-17 -52 -51.5 -85t-71.5 -33q-18 0 -34.5 6t-33.5 13.5t-33.5 13.5t-34.5 6q-46 0 -63 -38h-21z" />
    <glyph glyph-name="ograve" unicode="&#xf2;" horiz-adv-x="557" 
d="M161 -10q-72 0 -110 44t-38 121q0 44 14.5 90t40 89t59.5 80.5t73.5 65.5t81.5 44t84 16q72 0 110.5 -44t38.5 -120q0 -68 -32 -136.5t-83 -124t-114 -90.5t-125 -35zM378 505q-27 0 -57.5 -19.5t-61 -51.5t-58.5 -74t-49.5 -87t-34.5 -90.5t-13 -84.5q0 -36 10.5 -54.5
t34.5 -18.5q25 0 55 20t61 53.5t60 77t51.5 89t36 90.5t13.5 82q0 34 -11 51t-37 17zM446 636l-45 119q-8 20 -10.5 31.5t-2.5 24.5q0 20 16 33t36 13q47 0 47 -42q0 -10 -0.5 -14.5t-0.5 -8.5l-12 -150z" />
    <glyph glyph-name="oacute" unicode="&#xf3;" horiz-adv-x="557" 
d="M444 642l116 171q29 44 63 44q21 0 35 -12t14 -30q0 -15 -11.5 -30t-38.5 -35l-162 -119zM161 -10q-72 0 -110 44t-38 121q0 44 14.5 90t40 89t59.5 80.5t73.5 65.5t81.5 44t84 16q72 0 110.5 -44t38.5 -120q0 -68 -32 -136.5t-83 -124t-114 -90.5t-125 -35zM378 505
q-27 0 -57.5 -19.5t-61 -51.5t-58.5 -74t-49.5 -87t-34.5 -90.5t-13 -84.5q0 -36 10.5 -54.5t34.5 -18.5q25 0 55 20t61 53.5t60 77t51.5 89t36 90.5t13.5 82q0 34 -11 51t-37 17z" />
    <glyph glyph-name="ocircumflex" unicode="&#xf4;" horiz-adv-x="557" 
d="M161 -10q-72 0 -110 44t-38 121q0 44 14.5 90t40 89t59.5 80.5t73.5 65.5t81.5 44t84 16q72 0 110.5 -44t38.5 -120q0 -68 -32 -136.5t-83 -124t-114 -90.5t-125 -35zM378 505q-27 0 -57.5 -19.5t-61 -51.5t-58.5 -74t-49.5 -87t-34.5 -90.5t-13 -84.5q0 -36 10.5 -54.5
t34.5 -18.5q25 0 55 20t61 53.5t60 77t51.5 89t36 90.5t13.5 82q0 34 -11 51t-37 17zM522 857q22 0 30 -7.5t10 -21.5l16 -188l-23 -12l-70 141l-183 -141l-19 12l171 188q26 29 68 29z" />
    <glyph glyph-name="otilde" unicode="&#xf5;" horiz-adv-x="557" 
d="M161 -10q-72 0 -110 44t-38 121q0 44 14.5 90t40 89t59.5 80.5t73.5 65.5t81.5 44t84 16q72 0 110.5 -44t38.5 -120q0 -68 -32 -136.5t-83 -124t-114 -90.5t-125 -35zM378 505q-27 0 -57.5 -19.5t-61 -51.5t-58.5 -74t-49.5 -87t-34.5 -90.5t-13 -84.5q0 -36 10.5 -54.5
t34.5 -18.5q25 0 55 20t61 53.5t60 77t51.5 89t36 90.5t13.5 82q0 34 -11 51t-37 17zM265 683q14 51 48 82.5t71 31.5q17 0 34.5 -5.5t35 -12t34.5 -12t34 -5.5q42 0 62 38h24q-17 -52 -51.5 -85t-71.5 -33q-18 0 -34.5 6t-33.5 13.5t-33.5 13.5t-34.5 6q-46 0 -63 -38h-21z
" />
    <glyph glyph-name="odieresis" unicode="&#xf6;" horiz-adv-x="557" 
d="M161 -10q-72 0 -110 44t-38 121q0 44 14.5 90t40 89t59.5 80.5t73.5 65.5t81.5 44t84 16q72 0 110.5 -44t38.5 -120q0 -68 -32 -136.5t-83 -124t-114 -90.5t-125 -35zM378 505q-27 0 -57.5 -19.5t-61 -51.5t-58.5 -74t-49.5 -87t-34.5 -90.5t-13 -84.5q0 -36 10.5 -54.5
t34.5 -18.5q25 0 55 20t61 53.5t60 77t51.5 89t36 90.5t13.5 82q0 34 -11 51t-37 17zM354 780q23 0 40 -14t17 -35q0 -12 -5.5 -23t-15 -20t-21.5 -14t-25 -5q-26 0 -40.5 14t-14.5 37q0 24 19.5 42t45.5 18zM529 780q23 0 40 -14t17 -35q0 -12 -5.5 -23t-15 -20t-21.5 -14
t-25 -5q-26 0 -40.5 14t-14.5 37q0 24 19.5 42t45.5 18z" />
    <glyph glyph-name="divide" unicode="&#xf7;" horiz-adv-x="533" 
d="M205 513q0 30 18.5 50t49.5 20q32 0 51 -20t19 -50q0 -28 -19 -48t-51 -20q-31 0 -49.5 20t-18.5 48zM205 170q0 30 18.5 50t49.5 20q32 0 51 -20t19 -50q0 -28 -19 -48t-51 -20q-31 0 -49.5 20t-18.5 48zM77 315v49h410v-49h-410z" />
    <glyph glyph-name="oslash" unicode="&#xf8;" horiz-adv-x="557" 
d="M161 -10q-72 0 -111 45l-37 -35h-53l70 67q-17 39 -17 88q0 44 14.5 90t40 89t59.5 80.5t73.5 65.5t81.5 44t84 16q69 0 110 -44l35 34h55l-69 -66q18 -38 18 -88q0 -68 -32 -136.5t-83 -124t-114 -90.5t-125 -35zM378 505q-24 0 -51.5 -16t-55.5 -43.5t-54.5 -64
t-48.5 -76.5t-38 -82t-22 -81l318 306q-3 57 -48 57zM149 25q22 0 49 16.5t55 44.5t55 65t50 78t39.5 82.5t23.5 79.5l-317 -304q2 -31 12 -46.5t33 -15.5z" />
    <glyph glyph-name="ugrave" unicode="&#xf9;" horiz-adv-x="618" 
d="M66 434q45 52 89.5 79t86.5 27q28 0 43.5 -13t15.5 -39q0 -43 -35 -116l-131 -269q-7 -14 -10 -27t-3 -23q0 -14 9 -21t21 -7q24 0 55 23.5t65 64.5t68 98t66 125l91 194h99l-194 -446q-11 -24 -11 -37q0 -6 4.5 -9t9.5 -3q18 0 47 23.5t59 61.5l20 -16q-20 -26 -42 -47
t-43.5 -36t-42 -23t-38.5 -8q-24 0 -40.5 16t-16.5 42q0 18 7 42.5t24 57.5l-5 2q-31 -43 -58.5 -73t-53.5 -49t-51.5 -28t-52.5 -9q-89 0 -89 88q0 39 25 91l117 239q20 40 20 59q0 13 -12 13q-14 0 -37.5 -16.5t-52.5 -46.5zM416 636l-45 119q-8 20 -10.5 31.5t-2.5 24.5
q0 20 16 33t36 13q47 0 47 -42q0 -10 -0.5 -14.5t-0.5 -8.5l-12 -150z" />
    <glyph glyph-name="uacute" unicode="&#xfa;" horiz-adv-x="618" 
d="M66 434q45 52 89.5 79t86.5 27q28 0 43.5 -13t15.5 -39q0 -43 -35 -116l-131 -269q-7 -14 -10 -27t-3 -23q0 -14 9 -21t21 -7q24 0 55 23.5t65 64.5t68 98t66 125l91 194h99l-194 -446q-11 -24 -11 -37q0 -6 4.5 -9t9.5 -3q18 0 47 23.5t59 61.5l20 -16q-20 -26 -42 -47
t-43.5 -36t-42 -23t-38.5 -8q-24 0 -40.5 16t-16.5 42q0 18 7 42.5t24 57.5l-5 2q-31 -43 -58.5 -73t-53.5 -49t-51.5 -28t-52.5 -9q-89 0 -89 88q0 39 25 91l117 239q20 40 20 59q0 13 -12 13q-14 0 -37.5 -16.5t-52.5 -46.5zM402 642l116 171q29 44 63 44q21 0 35 -12
t14 -30q0 -15 -11.5 -30t-38.5 -35l-162 -119z" />
    <glyph glyph-name="ucircumflex" unicode="&#xfb;" horiz-adv-x="618" 
d="M66 434q45 52 89.5 79t86.5 27q28 0 43.5 -13t15.5 -39q0 -43 -35 -116l-131 -269q-7 -14 -10 -27t-3 -23q0 -14 9 -21t21 -7q24 0 55 23.5t65 64.5t68 98t66 125l91 194h99l-194 -446q-11 -24 -11 -37q0 -6 4.5 -9t9.5 -3q18 0 47 23.5t59 61.5l20 -16q-20 -26 -42 -47
t-43.5 -36t-42 -23t-38.5 -8q-24 0 -40.5 16t-16.5 42q0 18 7 42.5t24 57.5l-5 2q-31 -43 -58.5 -73t-53.5 -49t-51.5 -28t-52.5 -9q-89 0 -89 88q0 39 25 91l117 239q20 40 20 59q0 13 -12 13q-14 0 -37.5 -16.5t-52.5 -46.5zM542 857q22 0 30 -7.5t10 -21.5l16 -188
l-23 -12l-70 141l-183 -141l-19 12l171 188q26 29 68 29z" />
    <glyph glyph-name="udieresis" unicode="&#xfc;" horiz-adv-x="618" 
d="M66 434q45 52 89.5 79t86.5 27q28 0 43.5 -13t15.5 -39q0 -43 -35 -116l-131 -269q-7 -14 -10 -27t-3 -23q0 -14 9 -21t21 -7q24 0 55 23.5t65 64.5t68 98t66 125l91 194h99l-194 -446q-11 -24 -11 -37q0 -6 4.5 -9t9.5 -3q18 0 47 23.5t59 61.5l20 -16q-20 -26 -42 -47
t-43.5 -36t-42 -23t-38.5 -8q-24 0 -40.5 16t-16.5 42q0 18 7 42.5t24 57.5l-5 2q-31 -43 -58.5 -73t-53.5 -49t-51.5 -28t-52.5 -9q-89 0 -89 88q0 39 25 91l117 239q20 40 20 59q0 13 -12 13q-14 0 -37.5 -16.5t-52.5 -46.5zM366 780q23 0 40 -14t17 -35q0 -12 -5.5 -23
t-15 -20t-21.5 -14t-25 -5q-26 0 -40.5 14t-14.5 37q0 24 19.5 42t45.5 18zM541 780q23 0 40 -14t17 -35q0 -12 -5.5 -23t-15 -20t-21.5 -14t-25 -5q-26 0 -40.5 14t-14.5 37q0 24 19.5 42t45.5 18z" />
    <glyph glyph-name="yacute" unicode="&#xfd;" horiz-adv-x="546" 
d="M49 448q26 43 67.5 67.5t84.5 24.5q26 0 43.5 -12.5t28 -46.5t15 -93.5t4.5 -153.5q0 -41 -1.5 -84.5t-4.5 -99.5l3 -3q31 39 58 84t46 89.5t30 84t11 68.5q0 10 -1.5 26t-3 32.5t-2.5 30.5t-1 20q0 26 14 42t37 16t36.5 -16.5t13.5 -45.5q0 -42 -25.5 -112.5
t-68.5 -152.5t-98.5 -165t-114.5 -151t-118 -110.5t-109 -42.5q-38 0 -62.5 15.5t-24.5 41.5q0 20 12 31.5t35 11.5q19 0 29 -8t18 -17t16.5 -17t24.5 -8q19 0 42 13.5t43 38.5q11 13 19.5 25t15 27.5t11 37.5t7 56t3.5 82.5t1 116.5q0 83 -2.5 140t-8.5 92t-15 50t-22 15
q-25 0 -67 -55zM329 642l116 171q29 44 63 44q21 0 35 -12t14 -30q0 -15 -11.5 -30t-38.5 -35l-162 -119z" />
    <glyph glyph-name="thorn" unicode="&#xfe;" horiz-adv-x="592" 
d="M404 820l-107 -273q56 -2 101.5 -17.5t78 -42.5t50 -64t17.5 -82q0 -63 -35 -123t-93.5 -106t-133.5 -74t-155 -28q-29 0 -54 3l-97 -233l102 -12v-18h-286v15l80 12l422 1016l-78 12l-4 15h192zM84 40q7 -1 12.5 -1h13.5q62 0 121 28t105.5 73.5t75 103.5t28.5 119
q0 68 -37 106.5t-103 38.5q-14 0 -19 -2t-7 -9z" />
    <glyph glyph-name="ydieresis" unicode="&#xff;" horiz-adv-x="546" 
d="M49 448q26 43 67.5 67.5t84.5 24.5q26 0 43.5 -12.5t28 -46.5t15 -93.5t4.5 -153.5q0 -41 -1.5 -84.5t-4.5 -99.5l3 -3q31 39 58 84t46 89.5t30 84t11 68.5q0 10 -1.5 26t-3 32.5t-2.5 30.5t-1 20q0 26 14 42t37 16t36.5 -16.5t13.5 -45.5q0 -42 -25.5 -112.5
t-68.5 -152.5t-98.5 -165t-114.5 -151t-118 -110.5t-109 -42.5q-38 0 -62.5 15.5t-24.5 41.5q0 20 12 31.5t35 11.5q19 0 29 -8t18 -17t16.5 -17t24.5 -8q19 0 42 13.5t43 38.5q11 13 19.5 25t15 27.5t11 37.5t7 56t3.5 82.5t1 116.5q0 83 -2.5 140t-8.5 92t-15 50t-22 15
q-25 0 -67 -55zM310 780q23 0 40 -14t17 -35q0 -12 -5.5 -23t-15 -20t-21.5 -14t-25 -5q-26 0 -40.5 14t-14.5 37q0 24 19.5 42t45.5 18zM485 780q23 0 40 -14t17 -35q0 -12 -5.5 -23t-15 -20t-21.5 -14t-25 -5q-26 0 -40.5 14t-14.5 37q0 24 19.5 42t45.5 18z" />
    <glyph glyph-name="Amacron" unicode="&#x100;" horiz-adv-x="748" 
d="M640 793l-91 -701q-1 -5 -1 -9v-8q1 -26 19.5 -35t65.5 -12l-14 -28h-308l14 28q28 0 49 3.5t35 12t22 23.5t11 38l25 181h-237l-129 -149q-23 -27 -31.5 -40.5t-8.5 -27.5q1 -16 20.5 -25.5t64.5 -15.5l-13 -28h-278l14 28q36 5 61 12.5t45.5 20.5t39.5 31.5t43 46.5
l463 538l11 93zM514 614l-252 -291h210zM471 881l28 71h287l-29 -71h-286z" />
    <glyph glyph-name="amacron" unicode="&#x101;" horiz-adv-x="604" 
d="M371 540q28 0 46.5 -10.5t36.5 -36.5l16 37h102l-172 -421q-6 -19 -8 -27t-2 -14q0 -19 16 -19q15 0 42 21t69 68l20 -14q-53 -66 -100.5 -100t-89.5 -34q-28 0 -43.5 14.5t-15.5 43.5q0 22 7 45.5t27 55.5l-6 3q-59 -86 -107 -124t-99 -38t-80.5 34.5t-29.5 97.5
q0 45 16 93.5t43.5 95t64 88t78 73t85 50t84.5 18.5zM129 25q25 0 60.5 27.5t73.5 75t75.5 110.5t67.5 134q15 35 18.5 53.5t3.5 32.5q0 23 -13 36.5t-33 13.5q-25 0 -56 -21.5t-63.5 -56.5t-63 -80t-54.5 -92.5t-38.5 -93t-14.5 -81.5q0 -30 8.5 -44t28.5 -14zM311 709
l28 71h287l-29 -71h-286z" />
    <glyph glyph-name="Abreve" unicode="&#x102;" horiz-adv-x="748" 
d="M640 793l-91 -701q-1 -5 -1 -9v-8q1 -26 19.5 -35t65.5 -12l-14 -28h-308l14 28q28 0 49 3.5t35 12t22 23.5t11 38l25 181h-237l-129 -149q-23 -27 -31.5 -40.5t-8.5 -27.5q1 -16 20.5 -25.5t64.5 -15.5l-13 -28h-278l14 28q36 5 61 12.5t45.5 20.5t39.5 31.5t43 46.5
l463 538l11 93zM514 614l-252 -291h210zM571 970q1 -31 20.5 -48t58.5 -17q33 0 65.5 15t64.5 50h40q-31 -47 -61 -74.5t-56 -41.5t-48.5 -18.5t-38.5 -4.5q-17 0 -33.5 4.5t-29 14t-20 25.5t-7.5 39q0 25 10 56h35z" />
    <glyph glyph-name="abreve" unicode="&#x103;" horiz-adv-x="604" 
d="M371 540q28 0 46.5 -10.5t36.5 -36.5l16 37h102l-172 -421q-6 -19 -8 -27t-2 -14q0 -19 16 -19q15 0 42 21t69 68l20 -14q-53 -66 -100.5 -100t-89.5 -34q-28 0 -43.5 14.5t-15.5 43.5q0 22 7 45.5t27 55.5l-6 3q-59 -86 -107 -124t-99 -38t-80.5 34.5t-29.5 97.5
q0 45 16 93.5t43.5 95t64 88t78 73t85 50t84.5 18.5zM129 25q25 0 60.5 27.5t73.5 75t75.5 110.5t67.5 134q15 35 18.5 53.5t3.5 32.5q0 23 -13 36.5t-33 13.5q-25 0 -56 -21.5t-63.5 -56.5t-63 -80t-54.5 -92.5t-38.5 -93t-14.5 -81.5q0 -30 8.5 -44t28.5 -14zM389 790
q1 -31 20.5 -48t58.5 -17q33 0 65.5 15t64.5 50h40q-31 -47 -61 -74.5t-56 -41.5t-48.5 -18.5t-38.5 -4.5q-17 0 -33.5 4.5t-29 14t-20 25.5t-7.5 39q0 25 10 56h35z" />
    <glyph glyph-name="Aogonek" unicode="&#x104;" horiz-adv-x="748" 
d="M463 -198q-69 -58 -137 -58q-67 0 -67 52q0 45 51 99t139 105h-138l14 28q28 0 49 3.5t35 12t22 23.5t11 38l25 181h-237l-129 -149q-23 -27 -31.5 -40.5t-8.5 -27.5q1 -16 20.5 -25.5t64.5 -15.5l-13 -28h-278l14 28q36 5 61 12.5t45.5 20.5t39.5 31.5t43 46.5l463 538
l11 93l108 23l-91 -701q-1 -5 -1 -9v-8q1 -26 19.5 -35t65.5 -12l-14 -28h-126q-66 -52 -101.5 -97t-35.5 -75q0 -29 37 -29q14 0 28 4.5t37 16.5zM514 614l-252 -291h210z" />
    <glyph glyph-name="aogonek" unicode="&#x105;" horiz-adv-x="605" 
d="M366 -198q-69 -58 -137 -58q-67 0 -67 52q0 42 46.5 94t127.5 101q-23 2 -35.5 16.5t-12.5 40.5q0 22 7 45.5t27 55.5l-6 3q-59 -86 -107 -124t-99 -38t-80.5 34.5t-29.5 97.5q0 45 16 93.5t43.5 95t64 88t78 73t85 50t84.5 18.5q28 0 46.5 -10.5t36.5 -36.5l16 37h102
l-172 -421q-6 -19 -8 -27t-2 -14q0 -19 16 -19q15 0 42 21t69 68l20 -14q-73 -93 -138 -122q-67 -53 -103.5 -98t-36.5 -76q0 -29 37 -29q14 0 28 4.5t37 16.5zM129 25q25 0 60.5 27.5t73.5 75t75.5 110.5t67.5 134q15 35 18.5 53.5t3.5 32.5q0 23 -13 36.5t-33 13.5
q-25 0 -56 -21.5t-63.5 -56.5t-63 -80t-54.5 -92.5t-38.5 -93t-14.5 -81.5q0 -30 8.5 -44t28.5 -14z" />
    <glyph glyph-name="Cacute" unicode="&#x106;" horiz-adv-x="742" 
d="M540 77h-4q-59 -47 -115 -67t-123 -20q-235 0 -235 223q0 71 22.5 140.5t62 132.5t93.5 116.5t117 93t133 62t141 22.5q48 0 89 -11.5t68 -31.5l36 33h22l-97 -230h-29q15 55 15 94q0 54 -27.5 78t-86.5 24q-56 0 -111.5 -20.5t-105 -56.5t-92 -85t-74 -106.5t-49 -121
t-17.5 -127.5q0 -182 152 -182q48 0 94 17.5t87 50.5t75 80.5t60 107.5h29l-111 -293h-27zM588 847l144 107q22 16 44 16q17 0 30 -12t13 -31q0 -17 -14.5 -31.5t-53.5 -25.5l-152 -44z" />
    <glyph glyph-name="cacute" unicode="&#x107;" horiz-adv-x="498" 
d="M387 509q-30 0 -62.5 -19.5t-63 -52.5t-58.5 -75.5t-48.5 -88t-33 -91t-12.5 -83.5t13.5 -56t45.5 -18q85 0 216 134l22 -13q-66 -77 -133 -116.5t-133 -39.5q-65 0 -97.5 39t-32.5 114q1 82 44.5 164t122.5 144q54 42 113 65.5t109 23.5q26 0 48 -7t38.5 -19.5t25.5 -29
t9 -35.5q0 -18 -12 -29t-32 -11q-39 0 -46 48q-5 28 -14.5 40t-28.5 12zM349 642l116 171q29 44 63 44q21 0 35 -12t14 -30q0 -15 -11.5 -30t-38.5 -35l-162 -119z" />
    <glyph glyph-name="Ccircumflex" unicode="&#x108;" horiz-adv-x="742" 
d="M540 77h-4q-59 -47 -115 -67t-123 -20q-235 0 -235 223q0 71 22.5 140.5t62 132.5t93.5 116.5t117 93t133 62t141 22.5q48 0 89 -11.5t68 -31.5l36 33h22l-97 -230h-29q15 55 15 94q0 54 -27.5 78t-86.5 24q-56 0 -111.5 -20.5t-105 -56.5t-92 -85t-74 -106.5t-49 -121
t-17.5 -127.5q0 -182 152 -182q48 0 94 17.5t87 50.5t75 80.5t60 107.5h29l-111 -293h-27zM712 970q17 0 26.5 -6.5t17.5 -20.5l54 -96l-26 -17l-91 68l-165 -68l-12 17l132 96q18 13 31.5 20t32.5 7z" />
    <glyph glyph-name="ccircumflex" unicode="&#x109;" horiz-adv-x="498" 
d="M387 509q-30 0 -62.5 -19.5t-63 -52.5t-58.5 -75.5t-48.5 -88t-33 -91t-12.5 -83.5t13.5 -56t45.5 -18q85 0 216 134l22 -13q-66 -77 -133 -116.5t-133 -39.5q-65 0 -97.5 39t-32.5 114q1 82 44.5 164t122.5 144q54 42 113 65.5t109 23.5q26 0 48 -7t38.5 -19.5t25.5 -29
t9 -35.5q0 -18 -12 -29t-32 -11q-39 0 -46 48q-5 28 -14.5 40t-28.5 12zM508 857q22 0 30 -7.5t10 -21.5l16 -188l-23 -12l-70 141l-183 -141l-19 12l171 188q26 29 68 29z" />
    <glyph glyph-name="Cdotaccent" unicode="&#x10a;" horiz-adv-x="742" 
d="M540 77h-4q-59 -47 -115 -67t-123 -20q-235 0 -235 223q0 71 22.5 140.5t62 132.5t93.5 116.5t117 93t133 62t141 22.5q48 0 89 -11.5t68 -31.5l36 33h22l-97 -230h-29q15 55 15 94q0 54 -27.5 78t-86.5 24q-56 0 -111.5 -20.5t-105 -56.5t-92 -85t-74 -106.5t-49 -121
t-17.5 -127.5q0 -182 152 -182q48 0 94 17.5t87 50.5t75 80.5t60 107.5h29l-111 -293h-27zM710 970q26 0 45 -16t19 -39q0 -14 -6.5 -26.5t-17 -22t-24 -15.5t-27.5 -6q-29 0 -45.5 15.5t-16.5 41.5q0 28 22 48t51 20z" />
    <glyph glyph-name="cdotaccent" unicode="&#x10b;" horiz-adv-x="498" 
d="M387 509q-30 0 -62.5 -19.5t-63 -52.5t-58.5 -75.5t-48.5 -88t-33 -91t-12.5 -83.5t13.5 -56t45.5 -18q85 0 216 134l22 -13q-66 -77 -133 -116.5t-133 -39.5q-65 0 -97.5 39t-32.5 114q1 82 44.5 164t122.5 144q54 42 113 65.5t109 23.5q26 0 48 -7t38.5 -19.5t25.5 -29
t9 -35.5q0 -18 -12 -29t-32 -11q-39 0 -46 48q-5 28 -14.5 40t-28.5 12zM464 780q26 0 45 -16t19 -39q0 -14 -6.5 -26.5t-17 -22t-24 -15.5t-27.5 -6q-29 0 -45.5 15.5t-16.5 41.5q0 28 22 48t51 20z" />
    <glyph glyph-name="Ccaron" unicode="&#x10c;" horiz-adv-x="742" 
d="M540 77h-4q-59 -47 -115 -67t-123 -20q-235 0 -235 223q0 71 22.5 140.5t62 132.5t93.5 116.5t117 93t133 62t141 22.5q48 0 89 -11.5t68 -31.5l36 33h22l-97 -230h-29q15 55 15 94q0 54 -27.5 78t-86.5 24q-56 0 -111.5 -20.5t-105 -56.5t-92 -85t-74 -106.5t-49 -121
t-17.5 -127.5q0 -182 152 -182q48 0 94 17.5t87 50.5t75 80.5t60 107.5h29l-111 -293h-27zM658 830q-17 0 -26.5 6.5t-17.5 20.5l-54 96l26 17l91 -68l165 68l12 -17l-132 -96q-18 -13 -31.5 -20t-32.5 -7z" />
    <glyph glyph-name="ccaron" unicode="&#x10d;" horiz-adv-x="498" 
d="M387 509q-30 0 -62.5 -19.5t-63 -52.5t-58.5 -75.5t-48.5 -88t-33 -91t-12.5 -83.5t13.5 -56t45.5 -18q85 0 216 134l22 -13q-66 -77 -133 -116.5t-133 -39.5q-65 0 -97.5 39t-32.5 114q1 82 44.5 164t122.5 144q54 42 113 65.5t109 23.5q26 0 48 -7t38.5 -19.5t25.5 -29
t9 -35.5q0 -18 -12 -29t-32 -11q-39 0 -46 48q-5 28 -14.5 40t-28.5 12zM423 628q-22 0 -30 7.5t-10 21.5l-16 188l23 12l70 -141l183 141l19 -12l-171 -188q-26 -29 -68 -29z" />
    <glyph glyph-name="Dcaron" unicode="&#x10e;" horiz-adv-x="805" 
d="M-58 23l92 19l284 686l-78 19l10 23h206q74 0 134 -21t102.5 -60t65.5 -94.5t23 -124.5q0 -67 -20 -131t-56 -119.5t-87 -100t-113 -72.5q-104 -47 -263 -47h-310zM236 42q87 0 166 30.5t139 88.5t95 142.5t35 191.5q0 112 -56.5 173.5t-159.5 61.5h-27l-249 -601
q-13 -30 -13 -49q0 -21 16 -29.5t54 -8.5zM563 830q-17 0 -26.5 6.5t-17.5 20.5l-54 96l26 17l91 -68l165 68l12 -17l-132 -96q-18 -13 -31.5 -20t-32.5 -7z" />
    <glyph glyph-name="dcaron" unicode="&#x10f;" horiz-adv-x="604" 
d="M481 820h191l-268 -711q-7 -18 -9 -26.5t-2 -14.5q0 -11 5 -15t13 -4q15 0 39 21t66 68l20 -14q-99 -134 -183 -134q-33 0 -47 18t-14 54q0 18 7.5 38.5t21.5 48.5l-2 3q-30 -44 -56 -75t-50.5 -50.5t-49 -28t-51.5 -8.5q-109 0 -109 130q0 70 32.5 144t84.5 135.5
t115.5 101t126.5 39.5q29 0 47.5 -10.5t37.5 -36.5l116 300l-77 12zM130 25q25 0 60 28t72 75.5t73.5 110.5t65.5 133q14 35 19 53t6 33q-4 23 -15.5 36.5t-31.5 13.5q-25 0 -56 -21.5t-63 -57t-62 -80.5t-53.5 -92.5t-37.5 -93.5t-14 -82q0 -29 10 -42.5t27 -13.5zM705 642
l52 169q8 25 20.5 35.5t29.5 10.5q23 0 32.5 -11.5t9.5 -28.5q0 -10 -4 -20t-15 -24l-100 -131h-25z" />
    <glyph glyph-name="Dcroat" unicode="&#x110;" horiz-adv-x="808" 
d="M-55 23l92 19l138 334h-97l18 44h97l128 308l-78 19l10 23h206q74 0 134 -21t102.5 -60t65.5 -94.5t23 -124.5q0 -67 -20 -131t-56 -119.5t-87 -100t-113 -72.5q-104 -47 -263 -47h-310zM239 42q87 0 166 30.5t139 88.5t95 142.5t35 191.5q0 112 -56.5 173.5t-159.5 61.5
h-27l-129 -310h151l-19 -44h-150l-102 -247q-13 -30 -13 -49q0 -21 16 -29.5t54 -8.5z" />
    <glyph glyph-name="dcroat" unicode="&#x111;" horiz-adv-x="603" 
d="M481 820h191l-44 -116h78l-18 -42h-76l-208 -553q-7 -18 -9 -26.5t-2 -14.5q0 -11 5 -15t13 -4q15 0 39 21t66 68l20 -14q-99 -134 -183 -134q-33 0 -47 18t-14 54q0 18 7.5 38.5t21.5 48.5l-2 3q-30 -44 -56 -75t-50.5 -50.5t-49 -28t-51.5 -8.5q-109 0 -109 130
q0 70 32.5 144t84.5 135.5t115.5 101t126.5 39.5q29 0 47.5 -10.5t37.5 -36.5l65 169h-110l17 42h109l35 89l-77 12zM130 25q25 0 60 28t72 75.5t73.5 110.5t65.5 133q14 35 19 53t6 33q-4 23 -15.5 36.5t-31.5 13.5q-25 0 -56 -21.5t-63 -57t-62 -80.5t-53.5 -92.5
t-37.5 -93.5t-14 -82q0 -29 10 -42.5t27 -13.5z" />
    <glyph glyph-name="Emacron" unicode="&#x112;" horiz-adv-x="713" 
d="M-68 0l10 23l92 19l284 686l-78 19l10 23h480l8 -220h-27q-9 54 -22.5 98t-35.5 82h-226l-124 -304h168q49 57 84 114h29l-113 -274h-29q8 30 11.5 60t5.5 60h-174l-142 -346h323q41 48 74.5 95t62.5 95h29l-91 -230h-609zM411 881l28 71h287l-29 -71h-286z" />
    <glyph glyph-name="emacron" unicode="&#x113;" horiz-adv-x="485" 
d="M398 540q45 0 70.5 -18.5t25.5 -50.5t-25 -62.5t-70 -57t-107.5 -48t-137.5 -34.5q-57 -107 -57 -177q0 -67 58 -67q23 0 50 10t54 27.5t53.5 42t48.5 54.5l22 -14q-123 -155 -253 -155q-62 0 -96 35t-34 100q0 46 17 94.5t46.5 94.5t69 87.5t83.5 72t91 48.5t91 18z
M176 302q46 9 89 28t76 43.5t53 52t20 53.5q0 30 -32 30q-21 0 -44.5 -11t-46.5 -31t-44.5 -47t-38.5 -59zM287 709l28 71h287l-29 -71h-286z" />
    <glyph glyph-name="Ebreve" unicode="&#x114;" horiz-adv-x="713" 
d="M-68 0l10 23l92 19l284 686l-78 19l10 23h480l8 -220h-27q-9 54 -22.5 98t-35.5 82h-226l-124 -304h168q49 57 84 114h29l-113 -274h-29q8 30 11.5 60t5.5 60h-174l-142 -346h323q41 48 74.5 95t62.5 95h29l-91 -230h-609zM499 970q1 -31 20.5 -48t58.5 -17q33 0 65.5 15
t64.5 50h40q-31 -47 -61 -74.5t-56 -41.5t-48.5 -18.5t-38.5 -4.5q-17 0 -33.5 4.5t-29 14t-20 25.5t-7.5 39q0 25 10 56h35z" />
    <glyph glyph-name="ebreve" unicode="&#x115;" horiz-adv-x="485" 
d="M398 540q45 0 70.5 -18.5t25.5 -50.5t-25 -62.5t-70 -57t-107.5 -48t-137.5 -34.5q-57 -107 -57 -177q0 -67 58 -67q23 0 50 10t54 27.5t53.5 42t48.5 54.5l22 -14q-123 -155 -253 -155q-62 0 -96 35t-34 100q0 46 17 94.5t46.5 94.5t69 87.5t83.5 72t91 48.5t91 18z
M176 302q46 9 89 28t76 43.5t53 52t20 53.5q0 30 -32 30q-21 0 -44.5 -11t-46.5 -31t-44.5 -47t-38.5 -59zM377 790q1 -31 20.5 -48t58.5 -17q33 0 65.5 15t64.5 50h40q-31 -47 -61 -74.5t-56 -41.5t-48.5 -18.5t-38.5 -4.5q-17 0 -33.5 4.5t-29 14t-20 25.5t-7.5 39
q0 25 10 56h35z" />
    <glyph glyph-name="Edotaccent" unicode="&#x116;" horiz-adv-x="713" 
d="M-68 0l10 23l92 19l284 686l-78 19l10 23h480l8 -220h-27q-9 54 -22.5 98t-35.5 82h-226l-124 -304h168q49 57 84 114h29l-113 -274h-29q8 30 11.5 60t5.5 60h-174l-142 -346h323q41 48 74.5 95t62.5 95h29l-91 -230h-609zM583 970q26 0 45 -16t19 -39q0 -14 -6.5 -26.5
t-17 -22t-24 -15.5t-27.5 -6q-29 0 -45.5 15.5t-16.5 41.5q0 28 22 48t51 20z" />
    <glyph glyph-name="edotaccent" unicode="&#x117;" horiz-adv-x="485" 
d="M398 540q45 0 70.5 -18.5t25.5 -50.5t-25 -62.5t-70 -57t-107.5 -48t-137.5 -34.5q-57 -107 -57 -177q0 -67 58 -67q23 0 50 10t54 27.5t53.5 42t48.5 54.5l22 -14q-123 -155 -253 -155q-62 0 -96 35t-34 100q0 46 17 94.5t46.5 94.5t69 87.5t83.5 72t91 48.5t91 18z
M176 302q46 9 89 28t76 43.5t53 52t20 53.5q0 30 -32 30q-21 0 -44.5 -11t-46.5 -31t-44.5 -47t-38.5 -59zM434 780q26 0 45 -16t19 -39q0 -14 -6.5 -26.5t-17 -22t-24 -15.5t-27.5 -6q-29 0 -45.5 15.5t-16.5 41.5q0 28 22 48t51 20z" />
    <glyph glyph-name="Eogonek" unicode="&#x118;" horiz-adv-x="713" 
d="M462 -198q-69 -58 -137 -58q-67 0 -67 52q0 45 43 99t130 105h-499l10 23l92 19l284 686l-78 19l10 23h480l8 -220h-27q-9 54 -22.5 98t-35.5 82h-226l-124 -304h168q49 57 84 114h29l-113 -274h-29q8 30 11.5 60t5.5 60h-174l-142 -346h323q41 48 74.5 95t62.5 95h29
l-91 -230h-66q-65 -52 -92.5 -97t-27.5 -75q0 -29 37 -29q14 0 28 4.5t37 16.5z" />
    <glyph glyph-name="eogonek" unicode="&#x119;" horiz-adv-x="485" 
d="M180 -198q-69 -58 -137 -58q-67 0 -67 52q0 42 47 94.5t128 100.5q-5 0 -10.5 -0.5t-10.5 -0.5q-62 0 -96 35t-34 100q0 46 17 94.5t46.5 94.5t69 87.5t83.5 72t91 48.5t91 18q45 0 70.5 -18.5t25.5 -50.5t-25 -62.5t-70 -57t-107.5 -48t-137.5 -34.5q-57 -107 -57 -177
q0 -67 58 -67q23 0 50 10t54 27.5t53.5 42t48.5 54.5l22 -14q-39 -49 -82.5 -85t-81.5 -59q-78 -47 -112 -94t-34 -79q0 -29 37 -29q14 0 28 4.5t37 16.5zM176 302q46 9 89 28t76 43.5t53 52t20 53.5q0 30 -32 30q-21 0 -44.5 -11t-46.5 -31t-44.5 -47t-38.5 -59z" />
    <glyph glyph-name="Ecaron" unicode="&#x11a;" horiz-adv-x="713" 
d="M-68 0l10 23l92 19l284 686l-78 19l10 23h480l8 -220h-27q-9 54 -22.5 98t-35.5 82h-226l-124 -304h168q49 57 84 114h29l-113 -274h-29q8 30 11.5 60t5.5 60h-174l-142 -346h323q41 48 74.5 95t62.5 95h29l-91 -230h-609zM549 830q-17 0 -26.5 6.5t-17.5 20.5l-54 96
l26 17l91 -68l165 68l12 -17l-132 -96q-18 -13 -31.5 -20t-32.5 -7z" />
    <glyph glyph-name="ecaron" unicode="&#x11b;" horiz-adv-x="485" 
d="M398 540q45 0 70.5 -18.5t25.5 -50.5t-25 -62.5t-70 -57t-107.5 -48t-137.5 -34.5q-57 -107 -57 -177q0 -67 58 -67q23 0 50 10t54 27.5t53.5 42t48.5 54.5l22 -14q-123 -155 -253 -155q-62 0 -96 35t-34 100q0 46 17 94.5t46.5 94.5t69 87.5t83.5 72t91 48.5t91 18z
M176 302q46 9 89 28t76 43.5t53 52t20 53.5q0 30 -32 30q-21 0 -44.5 -11t-46.5 -31t-44.5 -47t-38.5 -59zM412 628q-22 0 -30 7.5t-10 21.5l-16 188l23 12l70 -141l183 141l19 -12l-171 -188q-26 -29 -68 -29z" />
    <glyph glyph-name="Gcircumflex" unicode="&#x11c;" horiz-adv-x="798" 
d="M598 344l-83 19l10 23h284l-10 -23l-96 -19l-118 -285q-61 -34 -128.5 -51.5t-130.5 -17.5q-122 0 -188.5 64.5t-66.5 182.5q0 68 21.5 134.5t59 127t89.5 112t112.5 89t127.5 59t135 21.5q53 0 92 -13t72 -42l51 45h24l-98 -240h-30q7 27 10.5 49t3.5 42q0 115 -129 115
q-55 0 -108.5 -19t-101 -53.5t-87.5 -81.5t-69 -103t-45.5 -118.5t-16.5 -127.5q0 -199 164 -199q64 0 105 29.5t68 95.5zM720 970q17 0 26.5 -6.5t17.5 -20.5l54 -96l-26 -17l-91 68l-165 -68l-12 17l132 96q18 13 31.5 20t32.5 7z" />
    <glyph glyph-name="gcircumflex" unicode="&#x11d;" horiz-adv-x="527" 
d="M232 218q27 0 53 18.5t46.5 49t32.5 70t12 80.5q0 35 -12.5 51t-41.5 16q-25 0 -51.5 -18.5t-48.5 -48t-36 -65.5t-14 -71q0 -39 15.5 -60.5t44.5 -21.5zM528 540q26 0 41 -15t15 -35q0 -17 -12.5 -28.5t-29.5 -11.5q-11 0 -18 4.5t-13.5 9.5t-13 9.5t-15.5 4.5
q-11 0 -21 -6.5t-15 -17.5q11 -23 15 -40.5t4 -37.5q0 -40 -16.5 -75t-45 -61t-66.5 -41t-81 -15q-16 0 -37.5 1.5t-40.5 1.5q-91 0 -91 -45q0 -35 50 -51l156 -53q48 -17 76.5 -51.5t28.5 -78.5q0 -36 -20 -66t-55.5 -51.5t-85 -34t-108.5 -12.5q-54 0 -99 11t-77.5 30.5
t-50 47.5t-17.5 62q0 29 12.5 54t35 43.5t53.5 29t67 10.5q-21 16 -32.5 38t-11.5 46q0 47 39.5 73.5t109.5 26.5l1 4q-74 52 -74 132q0 37 17 71.5t46 60t67.5 41t81.5 15.5q81 0 130 -61q52 61 101 61zM143 -226q39 0 71 7.5t55 21t36 32t13 40.5q0 25 -21 48t-53 34
l-128 43q-11 4 -17.5 5t-14.5 1q-24 0 -44.5 -9t-35 -24.5t-23 -36t-8.5 -43.5q0 -56 46 -87.5t124 -31.5zM479 857q22 0 30 -7.5t10 -21.5l16 -188l-23 -12l-70 141l-183 -141l-19 12l171 188q26 29 68 29z" />
    <glyph glyph-name="Gbreve" unicode="&#x11e;" horiz-adv-x="798" 
d="M598 344l-83 19l10 23h284l-10 -23l-96 -19l-118 -285q-61 -34 -128.5 -51.5t-130.5 -17.5q-122 0 -188.5 64.5t-66.5 182.5q0 68 21.5 134.5t59 127t89.5 112t112.5 89t127.5 59t135 21.5q53 0 92 -13t72 -42l51 45h24l-98 -240h-30q7 27 10.5 49t3.5 42q0 115 -129 115
q-55 0 -108.5 -19t-101 -53.5t-87.5 -81.5t-69 -103t-45.5 -118.5t-16.5 -127.5q0 -199 164 -199q64 0 105 29.5t68 95.5zM634 970q1 -31 20.5 -48t58.5 -17q33 0 65.5 15t64.5 50h40q-31 -47 -61 -74.5t-56 -41.5t-48.5 -18.5t-38.5 -4.5q-17 0 -33.5 4.5t-29 14t-20 25.5
t-7.5 39q0 25 10 56h35z" />
    <glyph glyph-name="gbreve" unicode="&#x11f;" horiz-adv-x="527" 
d="M232 218q27 0 53 18.5t46.5 49t32.5 70t12 80.5q0 35 -12.5 51t-41.5 16q-25 0 -51.5 -18.5t-48.5 -48t-36 -65.5t-14 -71q0 -39 15.5 -60.5t44.5 -21.5zM528 540q26 0 41 -15t15 -35q0 -17 -12.5 -28.5t-29.5 -11.5q-11 0 -18 4.5t-13.5 9.5t-13 9.5t-15.5 4.5
q-11 0 -21 -6.5t-15 -17.5q11 -23 15 -40.5t4 -37.5q0 -40 -16.5 -75t-45 -61t-66.5 -41t-81 -15q-16 0 -37.5 1.5t-40.5 1.5q-91 0 -91 -45q0 -35 50 -51l156 -53q48 -17 76.5 -51.5t28.5 -78.5q0 -36 -20 -66t-55.5 -51.5t-85 -34t-108.5 -12.5q-54 0 -99 11t-77.5 30.5
t-50 47.5t-17.5 62q0 29 12.5 54t35 43.5t53.5 29t67 10.5q-21 16 -32.5 38t-11.5 46q0 47 39.5 73.5t109.5 26.5l1 4q-74 52 -74 132q0 37 17 71.5t46 60t67.5 41t81.5 15.5q81 0 130 -61q52 61 101 61zM143 -226q39 0 71 7.5t55 21t36 32t13 40.5q0 25 -21 48t-53 34
l-128 43q-11 4 -17.5 5t-14.5 1q-24 0 -44.5 -9t-35 -24.5t-23 -36t-8.5 -43.5q0 -56 46 -87.5t124 -31.5zM348 790q1 -31 20.5 -48t58.5 -17q33 0 65.5 15t64.5 50h40q-31 -47 -61 -74.5t-56 -41.5t-48.5 -18.5t-38.5 -4.5q-17 0 -33.5 4.5t-29 14t-20 25.5t-7.5 39
q0 25 10 56h35z" />
    <glyph glyph-name="Gdotaccent" unicode="&#x120;" horiz-adv-x="798" 
d="M598 344l-83 19l10 23h284l-10 -23l-96 -19l-118 -285q-61 -34 -128.5 -51.5t-130.5 -17.5q-122 0 -188.5 64.5t-66.5 182.5q0 68 21.5 134.5t59 127t89.5 112t112.5 89t127.5 59t135 21.5q53 0 92 -13t72 -42l51 45h24l-98 -240h-30q7 27 10.5 49t3.5 42q0 115 -129 115
q-55 0 -108.5 -19t-101 -53.5t-87.5 -81.5t-69 -103t-45.5 -118.5t-16.5 -127.5q0 -199 164 -199q64 0 105 29.5t68 95.5zM704 970q26 0 45 -16t19 -39q0 -14 -6.5 -26.5t-17 -22t-24 -15.5t-27.5 -6q-29 0 -45.5 15.5t-16.5 41.5q0 28 22 48t51 20z" />
    <glyph glyph-name="gdotaccent" unicode="&#x121;" horiz-adv-x="527" 
d="M232 218q27 0 53 18.5t46.5 49t32.5 70t12 80.5q0 35 -12.5 51t-41.5 16q-25 0 -51.5 -18.5t-48.5 -48t-36 -65.5t-14 -71q0 -39 15.5 -60.5t44.5 -21.5zM528 540q26 0 41 -15t15 -35q0 -17 -12.5 -28.5t-29.5 -11.5q-11 0 -18 4.5t-13.5 9.5t-13 9.5t-15.5 4.5
q-11 0 -21 -6.5t-15 -17.5q11 -23 15 -40.5t4 -37.5q0 -40 -16.5 -75t-45 -61t-66.5 -41t-81 -15q-16 0 -37.5 1.5t-40.5 1.5q-91 0 -91 -45q0 -35 50 -51l156 -53q48 -17 76.5 -51.5t28.5 -78.5q0 -36 -20 -66t-55.5 -51.5t-85 -34t-108.5 -12.5q-54 0 -99 11t-77.5 30.5
t-50 47.5t-17.5 62q0 29 12.5 54t35 43.5t53.5 29t67 10.5q-21 16 -32.5 38t-11.5 46q0 47 39.5 73.5t109.5 26.5l1 4q-74 52 -74 132q0 37 17 71.5t46 60t67.5 41t81.5 15.5q81 0 130 -61q52 61 101 61zM143 -226q39 0 71 7.5t55 21t36 32t13 40.5q0 25 -21 48t-53 34
l-128 43q-11 4 -17.5 5t-14.5 1q-24 0 -44.5 -9t-35 -24.5t-23 -36t-8.5 -43.5q0 -56 46 -87.5t124 -31.5zM405 780q26 0 45 -16t19 -39q0 -14 -6.5 -26.5t-17 -22t-24 -15.5t-27.5 -6q-29 0 -45.5 15.5t-16.5 41.5q0 28 22 48t51 20z" />
    <glyph glyph-name="Gcommaaccent" unicode="&#x122;" horiz-adv-x="798" 
d="M598 344l-83 19l10 23h284l-10 -23l-96 -19l-118 -285q-61 -34 -128.5 -51.5t-130.5 -17.5q-122 0 -188.5 64.5t-66.5 182.5q0 68 21.5 134.5t59 127t89.5 112t112.5 89t127.5 59t135 21.5q53 0 92 -13t72 -42l51 45h24l-98 -240h-30q7 27 10.5 49t3.5 42q0 115 -129 115
q-55 0 -108.5 -19t-101 -53.5t-87.5 -81.5t-69 -103t-45.5 -118.5t-16.5 -127.5q0 -199 164 -199q64 0 105 29.5t68 95.5zM256 -149q-29 8 -29 44q0 28 16 44.5t50 16.5q50 0 50 -56q0 -38 -32 -76.5t-91 -70.5l-15 19q31 15 52.5 35t21.5 32q0 5 -4.5 7t-18.5 5z" />
    <glyph glyph-name="gcommaaccent" unicode="&#x123;" horiz-adv-x="527" 
d="M232 218q27 0 53 18.5t46.5 49t32.5 70t12 80.5q0 35 -12.5 51t-41.5 16q-25 0 -51.5 -18.5t-48.5 -48t-36 -65.5t-14 -71q0 -39 15.5 -60.5t44.5 -21.5zM528 540q26 0 41 -15t15 -35q0 -17 -12.5 -28.5t-29.5 -11.5q-11 0 -18 4.5t-13.5 9.5t-13 9.5t-15.5 4.5
q-11 0 -21 -6.5t-15 -17.5q11 -23 15 -40.5t4 -37.5q0 -40 -16.5 -75t-45 -61t-66.5 -41t-81 -15q-16 0 -37.5 1.5t-40.5 1.5q-91 0 -91 -45q0 -35 50 -51l156 -53q48 -17 76.5 -51.5t28.5 -78.5q0 -36 -20 -66t-55.5 -51.5t-85 -34t-108.5 -12.5q-54 0 -99 11t-77.5 30.5
t-50 47.5t-17.5 62q0 29 12.5 54t35 43.5t53.5 29t67 10.5q-21 16 -32.5 38t-11.5 46q0 47 39.5 73.5t109.5 26.5l1 4q-74 52 -74 132q0 37 17 71.5t46 60t67.5 41t81.5 15.5q81 0 130 -61q52 61 101 61zM143 -226q39 0 71 7.5t55 21t36 32t13 40.5q0 25 -21 48t-53 34
l-128 43q-11 4 -17.5 5t-14.5 1q-24 0 -44.5 -9t-35 -24.5t-23 -36t-8.5 -43.5q0 -56 46 -87.5t124 -31.5zM438 754q29 -8 29 -44q0 -28 -16 -44.5t-50 -16.5q-50 0 -50 56q0 38 32 76.5t91 70.5l15 -19q-31 -15 -52.5 -35t-21.5 -32q0 -5 4.5 -7t18.5 -5z" />
    <glyph glyph-name="Hcircumflex" unicode="&#x124;" horiz-adv-x="859" 
d="M643 385h-356l-142 -343l82 -19l-10 -23h-289l10 23l97 19l284 686l-83 19l10 23h290l-10 -23l-96 -19l-126 -303h356l126 303l-83 19l10 23h290l-10 -25l-96 -17l-285 -686l81 -21l-9 -21h-290l10 23l97 19zM694 970q17 0 26.5 -6.5t17.5 -20.5l54 -96l-26 -17l-91 68
l-165 -68l-12 17l132 96q18 13 31.5 20t32.5 7z" />
    <glyph glyph-name="hcircumflex" unicode="&#x125;" horiz-adv-x="595" 
d="M293 793l-76 12l-2 15h191l-190 -438l5 -2q63 85 115.5 122t108.5 37q42 0 67 -20.5t25 -58.5q0 -20 -6 -44.5t-21 -55.5l-117 -239q-10 -20 -15 -34t-5 -23q0 -15 15 -15q17 0 47.5 24.5t66.5 65.5l21 -15q-51 -66 -101 -100t-98 -34q-32 0 -45.5 14.5t-13.5 43.5
q0 40 35 110l134 269q14 30 14 50q0 28 -29 28q-26 0 -59.5 -23.5t-70 -65.5t-73 -99t-67.5 -123l-91 -194h-93zM591 857q22 0 30 -7.5t10 -21.5l16 -188l-23 -12l-70 141l-183 -141l-19 12l171 188q26 29 68 29z" />
    <glyph glyph-name="Hbar" unicode="&#x126;" horiz-adv-x="860" 
d="M644 385h-356l-142 -343l82 -19l-10 -23h-289l10 23l97 19l210 508h-79l18 44h79l56 134l-83 19l10 23h290l-10 -23l-96 -19l-56 -134h356l56 134l-83 19l10 23h290l-10 -25l-96 -17l-56 -134h100l-19 -44h-99l-211 -508l81 -21l-9 -21h-290l10 23l97 19zM661 425l52 125
h-356l-52 -125h356z" />
    <glyph glyph-name="hbar" unicode="&#x127;" horiz-adv-x="595" 
d="M239 662h-77l17 42h77l37 89l-76 12l-2 15h191l-51 -116h111l-18 -42h-111l-121 -280l5 -2q63 85 115.5 122t108.5 37q42 0 67 -20.5t25 -58.5q0 -20 -6 -44.5t-21 -55.5l-117 -239q-10 -20 -15 -34t-5 -23q0 -15 15 -15q17 0 47.5 24.5t66.5 65.5l21 -15
q-51 -66 -101 -100t-98 -34q-32 0 -45.5 14.5t-13.5 43.5q0 40 35 110l134 269q14 30 14 50q0 28 -29 28q-26 0 -59.5 -23.5t-70 -65.5t-73 -99t-67.5 -123l-91 -194h-93z" />
    <glyph glyph-name="Itilde" unicode="&#x128;" horiz-adv-x="392" 
d="M319 728l-83 19l10 23h290l-10 -23l-96 -19l-285 -686l82 -19l-10 -23h-289l10 23l97 19zM279 853q14 51 48 82.5t71 31.5q17 0 34.5 -5.5t35 -12t34.5 -12t34 -5.5q42 0 62 38h24q-17 -52 -51.5 -85t-71.5 -33q-18 0 -34.5 6t-33.5 13.5t-33.5 13.5t-34.5 6
q-46 0 -63 -38h-21z" />
    <glyph glyph-name="itilde" unicode="&#x129;" horiz-adv-x="340" 
d="M227 540q29 0 47 -12.5t18 -36.5q0 -28 -16 -66l-143 -344q-3 -8 -3 -13q0 -19 20 -19q7 0 15 3.5t20 12.5t29 24.5t41 39.5l20 -12q-47 -60 -98 -93.5t-89 -33.5q-29 0 -47 13.5t-18 42.5q0 13 3.5 29t11.5 36l145 356q5 11 5 19q0 9 -13 9q-18 0 -41.5 -16.5
t-46.5 -45.5l-23 18q34 42 78.5 65.5t84.5 23.5zM126 683q14 51 48 82.5t71 31.5q17 0 34.5 -5.5t35 -12t34.5 -12t34 -5.5q42 0 62 38h24q-17 -52 -51.5 -85t-71.5 -33q-18 0 -34.5 6t-33.5 13.5t-33.5 13.5t-34.5 6q-46 0 -63 -38h-21z" />
    <glyph glyph-name="Imacron" unicode="&#x12a;" horiz-adv-x="392" 
d="M319 728l-83 19l10 23h290l-10 -23l-96 -19l-285 -686l82 -19l-10 -23h-289l10 23l97 19zM289 881l28 71h287l-29 -71h-286z" />
    <glyph glyph-name="imacron" unicode="&#x12b;" horiz-adv-x="340" 
d="M227 540q29 0 47 -12.5t18 -36.5q0 -28 -16 -66l-143 -344q-3 -8 -3 -13q0 -19 20 -19q7 0 15 3.5t20 12.5t29 24.5t41 39.5l20 -12q-47 -60 -98 -93.5t-89 -33.5q-29 0 -47 13.5t-18 42.5q0 13 3.5 29t11.5 36l145 356q5 11 5 19q0 9 -13 9q-18 0 -41.5 -16.5
t-46.5 -45.5l-23 18q34 42 78.5 65.5t84.5 23.5zM138 709l28 71h287l-29 -71h-286z" />
    <glyph glyph-name="Ibreve" unicode="&#x12c;" horiz-adv-x="392" 
d="M319 728l-83 19l10 23h290l-10 -23l-96 -19l-285 -686l82 -19l-10 -23h-289l10 23l97 19zM377 970q1 -31 20.5 -48t58.5 -17q33 0 65.5 15t64.5 50h40q-31 -47 -61 -74.5t-56 -41.5t-48.5 -18.5t-38.5 -4.5q-17 0 -33.5 4.5t-29 14t-20 25.5t-7.5 39q0 25 10 56h35z" />
    <glyph glyph-name="ibreve" unicode="&#x12d;" horiz-adv-x="340" 
d="M227 540q29 0 47 -12.5t18 -36.5q0 -28 -16 -66l-143 -344q-3 -8 -3 -13q0 -19 20 -19q7 0 15 3.5t20 12.5t29 24.5t41 39.5l20 -12q-47 -60 -98 -93.5t-89 -33.5q-29 0 -47 13.5t-18 42.5q0 13 3.5 29t11.5 36l145 356q5 11 5 19q0 9 -13 9q-18 0 -41.5 -16.5
t-46.5 -45.5l-23 18q34 42 78.5 65.5t84.5 23.5zM229 790q1 -31 20.5 -48t58.5 -17q33 0 65.5 15t64.5 50h40q-31 -47 -61 -74.5t-56 -41.5t-48.5 -18.5t-38.5 -4.5q-17 0 -33.5 4.5t-29 14t-20 25.5t-7.5 39q0 25 10 56h35z" />
    <glyph glyph-name="Iogonek" unicode="&#x12e;" horiz-adv-x="392" 
d="M74 -198q-69 -58 -137 -58q-67 0 -67 52q0 45 51 99t139 105h-132l10 23l97 19l284 686l-83 19l10 23h290l-10 -23l-96 -19l-285 -686l82 -19l-10 -23h-113q-66 -52 -101.5 -97t-35.5 -75q0 -29 37 -29q14 0 28 4.5t37 16.5z" />
    <glyph glyph-name="iogonek" unicode="&#x12f;" horiz-adv-x="340" 
d="M109 -198q-69 -58 -137 -58q-67 0 -67 52q0 42 46.5 94t126.5 101q-26 2 -40.5 15.5t-14.5 39.5q0 13 3.5 29t11.5 36l145 356q5 11 5 19q0 9 -13 9q-18 0 -41.5 -16.5t-46.5 -45.5l-23 18q34 42 78.5 65.5t84.5 23.5q29 0 47 -12.5t18 -36.5q0 -28 -16 -66l-143 -344
q-3 -8 -3 -13q0 -19 20 -19q7 0 15 3.5t20 12.5t29 24.5t41 39.5l20 -12q-31 -39 -65 -67.5t-63 -47.5q-75 -47 -110 -95t-35 -79q0 -29 37 -29q14 0 28 4.5t37 16.5zM307 780q26 0 45 -16t19 -39q0 -14 -6.5 -26.5t-17 -22t-24 -15.5t-27.5 -6q-29 0 -45.5 15.5t-16.5 41.5
q0 28 22 48t51 20z" />
    <glyph glyph-name="Idotaccent" unicode="&#x130;" horiz-adv-x="392" 
d="M319 728l-83 19l10 23h290l-10 -23l-96 -19l-285 -686l82 -19l-10 -23h-289l10 23l97 19zM453 970q26 0 45 -16t19 -39q0 -14 -6.5 -26.5t-17 -22t-24 -15.5t-27.5 -6q-29 0 -45.5 15.5t-16.5 41.5q0 28 22 48t51 20z" />
    <glyph glyph-name="dotlessi" unicode="&#x131;" horiz-adv-x="340" 
d="M227 540q29 0 47 -12.5t18 -36.5q0 -28 -16 -66l-143 -344q-3 -8 -3 -13q0 -19 20 -19q7 0 15 3.5t20 12.5t29 24.5t41 39.5l20 -12q-47 -60 -98 -93.5t-89 -33.5q-29 0 -47 13.5t-18 42.5q0 13 3.5 29t11.5 36l145 356q5 11 5 19q0 9 -13 9q-18 0 -41.5 -16.5
t-46.5 -45.5l-23 18q34 42 78.5 65.5t84.5 23.5z" />
    <glyph glyph-name="IJ" unicode="&#x132;" horiz-adv-x="772" 
d="M319 728l-83 19l10 23h290l-10 -23l-96 -19l-285 -686l82 -19l-10 -23h-289l10 23l97 19zM507 -27q-22 -53 -52 -95.5t-65.5 -72t-74.5 -45.5t-80 -16q-55 0 -87 23.5t-32 55.5q0 24 15.5 37t35.5 13q24 0 34 -14t16.5 -30.5t15 -30.5t31.5 -14q16 0 30 9t29 31t32 58.5
t40 90.5l315 755l-83 19l10 23h290l-10 -23l-96 -19z" />
    <glyph glyph-name="ij" unicode="&#x133;" horiz-adv-x="646" 
d="M307 780q26 0 45 -16t19 -39q0 -14 -6.5 -26.5t-17 -22t-24 -15.5t-27.5 -6q-29 0 -45.5 15.5t-16.5 41.5q0 28 22 48t51 20zM227 540q29 0 47 -12.5t18 -36.5q0 -28 -16 -66l-143 -344q-3 -8 -3 -13q0 -19 20 -19q7 0 15 3.5t20 12.5t29 24.5t41 39.5l20 -12
q-47 -60 -98 -93.5t-89 -33.5q-29 0 -47 13.5t-18 42.5q0 13 3.5 29t11.5 36l145 356q5 11 5 19q0 9 -13 9q-18 0 -41.5 -16.5t-46.5 -45.5l-23 18q34 42 78.5 65.5t84.5 23.5zM561 540q32 0 47.5 -12.5t15.5 -35.5q-1 -27 -25 -98.5t-78 -190.5l-127 -284
q-38 -85 -95.5 -130t-132.5 -45q-51 0 -84 21t-33 56q0 47 46 47q26 0 36 -14t16 -30.5t15 -30.5t33 -14q15 0 29.5 9.5t30 31.5t33 59t39.5 93l110 280q24 63 39.5 103t24.5 65t12.5 38t3.5 21q0 13 -14 13q-36 0 -83 -59l-21 18q36 43 78.5 66t83.5 23zM640 780
q27 0 45 -17t18 -41q0 -26 -22 -46.5t-52 -20.5q-28 0 -44 16.5t-16 40.5q0 28 21 48t50 20z" />
    <glyph glyph-name="Jcircumflex" unicode="&#x134;" horiz-adv-x="380" 
d="M115 -27q-22 -53 -52 -95.5t-65.5 -72t-74.5 -45.5t-80 -16q-55 0 -87 23.5t-32 55.5q0 24 15.5 37t35.5 13q24 0 34 -14t16.5 -30.5t15 -30.5t31.5 -14q16 0 30 9t29 31t32 58.5t40 90.5l315 755l-83 19l10 23h290l-10 -23l-96 -19zM457 970q17 0 26.5 -6.5t17.5 -20.5
l54 -96l-26 -17l-91 68l-165 -68l-12 17l132 96q18 13 31.5 20t32.5 7z" />
    <glyph glyph-name="jcircumflex" unicode="&#x135;" horiz-adv-x="305" 
d="M221 540q32 0 47.5 -12.5t15.5 -35.5q-1 -27 -25 -98.5t-78 -190.5l-127 -284q-38 -85 -95.5 -130t-132.5 -45q-51 0 -84 21t-33 56q0 47 46 47q26 0 36 -14t16 -30.5t15 -30.5t33 -14q15 0 29.5 9.5t30 31.5t33 59t39.5 93l110 280q24 63 39.5 103t24.5 65t12.5 38
t3.5 21q0 13 -14 13q-36 0 -83 -59l-21 18q36 43 78.5 66t83.5 23zM345 857q22 0 30 -7.5t10 -21.5l16 -188l-23 -12l-70 141l-183 -141l-19 12l171 188q26 29 68 29z" />
    <glyph glyph-name="Kcommaaccent" unicode="&#x136;" horiz-adv-x="743" 
d="M429 729l-134 -322l315 248q45 36 45 55q0 15 -16.5 25t-52.5 12l9 23h259l-14 -28q-22 -2 -39.5 -5.5t-32.5 -9.5t-30 -15.5t-31 -22.5l-290 -231l157 -416l88 -19l-7 -23h-181l-139 392l-69 -54l-123 -296l119 -19l-10 -23h-316l9 23l88 19l286 686l-78 19l9 23h270
l-10 -23zM283 -149q-29 8 -29 44q0 28 16 44.5t50 16.5q50 0 50 -56q0 -38 -32 -76.5t-91 -70.5l-15 19q31 15 52.5 35t21.5 32q0 5 -4.5 7t-18.5 5z" />
    <glyph glyph-name="kcommaaccent" unicode="&#x137;" horiz-adv-x="560" 
d="M220 820h191l-154 -358h4q31 35 77.5 56.5t93.5 21.5q46 0 70 -19.5t24 -55.5q0 -29 -21 -60t-57 -59.5t-83.5 -52.5t-101.5 -39l68 -143q21 -44 33.5 -61t28.5 -17q32 0 68 47l20 -11q-20 -34 -56.5 -56.5t-73.5 -22.5q-36 0 -63 24t-52 76l-69 145h-8l-95 -235h-100
l333 793l-75 12zM295 453q-37 -32 -65 -75t-54 -110q50 3 95 20t79.5 43.5t55 59t20.5 65.5q0 40 -38 40q-23 0 -45.5 -11t-47.5 -32zM118 -149q-29 8 -29 44q0 28 16 44.5t50 16.5q50 0 50 -56q0 -38 -32 -76.5t-91 -70.5l-15 19q31 15 52.5 35t21.5 32q0 5 -4.5 7t-18.5 5
z" />
    <glyph glyph-name="kgreenlandic" unicode="&#x138;" horiz-adv-x="576" 
d="M113 530h191l-31 -68h4q31 35 77.5 56.5t93.5 21.5q46 0 70 -19.5t24 -55.5q0 -29 -21 -60t-57 -59.5t-83.5 -52.5t-101.5 -39l68 -143q21 -44 33.5 -61t28.5 -17q32 0 68 47l20 -11q-20 -34 -56.5 -56.5t-73.5 -22.5q-36 0 -63 24t-52 76l-69 145h-8l-95 -235h-100
l210 503l-75 12zM311 453q-37 -32 -65 -75t-54 -110q50 3 95 20t79.5 43.5t55 59t20.5 65.5q0 40 -38 40q-23 0 -45.5 -11t-47.5 -32z" />
    <glyph glyph-name="Lacute" unicode="&#x139;" horiz-adv-x="695" 
d="M-68 0l10 23l92 19l284 686l-78 19l10 23h286l-10 -23l-101 -22l-282 -685h318q41 48 77 101t65 101h34l-96 -242h-609zM350 847l144 107q22 16 44 16q17 0 30 -12t13 -31q0 -17 -14.5 -31.5t-53.5 -25.5l-152 -44z" />
    <glyph glyph-name="lacute" unicode="&#x13a;" horiz-adv-x="316" 
d="M194 770h198l-200 -465q-29 -66 -47 -108t-28 -68t-14 -39.5t-4 -22.5q0 -8 6.5 -13t14.5 -5q6 0 14 3t20.5 11.5t29.5 24t41 41.5l22 -12q-51 -62 -103.5 -94.5t-93.5 -32.5q-24 0 -37.5 16.5t-13.5 45.5q0 9 2 20t7.5 29t16.5 46t28.5 71t42.5 103.5t60 144.5l116 277
l-76 12zM320 847l144 107q22 16 44 16q17 0 30 -12t13 -31q0 -17 -14.5 -31.5t-53.5 -25.5l-152 -44z" />
    <glyph glyph-name="Lcommaaccent" unicode="&#x13b;" horiz-adv-x="695" 
d="M-68 0l10 23l92 19l284 686l-78 19l10 23h286l-10 -23l-101 -22l-282 -685h318q41 48 77 101t65 101h34l-96 -242h-609zM221 -149q-29 8 -29 44q0 28 16 44.5t50 16.5q50 0 50 -56q0 -38 -32 -76.5t-91 -70.5l-15 19q31 15 52.5 35t21.5 32q0 5 -4.5 7t-18.5 5z" />
    <glyph glyph-name="lcommaaccent" unicode="&#x13c;" horiz-adv-x="316" 
d="M215 820h198l-221 -515q-29 -66 -47 -108t-28 -68t-14 -39.5t-4 -22.5q0 -8 6.5 -13t14.5 -5q6 0 14 3t20.5 11.5t29.5 24t41 41.5l22 -12q-51 -62 -103.5 -94.5t-93.5 -32.5q-24 0 -37.5 16.5t-13.5 45.5q0 9 2 20t7.5 29t16.5 46t28.5 71t42.5 103.5t60 144.5l137 327
l-76 12zM-31 -159q-29 8 -29 44q0 28 16 44.5t50 16.5q50 0 50 -56q0 -38 -32 -76.5t-91 -70.5l-15 19q31 15 52.5 35t21.5 32q0 5 -4.5 7t-18.5 5z" />
    <glyph glyph-name="Lcaron" unicode="&#x13d;" horiz-adv-x="695" 
d="M-68 0l10 23l92 19l284 686l-78 19l10 23h286l-10 -23l-101 -22l-282 -685h318q41 48 77 101t65 101h34l-96 -242h-609zM426 830q-17 0 -26.5 6.5t-17.5 20.5l-54 96l26 17l91 -68l165 68l12 -17l-132 -96q-18 -13 -31.5 -20t-32.5 -7z" />
    <glyph glyph-name="lcaron" unicode="&#x13e;" horiz-adv-x="316" 
d="M215 820h198l-221 -515q-29 -66 -47 -108t-28 -68t-14 -39.5t-4 -22.5q0 -8 6.5 -13t14.5 -5q6 0 14 3t20.5 11.5t29.5 24t41 41.5l22 -12q-51 -62 -103.5 -94.5t-93.5 -32.5q-24 0 -37.5 16.5t-13.5 45.5q0 9 2 20t7.5 29t16.5 46t28.5 71t42.5 103.5t60 144.5l137 327
l-76 12zM437 642l52 169q8 25 20.5 35.5t29.5 10.5q23 0 32.5 -11.5t9.5 -28.5q0 -10 -4 -20t-15 -24l-100 -131h-25z" />
    <glyph glyph-name="Ldot" unicode="&#x13f;" horiz-adv-x="695" 
d="M-68 0l10 23l92 19l284 686l-78 19l10 23h286l-10 -23l-101 -22l-282 -685h318q41 48 77 101t65 101h34l-96 -242h-609zM462 425q26 0 45 -16t19 -39q0 -14 -6.5 -26.5t-17 -22t-24 -15.5t-27.5 -6q-29 0 -45.5 15.5t-16.5 41.5q0 28 22 48t51 20z" />
    <glyph glyph-name="ldot" unicode="&#x140;" horiz-adv-x="453" 
d="M215 820h198l-221 -515q-29 -66 -47 -108t-28 -68t-14 -39.5t-4 -22.5q0 -8 6.5 -13t14.5 -5q6 0 14 3t20.5 11.5t29.5 24t41 41.5l22 -12q-51 -62 -103.5 -94.5t-93.5 -32.5q-24 0 -37.5 16.5t-13.5 45.5q0 9 2 20t7.5 29t16.5 46t28.5 71t42.5 103.5t60 144.5l137 327
l-76 12zM376 384q30 0 52.5 -18.5t22.5 -46.5q0 -16 -7.5 -30.5t-20 -26t-28.5 -18.5t-32 -7q-34 0 -53.5 18.5t-19.5 48.5q0 16 7 31t19 25.5t27.5 17t32.5 6.5z" />
    <glyph glyph-name="Lslash" unicode="&#x141;" horiz-adv-x="697" 
d="M-66 0l10 23l92 19l118 284l-111 -52v48l136 64l141 342l-78 19l10 23h286l-10 -23l-101 -22l-113 -275l125 60l-2 -49l-148 -70l-144 -351h318q41 48 77 101t65 101h34l-96 -242h-609z" />
    <glyph glyph-name="lslash" unicode="&#x142;" horiz-adv-x="351" 
d="M245 820h198l-157 -366l117 56l-2 -49l-141 -67l-38 -89q-29 -66 -47 -108t-28 -68t-14 -39.5t-4 -22.5q0 -8 6.5 -13t14.5 -5q6 0 14 3t20.5 11.5t29.5 24t41 41.5l22 -12q-51 -62 -103.5 -94.5t-93.5 -32.5q-24 0 -37.5 16.5t-13.5 45.5q0 11 3.5 26.5t14 45t30.5 79
t53 129.5l-123 -58v48l148 70l168 401l-76 12z" />
    <glyph glyph-name="Nacute" unicode="&#x143;" horiz-adv-x="815" 
d="M353 690h-4l-269 -648l82 -19l-10 -23h-227l10 23l97 19l284 686l-83 19l10 23h212l124 -599h4l231 557l-83 19l10 23h228l-10 -23l-96 -19l-307 -738h-58zM544 847l144 107q22 16 44 16q17 0 30 -12t13 -31q0 -17 -14.5 -31.5t-53.5 -25.5l-152 -44z" />
    <glyph glyph-name="nacute" unicode="&#x144;" horiz-adv-x="629" 
d="M246 540q26 0 37 -9.5t11 -30.5q0 -20 -10 -46.5t-34 -71.5l4 -2q32 42 61 72.5t56 49.5t53.5 28t54.5 9q91 0 91 -87q0 -42 -25 -92l-117 -239q-9 -18 -14.5 -34t-5.5 -24q0 -14 12 -14q17 0 48 23.5t69 66.5l21 -15q-107 -134 -201 -134q-59 0 -59 53q0 21 9.5 50.5
t26.5 64.5l136 269q5 11 9 24t4 24q0 30 -32 30q-26 0 -58.5 -23.5t-68 -65t-72 -98.5t-68.5 -124l-93 -194h-97l192 446q11 27 11 34q0 15 -14 15q-17 0 -46 -23.5t-60 -61.5l-20 16q38 53 89.5 83.5t99.5 30.5zM407 642l116 171q29 44 63 44q21 0 35 -12t14 -30
q0 -15 -11.5 -30t-38.5 -35l-162 -119z" />
    <glyph glyph-name="Ncommaaccent" unicode="&#x145;" horiz-adv-x="815" 
d="M353 690h-4l-269 -648l82 -19l-10 -23h-227l10 23l97 19l284 686l-83 19l10 23h212l124 -599h4l231 557l-83 19l10 23h228l-10 -23l-96 -19l-307 -738h-58zM257 -159q-29 8 -29 44q0 28 16 44.5t50 16.5q50 0 50 -56q0 -38 -32 -76.5t-91 -70.5l-15 19q31 15 52.5 35
t21.5 32q0 5 -4.5 7t-18.5 5z" />
    <glyph glyph-name="ncommaaccent" unicode="&#x146;" horiz-adv-x="629" 
d="M246 540q26 0 37 -9.5t11 -30.5q0 -20 -10 -46.5t-34 -71.5l4 -2q32 42 61 72.5t56 49.5t53.5 28t54.5 9q91 0 91 -87q0 -42 -25 -92l-117 -239q-9 -18 -14.5 -34t-5.5 -24q0 -14 12 -14q17 0 48 23.5t69 66.5l21 -15q-107 -134 -201 -134q-59 0 -59 53q0 21 9.5 50.5
t26.5 64.5l136 269q5 11 9 24t4 24q0 30 -32 30q-26 0 -58.5 -23.5t-68 -65t-72 -98.5t-68.5 -124l-93 -194h-97l192 446q11 27 11 34q0 15 -14 15q-17 0 -46 -23.5t-60 -61.5l-20 16q38 53 89.5 83.5t99.5 30.5zM151 -149q-29 8 -29 44q0 28 16 44.5t50 16.5q50 0 50 -56
q0 -38 -32 -76.5t-91 -70.5l-15 19q31 15 52.5 35t21.5 32q0 5 -4.5 7t-18.5 5z" />
    <glyph glyph-name="Ncaron" unicode="&#x147;" horiz-adv-x="815" 
d="M353 690h-4l-269 -648l82 -19l-10 -23h-227l10 23l97 19l284 686l-83 19l10 23h212l124 -599h4l231 557l-83 19l10 23h228l-10 -23l-96 -19l-307 -738h-58zM612 830q-17 0 -26.5 6.5t-17.5 20.5l-54 96l26 17l91 -68l165 68l12 -17l-132 -96q-18 -13 -31.5 -20t-32.5 -7z
" />
    <glyph glyph-name="ncaron" unicode="&#x148;" horiz-adv-x="629" 
d="M246 540q26 0 37 -9.5t11 -30.5q0 -20 -10 -46.5t-34 -71.5l4 -2q32 42 61 72.5t56 49.5t53.5 28t54.5 9q91 0 91 -87q0 -42 -25 -92l-117 -239q-9 -18 -14.5 -34t-5.5 -24q0 -14 12 -14q17 0 48 23.5t69 66.5l21 -15q-107 -134 -201 -134q-59 0 -59 53q0 21 9.5 50.5
t26.5 64.5l136 269q5 11 9 24t4 24q0 30 -32 30q-26 0 -58.5 -23.5t-68 -65t-72 -98.5t-68.5 -124l-93 -194h-97l192 446q11 27 11 34q0 15 -14 15q-17 0 -46 -23.5t-60 -61.5l-20 16q38 53 89.5 83.5t99.5 30.5zM440 628q-22 0 -30 7.5t-10 21.5l-16 188l23 12l70 -141
l183 141l19 -12l-171 -188q-26 -29 -68 -29z" />
    <glyph glyph-name="napostrophe" unicode="&#x149;" horiz-adv-x="792" 
d="M409 540q26 0 37 -9.5t11 -30.5q0 -20 -10 -46.5t-34 -71.5l4 -2q32 42 61 72.5t56 49.5t53.5 28t54.5 9q91 0 91 -87q0 -42 -25 -92l-117 -239q-9 -18 -14.5 -34t-5.5 -24q0 -14 12 -14q17 0 48 23.5t69 66.5l21 -15q-107 -134 -201 -134q-59 0 -59 53q0 21 9.5 50.5
t26.5 64.5l136 269q5 11 9 24t4 24q0 30 -32 30q-26 0 -58.5 -23.5t-68 -65t-72 -98.5t-68.5 -124l-93 -194h-97l192 446q11 27 11 34q0 15 -14 15q-17 0 -46 -23.5t-60 -61.5l-20 16q38 53 89.5 83.5t99.5 30.5zM258 752q-39 9 -39 55q0 23 16.5 36.5t45.5 13.5
q55 0 55 -64q0 -42 -29 -85t-83 -79l-17 19q30 20 52.5 46.5t22.5 43.5q0 7 -3.5 9t-20.5 5z" />
    <glyph glyph-name="Eng" unicode="&#x14a;" horiz-adv-x="815" 
d="M306 -216q17 0 32.5 8.5t32 30.5t35 58t41.5 92l36 87l-130 630h-4l-269 -648l82 -19l-10 -23h-227l10 23l97 19l284 686l-83 19l10 23h212l124 -599h4l231 557l-83 19l10 23h228l-10 -23l-96 -19l-307 -738q-50 -120 -123.5 -183t-155.5 -63q-55 0 -87 23.5t-32 55.5
q0 24 15.5 37t35.5 13q24 0 34 -14t16.5 -30.5t15 -30.5t31.5 -14z" />
    <glyph glyph-name="eng" unicode="&#x14b;" horiz-adv-x="597" 
d="M470 427q5 11 9 24t4 24q0 30 -32 30q-26 0 -58.5 -23.5t-68 -65t-72 -98.5t-68.5 -124l-93 -194h-97l192 446q5 13 8 21t3 14q0 5 -3 9.5t-11 4.5q-17 0 -46 -23.5t-60 -61.5l-20 16q38 53 89.5 83.5t99.5 30.5q26 0 37 -9.5t11 -30.5q0 -20 -10 -46.5t-34 -71.5l4 -2
q32 42 61 72.5t56 49.5t53.5 28t54.5 9q91 0 91 -86q0 -23 -6.5 -45t-18.5 -48l-204 -441q-39 -85 -96 -130t-132 -45q-51 0 -84 20.5t-33 58.5q0 20 11.5 32.5t34.5 12.5q26 0 36 -14t16.5 -30.5t14.5 -30.5t31 -14q16 0 30 9.5t29.5 32t33 59.5t41.5 92z" />
    <glyph glyph-name="Omacron" unicode="&#x14c;" horiz-adv-x="804" 
d="M304 -10q-109 0 -169 64t-60 182q0 68 19.5 134.5t54 127t81.5 112.5t102 89.5t116 59t123 21.5q110 0 170 -65t60 -184q0 -68 -19.5 -134.5t-54 -126.5t-81.5 -111.5t-102 -89t-116.5 -58.5t-123.5 -21zM319 37q46 0 91 21t86.5 58t77 87.5t61 109t40.5 123t15 129.5
q0 171 -125 171q-46 0 -91.5 -21t-87 -58t-77 -87.5t-62 -109t-41.5 -122.5t-15 -128q0 -173 128 -173zM471 881l28 71h287l-29 -71h-286z" />
    <glyph glyph-name="omacron" unicode="&#x14d;" horiz-adv-x="557" 
d="M161 -10q-72 0 -110 44t-38 121q0 44 14.5 90t40 89t59.5 80.5t73.5 65.5t81.5 44t84 16q72 0 110.5 -44t38.5 -120q0 -68 -32 -136.5t-83 -124t-114 -90.5t-125 -35zM378 505q-27 0 -57.5 -19.5t-61 -51.5t-58.5 -74t-49.5 -87t-34.5 -90.5t-13 -84.5q0 -36 10.5 -54.5
t34.5 -18.5q25 0 55 20t61 53.5t60 77t51.5 89t36 90.5t13.5 82q0 34 -11 51t-37 17zM288 709l28 71h287l-29 -71h-286z" />
    <glyph glyph-name="Obreve" unicode="&#x14e;" horiz-adv-x="804" 
d="M304 -10q-109 0 -169 64t-60 182q0 68 19.5 134.5t54 127t81.5 112.5t102 89.5t116 59t123 21.5q110 0 170 -65t60 -184q0 -68 -19.5 -134.5t-54 -126.5t-81.5 -111.5t-102 -89t-116.5 -58.5t-123.5 -21zM319 37q46 0 91 21t86.5 58t77 87.5t61 109t40.5 123t15 129.5
q0 171 -125 171q-46 0 -91.5 -21t-87 -58t-77 -87.5t-62 -109t-41.5 -122.5t-15 -128q0 -173 128 -173zM602 970q1 -31 20.5 -48t58.5 -17q33 0 65.5 15t64.5 50h40q-31 -47 -61 -74.5t-56 -41.5t-48.5 -18.5t-38.5 -4.5q-17 0 -33.5 4.5t-29 14t-20 25.5t-7.5 39
q0 25 10 56h35z" />
    <glyph glyph-name="obreve" unicode="&#x14f;" horiz-adv-x="557" 
d="M161 -10q-72 0 -110 44t-38 121q0 44 14.5 90t40 89t59.5 80.5t73.5 65.5t81.5 44t84 16q72 0 110.5 -44t38.5 -120q0 -68 -32 -136.5t-83 -124t-114 -90.5t-125 -35zM378 505q-27 0 -57.5 -19.5t-61 -51.5t-58.5 -74t-49.5 -87t-34.5 -90.5t-13 -84.5q0 -36 10.5 -54.5
t34.5 -18.5q25 0 55 20t61 53.5t60 77t51.5 89t36 90.5t13.5 82q0 34 -11 51t-37 17zM391 790q1 -31 20.5 -48t58.5 -17q33 0 65.5 15t64.5 50h40q-31 -47 -61 -74.5t-56 -41.5t-48.5 -18.5t-38.5 -4.5q-17 0 -33.5 4.5t-29 14t-20 25.5t-7.5 39q0 25 10 56h35z" />
    <glyph glyph-name="Ohungarumlaut" unicode="&#x150;" horiz-adv-x="804" 
d="M304 -10q-109 0 -169 64t-60 182q0 68 19.5 134.5t54 127t81.5 112.5t102 89.5t116 59t123 21.5q110 0 170 -65t60 -184q0 -68 -19.5 -134.5t-54 -126.5t-81.5 -111.5t-102 -89t-116.5 -58.5t-123.5 -21zM319 37q46 0 91 21t86.5 58t77 87.5t61 109t40.5 123t15 129.5
q0 171 -125 171q-46 0 -91.5 -21t-87 -58t-77 -87.5t-62 -109t-41.5 -122.5t-15 -128q0 -173 128 -173zM669 847l145 105q11 8 21.5 12.5t21.5 4.5q17 0 30 -13t13 -33q0 -17 -14.5 -30.5t-54.5 -24.5l-152 -42zM470 848l145 105q11 8 21.5 12.5t21.5 4.5q17 0 30.5 -13
t13.5 -31q0 -17 -14.5 -31.5t-54.5 -25.5l-153 -42z" />
    <glyph glyph-name="ohungarumlaut" unicode="&#x151;" horiz-adv-x="557" 
d="M161 -10q-72 0 -110 44t-38 121q0 44 14.5 90t40 89t59.5 80.5t73.5 65.5t81.5 44t84 16q72 0 110.5 -44t38.5 -120q0 -68 -32 -136.5t-83 -124t-114 -90.5t-125 -35zM378 505q-27 0 -57.5 -19.5t-61 -51.5t-58.5 -74t-49.5 -87t-34.5 -90.5t-13 -84.5q0 -36 10.5 -54.5
t34.5 -18.5q25 0 55 20t61 53.5t60 77t51.5 89t36 90.5t13.5 82q0 34 -11 51t-37 17zM321 642l88 171q22 44 56 44q20 0 35.5 -14t15.5 -34q0 -14 -9.5 -27.5t-29.5 -31.5l-138 -119zM481 642l93 171q24 44 56 44q20 0 35.5 -14t15.5 -34q0 -14 -9 -28t-30 -31l-143 -119z
" />
    <glyph glyph-name="OE" unicode="&#x152;" horiz-adv-x="1122" 
d="M1139 770l8 -220h-27q-11 58 -24.5 101.5t-33.5 78.5h-226l-124 -304h168q49 57 84 114h29l-113 -274h-29q8 25 11.5 53.5t5.5 66.5h-174l-142 -346h323q38 45 72 92t65 98h29l-91 -230h-533q-47 -10 -96 -10q-118 0 -183 65t-65 183q0 70 21 137t58 127t88 111t111 88
t127 58t137 21q26 0 47 -2.5t41 -7.5h436zM583 736q-72 0 -142.5 -46t-126.5 -120.5t-90.5 -168t-34.5 -189.5q0 -175 145 -175q57 0 100 28l270 613q-37 58 -121 58z" />
    <glyph glyph-name="oe" unicode="&#x153;" horiz-adv-x="829" 
d="M742 540q45 0 70.5 -18.5t25.5 -50.5t-25 -62.5t-70 -57t-107.5 -48t-137.5 -34.5q-8 -14 -15 -29q-2 -4 -2 -5q-20 -42 -30 -78t-10 -65q0 -67 58 -67q23 0 50 10t54 27.5t53.5 42t48.5 54.5l22 -14q-123 -155 -253 -155q-96 0 -122 80q-45 -37 -94 -58.5t-97 -21.5
q-72 0 -110 44t-38 121q0 44 14.5 90t40 89t59.5 80.5t73.5 65.5t81.5 44t84 16q57 0 93 -28.5t49 -79.5q54 48 115 78t119 30zM378 505q-27 0 -57.5 -19.5t-61 -51.5t-58.5 -74t-49.5 -87t-34.5 -90.5t-13 -84.5q0 -36 10.5 -54.5t34.5 -18.5q25 0 55 20t61 53.5t60 77
t51.5 89t36 90.5t13.5 82q0 34 -11 51t-37 17zM520 302q46 9 89 28t76 43.5t53 52t20 53.5q0 30 -32 30q-21 0 -44.5 -11t-46.5 -31t-44.5 -47t-38.5 -59z" />
    <glyph glyph-name="Racute" unicode="&#x154;" horiz-adv-x="740" 
d="M270 354l-127 -312l119 -19l-10 -23h-316l9 23l88 19l286 686l-78 19l9 23h240q117 0 172 -42t55 -121q0 -49 -19 -90.5t-53.5 -73.5t-84 -53.5t-110.5 -30.5l114 -317l108 -19l-7 -23h-201l-117 354h-77zM382 398q48 0 90.5 17t74.5 45.5t50.5 66.5t18.5 81q0 59 -32 90
t-94 31h-61l-140 -331h93zM480 847l144 107q22 16 44 16q17 0 30 -12t13 -31q0 -17 -14.5 -31.5t-53.5 -25.5l-152 -44z" />
    <glyph glyph-name="racute" unicode="&#x155;" horiz-adv-x="455" 
d="M438 540q32 0 53.5 -15t21.5 -41q0 -20 -11 -32.5t-33 -12.5q-15 0 -23 5.5t-15 12.5t-15 12.5t-22 5.5q-43 0 -93.5 -70t-118.5 -211l-93 -194h-97l193 446q5 11 8 20.5t3 16.5q0 12 -13 12q-17 0 -47.5 -23.5t-60.5 -61.5l-19 16q40 51 88.5 82.5t90.5 31.5
q21 0 34 -12.5t13 -38.5q0 -20 -9 -43t-34 -64l5 -2q52 85 98.5 122.5t95.5 37.5zM339 642l116 171q29 44 63 44q21 0 35 -12t14 -30q0 -15 -11.5 -30t-38.5 -35l-162 -119z" />
    <glyph glyph-name="Rcommaaccent" unicode="&#x156;" horiz-adv-x="740" 
d="M270 354l-127 -312l119 -19l-10 -23h-316l9 23l88 19l286 686l-78 19l9 23h240q117 0 172 -42t55 -121q0 -49 -19 -90.5t-53.5 -73.5t-84 -53.5t-110.5 -30.5l114 -317l108 -19l-7 -23h-201l-117 354h-77zM382 398q48 0 90.5 17t74.5 45.5t50.5 66.5t18.5 81q0 59 -32 90
t-94 31h-61l-140 -331h93zM257 -159q-29 8 -29 44q0 28 16 44.5t50 16.5q50 0 50 -56q0 -38 -32 -76.5t-91 -70.5l-15 19q31 15 52.5 35t21.5 32q0 5 -4.5 7t-18.5 5z" />
    <glyph glyph-name="rcommaaccent" unicode="&#x157;" horiz-adv-x="455" 
d="M438 540q32 0 53.5 -15t21.5 -41q0 -20 -11 -32.5t-33 -12.5q-15 0 -23 5.5t-15 12.5t-15 12.5t-22 5.5q-43 0 -93.5 -70t-118.5 -211l-93 -194h-97l193 446q5 11 8 20.5t3 16.5q0 12 -13 12q-17 0 -47.5 -23.5t-60.5 -61.5l-19 16q40 51 88.5 82.5t90.5 31.5
q21 0 34 -12.5t13 -38.5q0 -20 -9 -43t-34 -64l5 -2q52 85 98.5 122.5t95.5 37.5zM-11 -149q-29 8 -29 44q0 28 16 44.5t50 16.5q50 0 50 -56q0 -38 -32 -76.5t-91 -70.5l-15 19q31 15 52.5 35t21.5 32q0 5 -4.5 7t-18.5 5z" />
    <glyph glyph-name="Rcaron" unicode="&#x158;" horiz-adv-x="740" 
d="M270 354l-127 -312l119 -19l-10 -23h-316l9 23l88 19l286 686l-78 19l9 23h240q117 0 172 -42t55 -121q0 -49 -19 -90.5t-53.5 -73.5t-84 -53.5t-110.5 -30.5l114 -317l108 -19l-7 -23h-201l-117 354h-77zM382 398q48 0 90.5 17t74.5 45.5t50.5 66.5t18.5 81q0 59 -32 90
t-94 31h-61l-140 -331h93zM533 830q-17 0 -26.5 6.5t-17.5 20.5l-54 96l26 17l91 -68l165 68l12 -17l-132 -96q-18 -13 -31.5 -20t-32.5 -7z" />
    <glyph glyph-name="rcaron" unicode="&#x159;" horiz-adv-x="455" 
d="M438 540q32 0 53.5 -15t21.5 -41q0 -20 -11 -32.5t-33 -12.5q-15 0 -23 5.5t-15 12.5t-15 12.5t-22 5.5q-43 0 -93.5 -70t-118.5 -211l-93 -194h-97l193 446q5 11 8 20.5t3 16.5q0 12 -13 12q-17 0 -47.5 -23.5t-60.5 -61.5l-19 16q40 51 88.5 82.5t90.5 31.5
q21 0 34 -12.5t13 -38.5q0 -20 -9 -43t-34 -64l5 -2q52 85 98.5 122.5t95.5 37.5zM362 628q-22 0 -30 7.5t-10 21.5l-16 188l23 12l70 -141l183 141l19 -12l-171 -188q-26 -29 -68 -29z" />
    <glyph glyph-name="Sacute" unicode="&#x15a;" horiz-adv-x="589" 
d="M69 261h29q-13 -52 -13 -96q0 -135 137 -135q77 0 120.5 39t43.5 108q0 40 -14 71t-35 57.5t-45.5 51.5t-45.5 53.5t-35 62.5t-14 79q0 50 18.5 92t51.5 72t78.5 47t100.5 17q49 0 85.5 -15t65.5 -47l46 52h32l-86 -220h-30q5 19 9 44t4 43q0 50 -31 76.5t-91 26.5
q-72 0 -110 -38.5t-38 -110.5q0 -21 3 -37t11 -32.5t23.5 -36t39.5 -47.5q34 -39 56 -69t35 -55t18.5 -47.5t5.5 -47.5q0 -49 -21 -91t-58.5 -72.5t-88 -48t-110.5 -17.5q-128 0 -171 82l-51 -72h-31zM413 847l144 107q22 16 44 16q17 0 30 -12t13 -31q0 -17 -14.5 -31.5
t-53.5 -25.5l-152 -44z" />
    <glyph glyph-name="sacute" unicode="&#x15b;" horiz-adv-x="441" 
d="M281 540q31 0 59 -7.5t49 -20t33.5 -29.5t12.5 -35t-12.5 -29.5t-32.5 -11.5q-39 0 -45 44q-5 37 -16 48.5t-42 11.5q-45 0 -67.5 -24t-22.5 -66q0 -35 19.5 -69.5t43.5 -70t43.5 -71.5t19.5 -74q0 -31 -15 -57.5t-41.5 -46t-62 -31t-76.5 -11.5q-33 0 -62.5 8
t-51.5 21.5t-35 31.5t-13 37q0 18 12.5 29t32.5 11q18 0 27 -8t14 -20t9.5 -25.5t12 -25.5t21 -20t38.5 -8q43 0 68 26t25 65q0 31 -20.5 63.5t-44.5 66.5t-44.5 70.5t-20.5 77.5q0 31 14.5 58.5t39.5 47.5t59 32t72 12zM295 642l116 171q29 44 63 44q21 0 35 -12t14 -30
q0 -15 -11.5 -30t-38.5 -35l-162 -119z" />
    <glyph glyph-name="Scircumflex" unicode="&#x15c;" horiz-adv-x="589" 
d="M69 261h29q-13 -52 -13 -96q0 -135 137 -135q77 0 120.5 39t43.5 108q0 40 -14 71t-35 57.5t-45.5 51.5t-45.5 53.5t-35 62.5t-14 79q0 50 18.5 92t51.5 72t78.5 47t100.5 17q49 0 85.5 -15t65.5 -47l46 52h32l-86 -220h-30q5 19 9 44t4 43q0 50 -31 76.5t-91 26.5
q-72 0 -110 -38.5t-38 -110.5q0 -21 3 -37t11 -32.5t23.5 -36t39.5 -47.5q34 -39 56 -69t35 -55t18.5 -47.5t5.5 -47.5q0 -49 -21 -91t-58.5 -72.5t-88 -48t-110.5 -17.5q-128 0 -171 82l-51 -72h-31zM539 970q17 0 26.5 -6.5t17.5 -20.5l54 -96l-26 -17l-91 68l-165 -68
l-12 17l132 96q18 13 31.5 20t32.5 7z" />
    <glyph glyph-name="scircumflex" unicode="&#x15d;" horiz-adv-x="441" 
d="M281 540q31 0 59 -7.5t49 -20t33.5 -29.5t12.5 -35t-12.5 -29.5t-32.5 -11.5q-39 0 -45 44q-5 37 -16 48.5t-42 11.5q-45 0 -67.5 -24t-22.5 -66q0 -35 19.5 -69.5t43.5 -70t43.5 -71.5t19.5 -74q0 -31 -15 -57.5t-41.5 -46t-62 -31t-76.5 -11.5q-33 0 -62.5 8
t-51.5 21.5t-35 31.5t-13 37q0 18 12.5 29t32.5 11q18 0 27 -8t14 -20t9.5 -25.5t12 -25.5t21 -20t38.5 -8q43 0 68 26t25 65q0 31 -20.5 63.5t-44.5 66.5t-44.5 70.5t-20.5 77.5q0 31 14.5 58.5t39.5 47.5t59 32t72 12zM423 857q22 0 30 -7.5t10 -21.5l16 -188l-23 -12
l-70 141l-183 -141l-19 12l171 188q26 29 68 29z" />
    <glyph glyph-name="uni015E" unicode="&#x15e;" horiz-adv-x="589" 
d="M59 -210q22 -16 52 -16q38 0 63.5 19.5t25.5 50.5q0 34 -42 34q-30 0 -48 -12l-8 13l88 112q-108 8 -145 81l-51 -72h-31l106 261h29q-13 -52 -13 -96q0 -135 137 -135q77 0 120.5 39t43.5 108q0 40 -14 71t-35 57.5t-45.5 51.5t-45.5 53.5t-35 62.5t-14 79q0 50 18.5 92
t51.5 72t78.5 47t100.5 17q49 0 85.5 -15t65.5 -47l46 52h32l-86 -220h-30q5 19 9 44t4 43q0 50 -31 76.5t-91 26.5q-72 0 -110 -38.5t-38 -110.5q0 -21 3 -37t11 -32.5t23.5 -36t39.5 -47.5q34 -39 56 -69t35 -55t18.5 -47.5t5.5 -47.5q0 -48 -20 -88.5t-55 -71t-83.5 -49
t-105.5 -20.5l-36 -48q42 0 65 -18.5t23 -51.5q0 -26 -14 -49t-37.5 -41t-54 -28.5t-64.5 -10.5q-52 0 -70 24z" />
    <glyph glyph-name="uni015F" unicode="&#x15f;" horiz-adv-x="441" 
d="M-33 -210q22 -16 52 -16q38 0 63.5 19.5t25.5 50.5q0 34 -42 34q-30 0 -48 -12l-8 13l89 113q-28 3 -52.5 12t-42.5 22t-28 29t-10 33q0 18 12.5 29t32.5 11q18 0 27 -8t14 -20t9.5 -25.5t12 -25.5t21 -20t38.5 -8q43 0 68 26t25 65q0 31 -20.5 63.5t-44.5 66.5
t-44.5 70.5t-20.5 77.5q0 31 14.5 58.5t39.5 47.5t59 32t72 12q31 0 59 -7.5t49 -20t33.5 -29.5t12.5 -35t-12.5 -29.5t-32.5 -11.5q-39 0 -45 44q-5 37 -16 48.5t-42 11.5q-45 0 -67.5 -24t-22.5 -66q0 -35 19.5 -69.5t43.5 -70t43.5 -71.5t19.5 -74q0 -30 -14 -56
t-39 -45.5t-59 -31.5t-73 -13l-36 -48q42 0 65 -18.5t23 -51.5q0 -26 -14 -49t-37.5 -41t-54 -28.5t-64.5 -10.5q-52 0 -70 24z" />
    <glyph glyph-name="Scaron" unicode="&#x160;" horiz-adv-x="589" 
d="M69 261h29q-13 -52 -13 -96q0 -135 137 -135q77 0 120.5 39t43.5 108q0 40 -14 71t-35 57.5t-45.5 51.5t-45.5 53.5t-35 62.5t-14 79q0 50 18.5 92t51.5 72t78.5 47t100.5 17q49 0 85.5 -15t65.5 -47l46 52h32l-86 -220h-30q5 19 9 44t4 43q0 50 -31 76.5t-91 26.5
q-72 0 -110 -38.5t-38 -110.5q0 -21 3 -37t11 -32.5t23.5 -36t39.5 -47.5q34 -39 56 -69t35 -55t18.5 -47.5t5.5 -47.5q0 -49 -21 -91t-58.5 -72.5t-88 -48t-110.5 -17.5q-128 0 -171 82l-51 -72h-31zM511 830q-17 0 -26.5 6.5t-17.5 20.5l-54 96l26 17l91 -68l165 68
l12 -17l-132 -96q-18 -13 -31.5 -20t-32.5 -7z" />
    <glyph glyph-name="scaron" unicode="&#x161;" horiz-adv-x="441" 
d="M281 540q31 0 59 -7.5t49 -20t33.5 -29.5t12.5 -35t-12.5 -29.5t-32.5 -11.5q-39 0 -45 44q-5 37 -16 48.5t-42 11.5q-45 0 -67.5 -24t-22.5 -66q0 -35 19.5 -69.5t43.5 -70t43.5 -71.5t19.5 -74q0 -31 -15 -57.5t-41.5 -46t-62 -31t-76.5 -11.5q-33 0 -62.5 8
t-51.5 21.5t-35 31.5t-13 37q0 18 12.5 29t32.5 11q18 0 27 -8t14 -20t9.5 -25.5t12 -25.5t21 -20t38.5 -8q43 0 68 26t25 65q0 31 -20.5 63.5t-44.5 66.5t-44.5 70.5t-20.5 77.5q0 31 14.5 58.5t39.5 47.5t59 32t72 12zM322 628q-22 0 -30 7.5t-10 21.5l-16 188l23 12
l70 -141l183 141l19 -12l-171 -188q-26 -29 -68 -29z" />
    <glyph glyph-name="uni0162" unicode="&#x162;" horiz-adv-x="735" 
d="M90 -210q22 -16 52 -16q38 0 63.5 19.5t25.5 50.5q0 34 -42 34q-30 0 -48 -12l-8 13l95 121h-140l10 23l107 19l285 688h-178q-50 -43 -93.5 -90t-75.5 -90h-24l128 220h626l-54 -220h-24q1 11 1 22.5v22.5q0 34 -4 68.5t-15 66.5h-178l-285 -688l102 -19l-10 -23h-137
l-44 -58q42 0 65 -18.5t23 -51.5q0 -26 -14 -49t-37.5 -41t-54 -28.5t-64.5 -10.5q-52 0 -70 24z" />
    <glyph glyph-name="uni0163" unicode="&#x163;" horiz-adv-x="339" 
d="M-89 -210q22 -16 52 -16q38 0 63.5 19.5t25.5 50.5q0 34 -42 34q-30 0 -48 -12l-8 13l89 113q-19 5 -26 19.5t-7 41.5q0 10 2.5 23.5t9.5 35.5t20.5 56t36.5 87l105 243h-83l11 32h86l63 147l107 10l-68 -157h88l-11 -32h-90l-83 -193q-32 -75 -51 -119t-28.5 -67
t-12 -32t-2.5 -14q0 -24 22 -24q15 0 39 19t65 61l20 -12q-43 -54 -87.5 -86t-84.5 -39l-38 -50q42 0 65 -18.5t23 -51.5q0 -26 -14 -49t-37.5 -41t-54 -28.5t-64.5 -10.5q-52 0 -70 24z" />
    <glyph glyph-name="Tcaron" unicode="&#x164;" horiz-adv-x="735" 
d="M490 730h-178q-50 -43 -93.5 -90t-75.5 -90h-24l128 220h626l-54 -220h-24q1 11 1 22.5v22.5q0 34 -4 68.5t-15 66.5h-178l-285 -688l102 -19l-10 -23h-318l10 23l107 19zM575 830q-17 0 -26.5 6.5t-17.5 20.5l-54 96l26 17l91 -68l165 68l12 -17l-132 -96
q-18 -13 -31.5 -20t-32.5 -7z" />
    <glyph glyph-name="tcaron" unicode="&#x165;" horiz-adv-x="340" 
d="M112 530h86l63 147l107 10l-68 -157h88l-11 -32h-90l-83 -193q-32 -75 -51 -119t-28.5 -67t-12 -32t-2.5 -14q0 -24 22 -24q15 0 39 19t65 61l20 -12q-48 -61 -98.5 -94t-94.5 -33q-30 0 -41.5 15t-11.5 48q0 10 2.5 23.5t9.5 35.5t20.5 56t36.5 87l105 243h-83zM451 642
l52 169q8 25 20.5 35.5t29.5 10.5q23 0 32.5 -11.5t9.5 -28.5q0 -10 -4 -20t-15 -24l-100 -131h-25z" />
    <glyph glyph-name="Tbar" unicode="&#x166;" horiz-adv-x="743" 
d="M361 420h-188l18 44h188l111 266h-178q-50 -43 -93.5 -90t-75.5 -90h-24l128 220h626l-54 -220h-24q1 11 1 22.5v22.5q0 34 -4 68.5t-15 66.5h-178l-110 -266h229l-19 -44h-228l-157 -378l102 -19l-10 -23h-318l10 23l107 19z" />
    <glyph glyph-name="tbar" unicode="&#x167;" horiz-adv-x="341" 
d="M113 530h86l63 147l107 10l-68 -157h88l-11 -32h-90l-44 -102h107l-18 -42h-107l-21 -49q-32 -75 -51 -119t-28.5 -67t-12 -32t-2.5 -14q0 -24 22 -24q15 0 39 19t65 61l20 -12q-48 -61 -98.5 -94t-94.5 -33q-30 0 -41.5 15t-11.5 48q0 10 2.5 23.5t9.5 35.5t20.5 56
t36.5 87l43 99h-76l17 42h77l44 102h-83z" />
    <glyph glyph-name="Utilde" unicode="&#x168;" horiz-adv-x="778" 
d="M310 728l-82 19l9 23h285l-10 -23l-96 -20l-191 -458q-14 -32 -21.5 -65.5t-7.5 -59.5q0 -107 144 -107q40 0 73.5 11t63 36.5t56.5 68.5t54 106l203 469l-84 19l11 23h221l-9 -23l-95 -19l-211 -498q-31 -73 -66.5 -119.5t-75 -73.5t-82.5 -37t-89 -10q-106 0 -161 41
t-55 119q0 69 43 170zM488 853q14 51 48 82.5t71 31.5q17 0 34.5 -5.5t35 -12t34.5 -12t34 -5.5q42 0 62 38h24q-17 -52 -51.5 -85t-71.5 -33q-18 0 -34.5 6t-33.5 13.5t-33.5 13.5t-34.5 6q-46 0 -63 -38h-21z" />
    <glyph glyph-name="utilde" unicode="&#x169;" horiz-adv-x="618" 
d="M66 434q45 52 89.5 79t86.5 27q28 0 43.5 -13t15.5 -39q0 -43 -35 -116l-131 -269q-7 -14 -10 -27t-3 -23q0 -14 9 -21t21 -7q24 0 55 23.5t65 64.5t68 98t66 125l91 194h99l-194 -446q-11 -24 -11 -37q0 -6 4.5 -9t9.5 -3q18 0 47 23.5t59 61.5l20 -16q-20 -26 -42 -47
t-43.5 -36t-42 -23t-38.5 -8q-24 0 -40.5 16t-16.5 42q0 18 7 42.5t24 57.5l-5 2q-31 -43 -58.5 -73t-53.5 -49t-51.5 -28t-52.5 -9q-89 0 -89 88q0 39 25 91l117 239q20 40 20 59q0 13 -12 13q-14 0 -37.5 -16.5t-52.5 -46.5zM285 683q14 51 48 82.5t71 31.5
q17 0 34.5 -5.5t35 -12t34.5 -12t34 -5.5q42 0 62 38h24q-17 -52 -51.5 -85t-71.5 -33q-18 0 -34.5 6t-33.5 13.5t-33.5 13.5t-34.5 6q-46 0 -63 -38h-21z" />
    <glyph glyph-name="Umacron" unicode="&#x16a;" horiz-adv-x="778" 
d="M310 728l-82 19l9 23h285l-10 -23l-96 -20l-191 -458q-14 -32 -21.5 -65.5t-7.5 -59.5q0 -107 144 -107q40 0 73.5 11t63 36.5t56.5 68.5t54 106l203 469l-84 19l11 23h221l-9 -23l-95 -19l-211 -498q-31 -73 -66.5 -119.5t-75 -73.5t-82.5 -37t-89 -10q-106 0 -161 41
t-55 119q0 69 43 170zM471 881l28 71h287l-29 -71h-286z" />
    <glyph glyph-name="umacron" unicode="&#x16b;" horiz-adv-x="618" 
d="M66 434q45 52 89.5 79t86.5 27q28 0 43.5 -13t15.5 -39q0 -43 -35 -116l-131 -269q-7 -14 -10 -27t-3 -23q0 -14 9 -21t21 -7q24 0 55 23.5t65 64.5t68 98t66 125l91 194h99l-194 -446q-11 -24 -11 -37q0 -6 4.5 -9t9.5 -3q18 0 47 23.5t59 61.5l20 -16q-20 -26 -42 -47
t-43.5 -36t-42 -23t-38.5 -8q-24 0 -40.5 16t-16.5 42q0 18 7 42.5t24 57.5l-5 2q-31 -43 -58.5 -73t-53.5 -49t-51.5 -28t-52.5 -9q-89 0 -89 88q0 39 25 91l117 239q20 40 20 59q0 13 -12 13q-14 0 -37.5 -16.5t-52.5 -46.5zM302 709l28 71h287l-29 -71h-286z" />
    <glyph glyph-name="Ubreve" unicode="&#x16c;" horiz-adv-x="778" 
d="M310 728l-82 19l9 23h285l-10 -23l-96 -20l-191 -458q-14 -32 -21.5 -65.5t-7.5 -59.5q0 -107 144 -107q40 0 73.5 11t63 36.5t56.5 68.5t54 106l203 469l-84 19l11 23h221l-9 -23l-95 -19l-211 -498q-31 -73 -66.5 -119.5t-75 -73.5t-82.5 -37t-89 -10q-106 0 -161 41
t-55 119q0 69 43 170zM591 970q1 -31 20.5 -48t58.5 -17q33 0 65.5 15t64.5 50h40q-31 -47 -61 -74.5t-56 -41.5t-48.5 -18.5t-38.5 -4.5q-17 0 -33.5 4.5t-29 14t-20 25.5t-7.5 39q0 25 10 56h35z" />
    <glyph glyph-name="ubreve" unicode="&#x16d;" horiz-adv-x="618" 
d="M66 434q45 52 89.5 79t86.5 27q28 0 43.5 -13t15.5 -39q0 -43 -35 -116l-131 -269q-7 -14 -10 -27t-3 -23q0 -14 9 -21t21 -7q24 0 55 23.5t65 64.5t68 98t66 125l91 194h99l-194 -446q-11 -24 -11 -37q0 -6 4.5 -9t9.5 -3q18 0 47 23.5t59 61.5l20 -16q-20 -26 -42 -47
t-43.5 -36t-42 -23t-38.5 -8q-24 0 -40.5 16t-16.5 42q0 18 7 42.5t24 57.5l-5 2q-31 -43 -58.5 -73t-53.5 -49t-51.5 -28t-52.5 -9q-89 0 -89 88q0 39 25 91l117 239q20 40 20 59q0 13 -12 13q-14 0 -37.5 -16.5t-52.5 -46.5zM411 790q1 -31 20.5 -48t58.5 -17
q33 0 65.5 15t64.5 50h40q-31 -47 -61 -74.5t-56 -41.5t-48.5 -18.5t-38.5 -4.5q-17 0 -33.5 4.5t-29 14t-20 25.5t-7.5 39q0 25 10 56h35z" />
    <glyph glyph-name="Uring" unicode="&#x16e;" horiz-adv-x="778" 
d="M310 728l-82 19l9 23h285l-10 -23l-96 -20l-191 -458q-14 -32 -21.5 -65.5t-7.5 -59.5q0 -107 144 -107q40 0 73.5 11t63 36.5t56.5 68.5t54 106l203 469l-84 19l11 23h221l-9 -23l-95 -19l-211 -498q-31 -73 -66.5 -119.5t-75 -73.5t-82.5 -37t-89 -10q-106 0 -161 41
t-55 119q0 69 43 170zM657 970q30 0 51 -18.5t21 -44.5q0 -15 -7 -29t-19 -24.5t-28 -17t-33 -6.5q-29 0 -48 18t-19 45q0 31 24 54t58 23zM654 932q-16 0 -27.5 -10.5t-11.5 -24.5t9 -22.5t23 -8.5q16 0 29 11.5t13 25.5q0 12 -10.5 20.5t-24.5 8.5z" />
    <glyph glyph-name="uring" unicode="&#x16f;" horiz-adv-x="618" 
d="M66 434q45 52 89.5 79t86.5 27q28 0 43.5 -13t15.5 -39q0 -43 -35 -116l-131 -269q-7 -14 -10 -27t-3 -23q0 -14 9 -21t21 -7q24 0 55 23.5t65 64.5t68 98t66 125l91 194h99l-194 -446q-11 -24 -11 -37q0 -6 4.5 -9t9.5 -3q18 0 47 23.5t59 61.5l20 -16q-20 -26 -42 -47
t-43.5 -36t-42 -23t-38.5 -8q-24 0 -40.5 16t-16.5 42q0 18 7 42.5t24 57.5l-5 2q-31 -43 -58.5 -73t-53.5 -49t-51.5 -28t-52.5 -9q-89 0 -89 88q0 39 25 91l117 239q20 40 20 59q0 13 -12 13q-14 0 -37.5 -16.5t-52.5 -46.5zM475 817q35 0 60 -21.5t25 -52.5
q0 -18 -8.5 -34.5t-23 -29.5t-33 -20.5t-38.5 -7.5q-35 0 -57 21.5t-22 53.5q0 18 7.5 34.5t21 29t31 20t37.5 7.5zM472 782q-23 0 -39.5 -15.5t-16.5 -37.5q0 -19 13 -31t33 -12q23 0 41.5 16.5t18.5 36.5q0 18 -15 30.5t-35 12.5z" />
    <glyph glyph-name="Uhungarumlaut" unicode="&#x170;" horiz-adv-x="778" 
d="M310 728l-82 19l9 23h285l-10 -23l-96 -20l-191 -458q-14 -32 -21.5 -65.5t-7.5 -59.5q0 -107 144 -107q40 0 73.5 11t63 36.5t56.5 68.5t54 106l203 469l-84 19l11 23h221l-9 -23l-95 -19l-211 -498q-31 -73 -66.5 -119.5t-75 -73.5t-82.5 -37t-89 -10q-106 0 -161 41
t-55 119q0 69 43 170zM672 847l145 105q11 8 21.5 12.5t21.5 4.5q17 0 30 -13t13 -33q0 -17 -14.5 -30.5t-54.5 -24.5l-152 -42zM473 848l145 105q11 8 21.5 12.5t21.5 4.5q17 0 30.5 -13t13.5 -31q0 -17 -14.5 -31.5t-54.5 -25.5l-153 -42z" />
    <glyph glyph-name="uhungarumlaut" unicode="&#x171;" horiz-adv-x="618" 
d="M66 434q45 52 89.5 79t86.5 27q28 0 43.5 -13t15.5 -39q0 -43 -35 -116l-131 -269q-7 -14 -10 -27t-3 -23q0 -14 9 -21t21 -7q24 0 55 23.5t65 64.5t68 98t66 125l91 194h99l-194 -446q-11 -24 -11 -37q0 -6 4.5 -9t9.5 -3q18 0 47 23.5t59 61.5l20 -16q-20 -26 -42 -47
t-43.5 -36t-42 -23t-38.5 -8q-24 0 -40.5 16t-16.5 42q0 18 7 42.5t24 57.5l-5 2q-31 -43 -58.5 -73t-53.5 -49t-51.5 -28t-52.5 -9q-89 0 -89 88q0 39 25 91l117 239q20 40 20 59q0 13 -12 13q-14 0 -37.5 -16.5t-52.5 -46.5zM324 642l88 171q22 44 56 44q20 0 35.5 -14
t15.5 -34q0 -14 -9.5 -27.5t-29.5 -31.5l-138 -119zM484 642l93 171q24 44 56 44q20 0 35.5 -14t15.5 -34q0 -14 -9 -28t-30 -31l-143 -119z" />
    <glyph glyph-name="Uogonek" unicode="&#x172;" horiz-adv-x="778" 
d="M298 -198q-69 -58 -137 -58q-67 0 -67 52q0 42 47 94.5t128 101.5q-87 7 -131 47t-44 111q0 69 43 170l173 408l-82 19l9 23h285l-10 -23l-96 -20l-191 -458q-14 -32 -21.5 -65.5t-7.5 -59.5q0 -107 144 -107q40 0 73.5 11t63 36.5t56.5 68.5t54 106l203 469l-84 19
l11 23h221l-9 -23l-95 -19l-211 -498q-30 -72 -65 -118t-74 -73t-81.5 -37.5t-87.5 -11.5q-60 -49 -92 -91t-32 -71t37 -29q14 0 28 4.5t37 16.5z" />
    <glyph glyph-name="uogonek" unicode="&#x173;" horiz-adv-x="618" 
d="M378 -198q-69 -58 -137 -58q-67 0 -67 52q0 43 47 95t129 101q-19 5 -30.5 19t-11.5 37q0 18 7 42.5t24 57.5l-5 2q-31 -43 -58.5 -73t-53.5 -49t-51.5 -28t-52.5 -9q-89 0 -89 88q0 39 25 91l117 239q20 40 20 59q0 13 -12 13q-14 0 -37.5 -16.5t-52.5 -46.5l-23 16
q45 52 89.5 79t86.5 27q28 0 43.5 -13t15.5 -39q0 -43 -35 -116l-131 -269q-7 -14 -10 -27t-3 -23q0 -14 9 -21t21 -7q24 0 55 23.5t65 64.5t68 98t66 125l91 194h99l-194 -446q-11 -24 -11 -37q0 -6 4.5 -9t9.5 -3q18 0 47 23.5t59 61.5l20 -16q-29 -37 -61.5 -64
t-60.5 -44q-36 -22 -62 -45t-43 -45.5t-25 -42.5t-8 -35q0 -29 37 -29q14 0 28 4.5t37 16.5z" />
    <glyph glyph-name="Wcircumflex" unicode="&#x174;" horiz-adv-x="1029" 
d="M175 -10l89 688q1 5 1 9v8q-1 26 -19.5 35t-65.5 12l14 28h288l-14 -28q-24 0 -41 -3.5t-28.5 -12t-18 -23.5t-9.5 -38l-73 -531l286 392l20 152q1 5 1 9v8q-1 26 -12.5 35t-42.5 12l14 28h278l-14 -28q-28 0 -48.5 -3.5t-34.5 -12t-22.5 -23.5t-11.5 -38l-73 -531
l364 499q20 28 27 41t7 27q-1 16 -20.5 25.5t-64.5 15.5l13 28h269l-14 -28q-32 -5 -54.5 -12.5t-41 -20t-35.5 -31.5t-38 -47l-476 -641h-59l59 457l-340 -457h-59zM785 970q17 0 26.5 -6.5t17.5 -20.5l54 -96l-26 -17l-91 68l-165 -68l-12 17l132 96q18 13 31.5 20t32.5 7
z" />
    <glyph glyph-name="wcircumflex" unicode="&#x175;" horiz-adv-x="905" 
d="M532 -10q-86 0 -129 65q-90 -65 -177 -65q-63 0 -98.5 29t-35.5 81q0 23 6.5 47.5t22.5 53t41.5 61.5t64.5 74q16 16 28 29.5t22 26.5t20 27t21 32h-149q-50 0 -71.5 -14t-21.5 -43q0 -13 5.5 -22.5t13.5 -15.5l3 4q-5 5 -8.5 11t-3.5 13q0 14 11.5 24t28.5 10
q16 0 28.5 -11t12.5 -29q0 -19 -13 -29.5t-36 -10.5q-32 0 -51.5 21t-19.5 58q0 57 44 85t144 28h157q-14 -30 -24.5 -50t-22 -40.5t-27.5 -45.5t-41 -64q-24 -36 -39 -65t-24 -53t-12.5 -44.5t-3.5 -39.5q0 -90 71 -90q26 0 56 12.5t62 34.5q-16 36 -16 88q0 61 24.5 126.5
t63 118.5t85 87.5t91.5 34.5q28 0 44 -16t16 -45t-16.5 -71t-45 -89.5t-67.5 -97.5t-84 -96q13 -41 37.5 -63t59.5 -22q43 0 88.5 40t88.5 118q26 49 38.5 88.5t12.5 77.5q0 32 -6 62.5t-6 53.5q0 28 12.5 44t35.5 16q19 0 31 -14t12 -41q0 -23 -6.5 -55.5t-17.5 -69
t-27.5 -76t-35.5 -76.5q-55 -106 -123.5 -162t-143.5 -56zM470 221q0 -16 1 -30t3 -28q32 35 60.5 75t50 80.5t34 80t12.5 74.5q0 19 -4.5 26.5t-12.5 7.5q-26 0 -51.5 -26t-46 -67.5t-33.5 -92.5t-13 -100zM752 857q22 0 30 -7.5t10 -21.5l16 -188l-23 -12l-70 141
l-183 -141l-19 12l171 188q26 29 68 29z" />
    <glyph glyph-name="Ycircumflex" unicode="&#x176;" horiz-adv-x="716" 
d="M88 0l10 23l97 19l124 298l-49 324q-4 25 -8.5 41t-14 25.5t-25.5 13t-42 3.5l10 23h282l-10 -23q-42 -2 -60 -15.5t-18 -54.5q0 -16 3 -37l30 -246l269 270q33 33 33 52q0 31 -83 31l9 23h276l-13 -23q-31 -2 -54 -7t-45 -17t-45.5 -32t-55.5 -53l-269 -275l-135 -321
l98 -19l-10 -23h-304zM638 970q17 0 26.5 -6.5t17.5 -20.5l54 -96l-26 -17l-91 68l-165 -68l-12 17l132 96q18 13 31.5 20t32.5 7z" />
    <glyph glyph-name="ycircumflex" unicode="&#x177;" horiz-adv-x="546" 
d="M49 448q26 43 67.5 67.5t84.5 24.5q26 0 43.5 -12.5t28 -46.5t15 -93.5t4.5 -153.5q0 -41 -1.5 -84.5t-4.5 -99.5l3 -3q31 39 58 84t46 89.5t30 84t11 68.5q0 10 -1.5 26t-3 32.5t-2.5 30.5t-1 20q0 26 14 42t37 16t36.5 -16.5t13.5 -45.5q0 -42 -25.5 -112.5
t-68.5 -152.5t-98.5 -165t-114.5 -151t-118 -110.5t-109 -42.5q-38 0 -62.5 15.5t-24.5 41.5q0 20 12 31.5t35 11.5q19 0 29 -8t18 -17t16.5 -17t24.5 -8q19 0 42 13.5t43 38.5q11 13 19.5 25t15 27.5t11 37.5t7 56t3.5 82.5t1 116.5q0 83 -2.5 140t-8.5 92t-15 50t-22 15
q-25 0 -67 -55zM453 857q22 0 30 -7.5t10 -21.5l16 -188l-23 -12l-70 141l-183 -141l-19 12l171 188q26 29 68 29z" />
    <glyph glyph-name="Ydieresis" unicode="&#x178;" horiz-adv-x="716" 
d="M88 0l10 23l97 19l124 298l-49 324q-4 25 -8.5 41t-14 25.5t-25.5 13t-42 3.5l10 23h282l-10 -23q-42 -2 -60 -15.5t-18 -54.5q0 -16 3 -37l30 -246l269 270q33 33 33 52q0 31 -83 31l9 23h276l-13 -23q-31 -2 -54 -7t-45 -17t-45.5 -32t-55.5 -53l-269 -275l-135 -321
l98 -19l-10 -23h-304zM523 970q23 0 40 -14t17 -35q0 -12 -5.5 -23t-15 -20t-21.5 -14t-25 -5q-26 0 -40.5 14t-14.5 37q0 24 19.5 42t45.5 18zM698 970q23 0 40 -14t17 -35q0 -12 -5.5 -23t-15 -20t-21.5 -14t-25 -5q-26 0 -40.5 14t-14.5 37q0 24 19.5 42t45.5 18z" />
    <glyph glyph-name="Zacute" unicode="&#x179;" horiz-adv-x="697" 
d="M-29 0l22 51l625 679h-269q-49 -41 -93.5 -87t-78.5 -90h-27l120 217h496l-22 -52l-622 -676h312q107 101 178 202h34l-123 -244h-552zM473 847l144 107q22 16 44 16q17 0 30 -12t13 -31q0 -17 -14.5 -31.5t-53.5 -25.5l-152 -44z" />
    <glyph glyph-name="zacute" unicode="&#x17a;" horiz-adv-x="556" 
d="M244 540q27 0 61 -3.5t67.5 -8t63 -8t47.5 -3.5q39 0 76 23l21 -19l-468 -422v-4q40 0 75.5 -5t67 -11.5t58.5 -11.5t50 -5q65 0 65 50l-4 2q-6 -11 -13 -16.5t-18 -5.5q-19 0 -30 12.5t-11 30.5t13 29t34 11q29 0 45 -18.5t16 -50.5q0 -53 -47.5 -84.5t-127.5 -31.5
q-28 0 -55.5 3.5t-54.5 8t-54 8t-54 3.5q-28 0 -45 -5t-35 -18l-23 19l469 421l-2 4q-37 0 -72.5 3.5t-67.5 7.5t-59.5 7.5t-48.5 3.5q-81 0 -81 -52q0 -16 9.5 -26.5t25.5 -13.5l1 4q-18 10 -18 25t11 25.5t28 10.5q19 0 29.5 -13t10.5 -33t-14 -31.5t-37 -11.5
q-33 0 -56 24t-23 60q0 25 12.5 46.5t36 37t55.5 24t71 8.5zM302 642l116 171q29 44 63 44q21 0 35 -12t14 -30q0 -15 -11.5 -30t-38.5 -35l-162 -119z" />
    <glyph glyph-name="Zdotaccent" unicode="&#x17b;" horiz-adv-x="697" 
d="M-29 0l22 51l625 679h-269q-49 -41 -93.5 -87t-78.5 -90h-27l120 217h496l-22 -52l-622 -676h312q107 101 178 202h34l-123 -244h-552zM568 970q26 0 45 -16t19 -39q0 -14 -6.5 -26.5t-17 -22t-24 -15.5t-27.5 -6q-29 0 -45.5 15.5t-16.5 41.5q0 28 22 48t51 20z" />
    <glyph glyph-name="zdotaccent" unicode="&#x17c;" horiz-adv-x="556" 
d="M244 540q27 0 61 -3.5t67.5 -8t63 -8t47.5 -3.5q39 0 76 23l21 -19l-468 -422v-4q40 0 75.5 -5t67 -11.5t58.5 -11.5t50 -5q65 0 65 50l-4 2q-6 -11 -13 -16.5t-18 -5.5q-19 0 -30 12.5t-11 30.5t13 29t34 11q29 0 45 -18.5t16 -50.5q0 -53 -47.5 -84.5t-127.5 -31.5
q-28 0 -55.5 3.5t-54.5 8t-54 8t-54 3.5q-28 0 -45 -5t-35 -18l-23 19l469 421l-2 4q-37 0 -72.5 3.5t-67.5 7.5t-59.5 7.5t-48.5 3.5q-81 0 -81 -52q0 -16 9.5 -26.5t25.5 -13.5l1 4q-18 10 -18 25t11 25.5t28 10.5q19 0 29.5 -13t10.5 -33t-14 -31.5t-37 -11.5
q-33 0 -56 24t-23 60q0 25 12.5 46.5t36 37t55.5 24t71 8.5zM416 780q26 0 45 -16t19 -39q0 -14 -6.5 -26.5t-17 -22t-24 -15.5t-27.5 -6q-29 0 -45.5 15.5t-16.5 41.5q0 28 22 48t51 20z" />
    <glyph glyph-name="Zcaron" unicode="&#x17d;" horiz-adv-x="697" 
d="M-29 0l22 51l625 679h-269q-49 -41 -93.5 -87t-78.5 -90h-27l120 217h496l-22 -52l-622 -676h312q107 101 178 202h34l-123 -244h-552zM541 830q-17 0 -26.5 6.5t-17.5 20.5l-54 96l26 17l91 -68l165 68l12 -17l-132 -96q-18 -13 -31.5 -20t-32.5 -7z" />
    <glyph glyph-name="zcaron" unicode="&#x17e;" horiz-adv-x="556" 
d="M244 540q27 0 61 -3.5t67.5 -8t63 -8t47.5 -3.5q39 0 76 23l21 -19l-468 -422v-4q40 0 75.5 -5t67 -11.5t58.5 -11.5t50 -5q65 0 65 50l-4 2q-6 -11 -13 -16.5t-18 -5.5q-19 0 -30 12.5t-11 30.5t13 29t34 11q29 0 45 -18.5t16 -50.5q0 -53 -47.5 -84.5t-127.5 -31.5
q-28 0 -55.5 3.5t-54.5 8t-54 8t-54 3.5q-28 0 -45 -5t-35 -18l-23 19l469 421l-2 4q-37 0 -72.5 3.5t-67.5 7.5t-59.5 7.5t-48.5 3.5q-81 0 -81 -52q0 -16 9.5 -26.5t25.5 -13.5l1 4q-18 10 -18 25t11 25.5t28 10.5q19 0 29.5 -13t10.5 -33t-14 -31.5t-37 -11.5
q-33 0 -56 24t-23 60q0 25 12.5 46.5t36 37t55.5 24t71 8.5zM377 628q-22 0 -30 7.5t-10 21.5l-16 188l23 12l70 -141l183 141l19 -12l-171 -188q-26 -29 -68 -29z" />
    <glyph glyph-name="Schwa" unicode="&#x18f;" horiz-adv-x="674" 
d="M130 -10q-64 0 -101 26t-37 72t40 90t112 82.5t173 69t223 49.5q29 71 45.5 136.5t16.5 110.5q0 104 -110 104q-78 0 -155.5 -50.5t-148.5 -144.5l-37 22q177 222 363 222q90 0 138.5 -50.5t48.5 -142.5q0 -66 -24.5 -136t-67 -136.5t-99 -125t-120 -103t-130.5 -70
t-130 -25.5zM508 332q-77 -14 -146.5 -41t-123 -61t-85 -72.5t-31.5 -74.5q0 -22 12 -32t39 -10q37 0 78.5 16.5t80.5 45t73 65.5t57 79z" />
    <glyph glyph-name="florin" unicode="&#x192;" horiz-adv-x="568" 
d="M578 830q27 0 53.5 -8.5t47.5 -23.5t33.5 -35.5t12.5 -43.5q0 -19 -11 -30t-31 -11q-23 0 -38.5 14.5t-15.5 37.5q0 9 1.5 16t1.5 15q0 20 -15 31t-40 11q-50 0 -88 -50.5t-70 -162.5l-17 -60h168l-9 -32h-167l-91 -295q-37 -120 -76 -206.5t-81 -142.5t-88 -83t-98 -27
q-51 0 -85 25t-34 64q0 35 42 35q25 0 37 -14t19.5 -30.5t16.5 -30.5t29 -14q19 0 41.5 18.5t47.5 61.5t52.5 112.5t56.5 171.5l101 355h-158l8 32h159l23 70q21 63 49.5 106.5t62 71t72 40t78.5 12.5z" />
    <glyph glyph-name="uni01C4" unicode="&#x1c4;" horiz-adv-x="1502" 
d="M-58 23l92 19l284 686l-78 19l10 23h206q74 0 134 -21t102.5 -60t65.5 -94.5t23 -124.5q0 -67 -20 -131t-56 -119.5t-87 -100t-113 -72.5q-104 -47 -263 -47h-310zM236 42q87 0 166 30.5t139 88.5t95 142.5t35 191.5q0 112 -56.5 173.5t-159.5 61.5h-27l-249 -601
q-13 -30 -13 -49q0 -21 16 -29.5t54 -8.5zM776 0l22 51l625 679h-269q-49 -41 -93.5 -87t-78.5 -90h-27l120 217h496l-22 -52l-622 -676h312q107 101 178 202h34l-123 -244h-552zM1326 820q-17 0 -26.5 6.5t-17.5 20.5l-54 96l26 17l91 -68l165 68l12 -17l-132 -96
q-18 -13 -31.5 -20t-32.5 -7z" />
    <glyph glyph-name="uni01C5" unicode="&#x1c5;" horiz-adv-x="1361" 
d="M-58 23l92 19l284 686l-78 19l10 23h206q74 0 134 -21t102.5 -60t65.5 -94.5t23 -124.5q0 -67 -20 -131t-56 -119.5t-87 -100t-113 -72.5q-104 -47 -263 -47h-310zM236 42q87 0 166 30.5t139 88.5t95 142.5t35 191.5q0 112 -56.5 173.5t-159.5 61.5h-27l-249 -601
q-13 -30 -13 -49q0 -21 16 -29.5t54 -8.5zM1049 540q27 0 61 -3.5t67.5 -8t63 -8t47.5 -3.5q39 0 76 23l21 -19l-468 -422v-4q40 0 75.5 -5t67 -11.5t58.5 -11.5t50 -5q65 0 65 50l-4 2q-6 -11 -13 -16.5t-18 -5.5q-19 0 -30 12.5t-11 30.5t13 29t34 11q29 0 45 -18.5
t16 -50.5q0 -53 -47.5 -84.5t-127.5 -31.5q-28 0 -55.5 3.5t-54.5 8t-54 8t-54 3.5q-28 0 -45 -5t-35 -18l-23 19l469 421l-2 4q-37 0 -72.5 3.5t-67.5 7.5t-59.5 7.5t-48.5 3.5q-81 0 -81 -52q0 -16 9.5 -26.5t25.5 -13.5l1 4q-18 10 -18 25t11 25.5t28 10.5q19 0 29.5 -13
t10.5 -33t-14 -31.5t-37 -11.5q-33 0 -56 24t-23 60q0 25 12.5 46.5t36 37t55.5 24t71 8.5zM1152 628q-22 0 -30 7.5t-10 21.5l-16 188l23 12l70 -141l183 141l19 -12l-171 -188q-26 -29 -68 -29z" />
    <glyph glyph-name="uni01C6" unicode="&#x1c6;" horiz-adv-x="1159" 
d="M481 820h191l-268 -711q-7 -18 -9 -26.5t-2 -14.5q0 -11 5 -15t13 -4q15 0 39 21t66 68l20 -14q-99 -134 -183 -134q-33 0 -47 18t-14 54q0 18 7.5 38.5t21.5 48.5l-2 3q-30 -44 -56 -75t-50.5 -50.5t-49 -28t-51.5 -8.5q-109 0 -109 130q0 70 32.5 144t84.5 135.5
t115.5 101t126.5 39.5q29 0 47.5 -10.5t37.5 -36.5l116 300l-77 12zM130 25q25 0 60 28t72 75.5t73.5 110.5t65.5 133q14 35 19 53t6 33q-4 23 -15.5 36.5t-31.5 13.5q-25 0 -56 -21.5t-63 -57t-62 -80.5t-53.5 -92.5t-37.5 -93.5t-14 -82q0 -29 10 -42.5t27 -13.5zM847 540
q27 0 61 -3.5t67.5 -8t63 -8t47.5 -3.5q39 0 76 23l21 -19l-468 -422v-4q40 0 75.5 -5t67 -11.5t58.5 -11.5t50 -5q65 0 65 50l-4 2q-6 -11 -13 -16.5t-18 -5.5q-19 0 -30 12.5t-11 30.5t13 29t34 11q29 0 45 -18.5t16 -50.5q0 -53 -47.5 -84.5t-127.5 -31.5
q-28 0 -55.5 3.5t-54.5 8t-54 8t-54 3.5q-28 0 -45 -5t-35 -18l-23 19l469 421l-2 4q-37 0 -72.5 3.5t-67.5 7.5t-59.5 7.5t-48.5 3.5q-81 0 -81 -52q0 -16 9.5 -26.5t25.5 -13.5l1 4q-18 10 -18 25t11 25.5t28 10.5q19 0 29.5 -13t10.5 -33t-14 -31.5t-37 -11.5
q-33 0 -56 24t-23 60q0 25 12.5 46.5t36 37t55.5 24t71 8.5zM950 628q-22 0 -30 7.5t-10 21.5l-16 188l23 12l70 -141l183 141l19 -12l-171 -188q-26 -29 -68 -29z" />
    <glyph glyph-name="uni01C7" unicode="&#x1c7;" horiz-adv-x="1067" 
d="M-68 0l10 23l92 19l284 686l-78 19l10 23h286l-10 -23l-101 -22l-282 -685h318q41 48 77 101t65 101h34l-96 -242h-609zM802 -27q-22 -53 -52 -95.5t-65.5 -72t-74.5 -45.5t-80 -16q-55 0 -87 23.5t-32 55.5q0 24 15.5 37t35.5 13q24 0 34 -14t16.5 -30.5t15 -30.5
t31.5 -14q16 0 30 9t29 31t32 58.5t40 90.5l315 755l-83 19l10 23h290l-10 -23l-96 -19z" />
    <glyph glyph-name="uni01C8" unicode="&#x1c8;" horiz-adv-x="985" 
d="M-68 0l10 23l92 19l284 686l-78 19l10 23h286l-10 -23l-101 -22l-282 -685h318q41 48 77 101t65 101h34l-96 -242h-609zM900 540q32 0 47.5 -12.5t15.5 -35.5q-1 -27 -25 -98.5t-78 -190.5l-127 -284q-38 -85 -95.5 -130t-132.5 -45q-51 0 -84 21t-33 56q0 47 46 47
q26 0 36 -14t16 -30.5t15 -30.5t33 -14q15 0 29.5 9.5t30 31.5t33 59t39.5 93l110 280q24 63 39.5 103t24.5 65t12.5 38t3.5 21q0 13 -14 13q-36 0 -83 -59l-21 18q36 43 78.5 66t83.5 23zM979 780q27 0 45 -17t18 -41q0 -26 -22 -46.5t-52 -20.5q-28 0 -44 16.5t-16 40.5
q0 28 21 48t50 20z" />
    <glyph glyph-name="uni01C9" unicode="&#x1c9;" horiz-adv-x="622" 
d="M215 820h198l-221 -515q-29 -66 -47 -108t-28 -68t-14 -39.5t-4 -22.5q0 -8 6.5 -13t14.5 -5q6 0 14 3t20.5 11.5t29.5 24t41 41.5l22 -12q-51 -62 -103.5 -94.5t-93.5 -32.5q-24 0 -37.5 16.5t-13.5 45.5q0 9 2 20t7.5 29t16.5 46t28.5 71t42.5 103.5t60 144.5l137 327
l-76 12zM537 540q32 0 47.5 -12.5t15.5 -35.5q-1 -27 -25 -98.5t-78 -190.5l-127 -284q-38 -85 -95.5 -130t-132.5 -45q-51 0 -84 21t-33 56q0 47 46 47q26 0 36 -14t16 -30.5t15 -30.5t33 -14q15 0 29.5 9.5t30 31.5t33 59t39.5 93l110 280q24 63 39.5 103t24.5 65t12.5 38
t3.5 21q0 13 -14 13q-36 0 -83 -59l-21 18q36 43 78.5 66t83.5 23zM616 780q27 0 45 -17t18 -41q0 -26 -22 -46.5t-52 -20.5q-28 0 -44 16.5t-16 40.5q0 28 21 48t50 20z" />
    <glyph glyph-name="uni01CA" unicode="&#x1ca;" horiz-adv-x="1195" 
d="M353 690h-4l-269 -648l82 -19l-10 -23h-227l10 23l97 19l284 686l-83 19l10 23h212l124 -599h4l231 557l-83 19l10 23h228l-10 -23l-96 -19l-307 -738h-58zM930 -27q-22 -53 -52 -95.5t-65.5 -72t-74.5 -45.5t-80 -16q-55 0 -87 23.5t-32 55.5q0 24 15.5 37t35.5 13
q24 0 34 -14t16.5 -30.5t15 -30.5t31.5 -14q16 0 30 9t29 31t32 58.5t40 90.5l315 755l-83 19l10 23h290l-10 -23l-96 -19z" />
    <glyph glyph-name="uni01CB" unicode="&#x1cb;" horiz-adv-x="1121" 
d="M353 690h-4l-269 -648l82 -19l-10 -23h-227l10 23l97 19l284 686l-83 19l10 23h212l124 -599h4l231 557l-83 19l10 23h228l-10 -23l-96 -19l-307 -738h-58zM1036 540q32 0 47.5 -12.5t15.5 -35.5q-1 -27 -25 -98.5t-78 -190.5l-127 -284q-38 -85 -95.5 -130t-132.5 -45
q-51 0 -84 21t-33 56q0 47 46 47q26 0 36 -14t16 -30.5t15 -30.5t33 -14q15 0 29.5 9.5t30 31.5t33 59t39.5 93l110 280q24 63 39.5 103t24.5 65t12.5 38t3.5 21q0 13 -14 13q-36 0 -83 -59l-21 18q36 43 78.5 66t83.5 23zM1115 780q27 0 45 -17t18 -41q0 -26 -22 -46.5
t-52 -20.5q-28 0 -44 16.5t-16 40.5q0 28 21 48t50 20z" />
    <glyph glyph-name="uni01CC" unicode="&#x1cc;" horiz-adv-x="935" 
d="M246 540q26 0 37 -9.5t11 -30.5q0 -20 -10 -46.5t-34 -71.5l4 -2q32 42 61 72.5t56 49.5t53.5 28t54.5 9q91 0 91 -87q0 -42 -25 -92l-117 -239q-9 -18 -14.5 -34t-5.5 -24q0 -14 12 -14q17 0 48 23.5t69 66.5l21 -15q-107 -134 -201 -134q-59 0 -59 53q0 21 9.5 50.5
t26.5 64.5l136 269q5 11 9 24t4 24q0 30 -32 30q-26 0 -58.5 -23.5t-68 -65t-72 -98.5t-68.5 -124l-93 -194h-97l192 446q11 27 11 34q0 15 -14 15q-17 0 -46 -23.5t-60 -61.5l-20 16q38 53 89.5 83.5t99.5 30.5zM850 540q32 0 47.5 -12.5t15.5 -35.5q-1 -27 -25 -98.5
t-78 -190.5l-127 -284q-38 -85 -95.5 -130t-132.5 -45q-51 0 -84 21t-33 56q0 47 46 47q26 0 36 -14t16 -30.5t15 -30.5t33 -14q15 0 29.5 9.5t30 31.5t33 59t39.5 93l110 280q24 63 39.5 103t24.5 65t12.5 38t3.5 21q0 13 -14 13q-36 0 -83 -59l-21 18q36 43 78.5 66
t83.5 23zM929 780q27 0 45 -17t18 -41q0 -26 -22 -46.5t-52 -20.5q-28 0 -44 16.5t-16 40.5q0 28 21 48t50 20z" />
    <glyph glyph-name="Oogonek" unicode="&#x1ea;" horiz-adv-x="805" 
d="M293 -198q-69 -58 -137 -58q-67 0 -67 52q0 43 47.5 95t128.5 101q-91 11 -140.5 74t-49.5 170q0 68 19.5 134.5t54 127t81.5 112.5t102 89.5t116 59t123 21.5q110 0 170 -65t60 -184q0 -67 -19 -133t-53 -126t-80.5 -111t-101 -88.5t-114.5 -59.5t-122 -23
q-60 -49 -92.5 -91t-32.5 -71t37 -29q14 0 28 4.5t37 16.5zM319 37q46 0 91 21t86.5 58t77 87.5t61 109t40.5 123t15 129.5q0 171 -125 171q-46 0 -91.5 -21t-87 -58t-77 -87.5t-62 -109t-41.5 -122.5t-15 -128q0 -173 128 -173z" />
    <glyph glyph-name="oogonek" unicode="&#x1eb;" horiz-adv-x="557" 
d="M145 -198q-69 -58 -137 -58q-67 0 -67 52q0 43 48 96t132 102q-53 11 -80.5 53t-27.5 108q0 44 14.5 90t40 89t59.5 80.5t73.5 65.5t81.5 44t84 16q72 0 110.5 -44t38.5 -120q0 -45 -14.5 -91t-40 -89t-60 -80.5t-73.5 -65t-81.5 -44t-83.5 -16.5q-60 -49 -92 -91
t-32 -71t37 -29q14 0 28 4.5t37 16.5zM378 505q-27 0 -57.5 -19.5t-61 -51.5t-58.5 -74t-49.5 -87t-34.5 -90.5t-13 -84.5q0 -36 10.5 -54.5t34.5 -18.5q25 0 55 20t61 53.5t60 77t51.5 89t36 90.5t13.5 82q0 34 -11 51t-37 17z" />
    <glyph glyph-name="uni01F1" unicode="&#x1f1;" horiz-adv-x="1489" 
d="M-58 23l92 19l284 686l-78 19l10 23h206q74 0 134 -21t102.5 -60t65.5 -94.5t23 -124.5q0 -67 -20 -131t-56 -119.5t-87 -100t-113 -72.5q-104 -47 -263 -47h-310zM236 42q87 0 166 30.5t139 88.5t95 142.5t35 191.5q0 112 -56.5 173.5t-159.5 61.5h-27l-249 -601
q-13 -30 -13 -49q0 -21 16 -29.5t54 -8.5zM763 0l22 51l625 679h-269q-49 -41 -93.5 -87t-78.5 -90h-27l120 217h496l-22 -52l-622 -676h312q107 101 178 202h34l-123 -244h-552z" />
    <glyph glyph-name="uni01F2" unicode="&#x1f2;" horiz-adv-x="1355" 
d="M-58 23l92 19l284 686l-78 19l10 23h206q74 0 134 -21t102.5 -60t65.5 -94.5t23 -124.5q0 -67 -20 -131t-56 -119.5t-87 -100t-113 -72.5q-104 -47 -263 -47h-310zM236 42q87 0 166 30.5t139 88.5t95 142.5t35 191.5q0 112 -56.5 173.5t-159.5 61.5h-27l-249 -601
q-13 -30 -13 -49q0 -21 16 -29.5t54 -8.5zM1043 540q27 0 61 -3.5t67.5 -8t63 -8t47.5 -3.5q39 0 76 23l21 -19l-468 -422v-4q40 0 75.5 -5t67 -11.5t58.5 -11.5t50 -5q65 0 65 50l-4 2q-6 -11 -13 -16.5t-18 -5.5q-19 0 -30 12.5t-11 30.5t13 29t34 11q29 0 45 -18.5
t16 -50.5q0 -53 -47.5 -84.5t-127.5 -31.5q-28 0 -55.5 3.5t-54.5 8t-54 8t-54 3.5q-28 0 -45 -5t-35 -18l-23 19l469 421l-2 4q-37 0 -72.5 3.5t-67.5 7.5t-59.5 7.5t-48.5 3.5q-81 0 -81 -52q0 -16 9.5 -26.5t25.5 -13.5l1 4q-18 10 -18 25t11 25.5t28 10.5q19 0 29.5 -13
t10.5 -33t-14 -31.5t-37 -11.5q-33 0 -56 24t-23 60q0 25 12.5 46.5t36 37t55.5 24t71 8.5z" />
    <glyph glyph-name="uni01F3" unicode="&#x1f3;" horiz-adv-x="1159" 
d="M481 820h191l-268 -711q-7 -18 -9 -26.5t-2 -14.5q0 -11 5 -15t13 -4q15 0 39 21t66 68l20 -14q-99 -134 -183 -134q-33 0 -47 18t-14 54q0 18 7.5 38.5t21.5 48.5l-2 3q-30 -44 -56 -75t-50.5 -50.5t-49 -28t-51.5 -8.5q-109 0 -109 130q0 70 32.5 144t84.5 135.5
t115.5 101t126.5 39.5q29 0 47.5 -10.5t37.5 -36.5l116 300l-77 12zM130 25q25 0 60 28t72 75.5t73.5 110.5t65.5 133q14 35 19 53t6 33q-4 23 -15.5 36.5t-31.5 13.5q-25 0 -56 -21.5t-63 -57t-62 -80.5t-53.5 -92.5t-37.5 -93.5t-14 -82q0 -29 10 -42.5t27 -13.5zM847 540
q27 0 61 -3.5t67.5 -8t63 -8t47.5 -3.5q39 0 76 23l21 -19l-468 -422v-4q40 0 75.5 -5t67 -11.5t58.5 -11.5t50 -5q65 0 65 50l-4 2q-6 -11 -13 -16.5t-18 -5.5q-19 0 -30 12.5t-11 30.5t13 29t34 11q29 0 45 -18.5t16 -50.5q0 -53 -47.5 -84.5t-127.5 -31.5
q-28 0 -55.5 3.5t-54.5 8t-54 8t-54 3.5q-28 0 -45 -5t-35 -18l-23 19l469 421l-2 4q-37 0 -72.5 3.5t-67.5 7.5t-59.5 7.5t-48.5 3.5q-81 0 -81 -52q0 -16 9.5 -26.5t25.5 -13.5l1 4q-18 10 -18 25t11 25.5t28 10.5q19 0 29.5 -13t10.5 -33t-14 -31.5t-37 -11.5
q-33 0 -56 24t-23 60q0 25 12.5 46.5t36 37t55.5 24t71 8.5z" />
    <glyph glyph-name="Aringacute" unicode="&#x1fa;" horiz-adv-x="748" 
d="M640 793l-91 -701q-1 -5 -1 -9v-8q1 -26 19.5 -35t65.5 -12l-14 -28h-308l14 28q28 0 49 3.5t35 12t22 23.5t11 38l25 181h-237l-129 -149q-23 -27 -31.5 -40.5t-8.5 -27.5q1 -16 20.5 -25.5t64.5 -15.5l-13 -28h-278l14 28q36 5 61 12.5t45.5 20.5t39.5 31.5t43 46.5
l463 538l11 93zM514 614l-252 -291h210zM641 970q38 0 59 -26q5 1 8.5 1.5t8.5 0.5q44 0 44 -34q0 -15 -12 -24.5t-44 -11.5q-11 -20 -32.5 -33t-46.5 -13q-23 0 -39 10.5t-24 27.5l-39 2l-4 24l40 13q6 26 28.5 44.5t52.5 18.5zM638 932q-16 0 -27.5 -10.5t-11.5 -24.5
t9 -22.5t23 -8.5q16 0 29 11.5t13 25.5q0 12 -10.5 20.5t-24.5 8.5z" />
    <glyph glyph-name="aringacute" unicode="&#x1fb;" horiz-adv-x="604" 
d="M371 540q28 0 46.5 -10.5t36.5 -36.5l16 37h102l-172 -421q-6 -19 -8 -27t-2 -14q0 -19 16 -19q15 0 42 21t69 68l20 -14q-53 -66 -100.5 -100t-89.5 -34q-28 0 -43.5 14.5t-15.5 43.5q0 22 7 45.5t27 55.5l-6 3q-59 -86 -107 -124t-99 -38t-80.5 34.5t-29.5 97.5
q0 45 16 93.5t43.5 95t64 88t78 73t85 50t84.5 18.5zM129 25q25 0 60.5 27.5t73.5 75t75.5 110.5t67.5 134q15 35 18.5 53.5t3.5 32.5q0 23 -13 36.5t-33 13.5q-25 0 -56 -21.5t-63.5 -56.5t-63 -80t-54.5 -92.5t-38.5 -93t-14.5 -81.5q0 -30 8.5 -44t28.5 -14zM468 765
q35 0 60 -21.5t25 -52.5q0 -18 -8.5 -34.5t-23 -29.5t-33 -20.5t-38.5 -7.5q-35 0 -57 21.5t-22 53.5q0 18 7.5 34.5t21 29t31 20t37.5 7.5zM465 730q-23 0 -39.5 -15.5t-16.5 -37.5q0 -19 13 -31t33 -12q23 0 41.5 16.5t18.5 36.5q0 18 -15 30.5t-35 12.5zM455 837l144 107
q22 16 44 16q17 0 30 -12t13 -31q0 -17 -14.5 -31.5t-53.5 -25.5l-152 -44z" />
    <glyph glyph-name="AEacute" unicode="&#x1fc;" horiz-adv-x="1040" 
d="M259 0l12 28l92 19l99 239h-209l-135 -149q-24 -26 -33.5 -40.5t-9.5 -27.5q0 -16 19.5 -25.5t63.5 -15.5l-13 -28h-281l14 28q36 5 61 12.5t46 20.5t41 31.5t45 46.5l531 589l-77 19l10 23h522l8 -220h-27q-9 54 -22.5 98t-35.5 82h-226l-124 -304h168q49 57 84 114h29
l-113 -274h-29q8 30 11.5 60t5.5 60h-174l-142 -346h323q41 48 74.5 95t62.5 95h29l-91 -230h-609zM634 702h-4l-344 -379h191zM710 847l144 107q22 16 44 16q17 0 30 -12t13 -31q0 -17 -14.5 -31.5t-53.5 -25.5l-152 -44z" />
    <glyph glyph-name="aeacute" unicode="&#x1fd;" horiz-adv-x="804" 
d="M720 540q42 0 67.5 -18.5t25.5 -50.5t-25 -62.5t-70 -57t-107.5 -48t-137.5 -34.5q-57 -107 -57 -177q0 -67 58 -67q23 0 50 10t54 27.5t53.5 42t48.5 54.5l22 -14q-62 -77 -125.5 -116t-127.5 -39q-61 0 -94 34.5t-33 100.5v14t1 10l-6 3q-59 -86 -107 -124t-99 -38
t-80.5 35t-29.5 96q0 46 16 95t44 95.5t64.5 88t77.5 72.5t84 49.5t84 18.5q28 0 46.5 -10.5t37.5 -36.5l16 37h102l-24 -58q42 33 86 50.5t85 17.5zM128 25q26 0 62.5 28.5t75 76.5t75.5 111t66 131q11 27 16.5 46t5.5 34q0 26 -12 41t-33 15q-26 0 -57 -21.5t-63.5 -56.5
t-63 -80t-54.5 -92.5t-38.5 -93.5t-14.5 -83q0 -56 35 -56zM495 302q47 9 90 28t76 43.5t52.5 52t19.5 53.5q0 30 -32 30q-21 0 -44 -11t-46.5 -30.5t-45 -47t-38.5 -59.5zM552 642l116 171q29 44 63 44q21 0 35 -12t14 -30q0 -15 -11.5 -30t-38.5 -35l-162 -119z" />
    <glyph glyph-name="Oslashacute" unicode="&#x1fe;" horiz-adv-x="804" 
d="M32 0l82 82q-39 58 -39 154q0 68 19.5 134.5t54 127t81.5 112.5t102 89.5t116 59t123 21.5q110 0 172 -68l57 58h63l-95 -95q16 -29 24.5 -65t8.5 -79q0 -68 -19.5 -134.5t-54 -126.5t-81.5 -111.5t-102 -89t-116.5 -58.5t-123.5 -21q-103 0 -163 58l-48 -48h-61z
M191 210q0 -27 3 -48l486 487q-26 87 -115 87q-46 0 -91.5 -21t-87 -58t-77 -87.5t-62 -109t-41.5 -122.5t-15 -128zM319 37q46 0 91 21t86.5 58t77 87.5t61 109t40.5 123t15 129.5q0 8 -0.5 15.5t-0.5 15.5l-484 -484q26 -75 114 -75zM605 847l144 107q22 16 44 16
q17 0 30 -12t13 -31q0 -17 -14.5 -31.5t-53.5 -25.5l-152 -44z" />
    <glyph glyph-name="oslashacute" unicode="&#x1ff;" horiz-adv-x="557" 
d="M444 642l116 171q29 44 63 44q21 0 35 -12t14 -30q0 -15 -11.5 -30t-38.5 -35l-162 -119zM161 -10q-72 0 -111 45l-37 -35h-53l70 67q-17 39 -17 88q0 44 14.5 90t40 89t59.5 80.5t73.5 65.5t81.5 44t84 16q69 0 110 -44l35 34h55l-69 -66q18 -38 18 -88
q0 -68 -32 -136.5t-83 -124t-114 -90.5t-125 -35zM378 505q-24 0 -51.5 -16t-55.5 -43.5t-54.5 -64t-48.5 -76.5t-38 -82t-22 -81l318 306q-3 57 -48 57zM149 25q22 0 49 16.5t55 44.5t55 65t50 78t39.5 82.5t23.5 79.5l-317 -304q2 -31 12 -46.5t33 -15.5z" />
    <glyph glyph-name="uni0218" unicode="&#x218;" horiz-adv-x="589" 
d="M69 261h29q-13 -52 -13 -96q0 -135 137 -135q77 0 120.5 39t43.5 108q0 40 -14 71t-35 57.5t-45.5 51.5t-45.5 53.5t-35 62.5t-14 79q0 50 18.5 92t51.5 72t78.5 47t100.5 17q49 0 85.5 -15t65.5 -47l46 52h32l-86 -220h-30q5 19 9 44t4 43q0 50 -31 76.5t-91 26.5
q-72 0 -110 -38.5t-38 -110.5q0 -21 3 -37t11 -32.5t23.5 -36t39.5 -47.5q34 -39 56 -69t35 -55t18.5 -47.5t5.5 -47.5q0 -49 -21 -91t-58.5 -72.5t-88 -48t-110.5 -17.5q-128 0 -171 82l-51 -72h-31zM155 -149q-29 8 -29 44q0 28 16 44.5t50 16.5q50 0 50 -56
q0 -38 -32 -76.5t-91 -70.5l-15 19q31 15 52.5 35t21.5 32q0 5 -4.5 7t-18.5 5z" />
    <glyph glyph-name="uni0219" unicode="&#x219;" horiz-adv-x="441" 
d="M281 540q31 0 59 -7.5t49 -20t33.5 -29.5t12.5 -35t-12.5 -29.5t-32.5 -11.5q-39 0 -45 44q-5 37 -16 48.5t-42 11.5q-45 0 -67.5 -24t-22.5 -66q0 -35 19.5 -69.5t43.5 -70t43.5 -71.5t19.5 -74q0 -31 -15 -57.5t-41.5 -46t-62 -31t-76.5 -11.5q-33 0 -62.5 8
t-51.5 21.5t-35 31.5t-13 37q0 18 12.5 29t32.5 11q18 0 27 -8t14 -20t9.5 -25.5t12 -25.5t21 -20t38.5 -8q43 0 68 26t25 65q0 31 -20.5 63.5t-44.5 66.5t-44.5 70.5t-20.5 77.5q0 31 14.5 58.5t39.5 47.5t59 32t72 12zM63 -149q-29 8 -29 44q0 28 16 44.5t50 16.5
q50 0 50 -56q0 -38 -32 -76.5t-91 -70.5l-15 19q31 15 52.5 35t21.5 32q0 5 -4.5 7t-18.5 5z" />
    <glyph glyph-name="uni021A" unicode="&#x21a;" horiz-adv-x="735" 
d="M490 730h-178q-50 -43 -93.5 -90t-75.5 -90h-24l128 220h626l-54 -220h-24q1 11 1 22.5v22.5q0 34 -4 68.5t-15 66.5h-178l-285 -688l102 -19l-10 -23h-318l10 23l107 19zM202 -149q-29 8 -29 44q0 28 16 44.5t50 16.5q50 0 50 -56q0 -38 -32 -76.5t-91 -70.5l-15 19
q31 15 52.5 35t21.5 32q0 5 -4.5 7t-18.5 5z" />
    <glyph glyph-name="uni021B" unicode="&#x21b;" horiz-adv-x="339" 
d="M112 530h86l63 147l107 10l-68 -157h88l-11 -32h-90l-83 -193q-32 -75 -51 -119t-28.5 -67t-12 -32t-2.5 -14q0 -24 22 -24q15 0 39 19t65 61l20 -12q-48 -61 -98.5 -94t-94.5 -33q-30 0 -41.5 15t-11.5 48q0 10 2.5 23.5t9.5 35.5t20.5 56t36.5 87l105 243h-83z
M-13 -149q-29 8 -29 44q0 28 16 44.5t50 16.5q50 0 50 -56q0 -38 -32 -76.5t-91 -70.5l-15 19q31 15 52.5 35t21.5 32q0 5 -4.5 7t-18.5 5z" />
    <glyph glyph-name="dotlessj" unicode="&#x237;" horiz-adv-x="306" 
d="M221 540q32 0 47.5 -12.5t15.5 -35.5q-1 -27 -25 -98.5t-78 -190.5l-127 -284q-38 -85 -95.5 -130t-132.5 -45q-51 0 -84 21t-33 56q0 47 46 47q26 0 36 -14t16 -30.5t15 -30.5t33 -14q15 0 29.5 9.5t30 31.5t33 59t39.5 93l110 280q24 63 39.5 103t24.5 65t12.5 38
t3.5 21q0 13 -14 13q-36 0 -83 -59l-21 18q36 43 78.5 66t83.5 23z" />
    <glyph glyph-name="schwa" unicode="&#x259;" horiz-adv-x="486" 
d="M59 -10q-45 0 -70.5 18.5t-25.5 50.5q0 31 25 62t70 57.5t107.5 48t137.5 34.5q57 106 57 177q0 67 -58 67q-23 0 -50 -10t-54 -27.5t-53.5 -42t-48.5 -54.5l-22 14q123 155 253 155q62 0 96 -35t34 -100q0 -46 -17 -94.5t-46.5 -94.5t-69 -87.5t-83.5 -72t-91 -48.5
t-91 -18zM281 228q-47 -9 -90 -28t-76 -43.5t-52.5 -52t-19.5 -53.5q0 -30 32 -30q21 0 44 11t46.5 31t45 47t38.5 59z" />
    <glyph glyph-name="apostrophe" unicode="&#x2bc;" horiz-adv-x="149" 
d="M61 752q-39 9 -39 55q0 23 16.5 36.5t45.5 13.5q55 0 55 -64q0 -42 -29 -85t-83 -79l-17 19q30 20 52.5 46.5t22.5 43.5q0 7 -3.5 9t-20.5 5z" />
    <glyph glyph-name="circumflex" unicode="&#x2c6;" horiz-adv-x="315" 
d="M249 857q22 0 30 -7.5t10 -21.5l16 -188l-23 -12l-70 141l-183 -141l-19 12l171 188q26 29 68 29z" />
    <glyph glyph-name="caron" unicode="&#x2c7;" horiz-adv-x="315" 
d="M66 628q-22 0 -30 7.5t-10 21.5l-16 188l23 12l70 -141l183 141l19 -12l-171 -188q-26 -29 -68 -29z" />
    <glyph glyph-name="breve" unicode="&#x2d8;" horiz-adv-x="314" 
d="M55 790q1 -31 20.5 -48t58.5 -17q33 0 65.5 15t64.5 50h40q-31 -47 -61 -74.5t-56 -41.5t-48.5 -18.5t-38.5 -4.5q-17 0 -33.5 4.5t-29 14t-20 25.5t-7.5 39q0 25 10 56h35z" />
    <glyph glyph-name="dotaccent" unicode="&#x2d9;" horiz-adv-x="157" 
d="M83 780q26 0 45 -16t19 -39q0 -14 -6.5 -26.5t-17 -22t-24 -15.5t-27.5 -6q-29 0 -45.5 15.5t-16.5 41.5q0 28 22 48t51 20z" />
    <glyph glyph-name="ring" unicode="&#x2da;" horiz-adv-x="202" 
d="M107 817q35 0 60 -21.5t25 -52.5q0 -18 -8.5 -34.5t-23 -29.5t-33 -20.5t-38.5 -7.5q-35 0 -57 21.5t-22 53.5q0 18 7.5 34.5t21 29t31 20t37.5 7.5zM104 782q-23 0 -39.5 -15.5t-16.5 -37.5q0 -19 13 -31t33 -12q23 0 41.5 16.5t18.5 36.5q0 18 -15 30.5t-35 12.5z" />
    <glyph glyph-name="ogonek" unicode="&#x2db;" horiz-adv-x="268" 
d="M214 -198q-69 -58 -137 -58q-67 0 -67 52q0 23 15 50t42 55t66 56t87 54h38q-72 -56 -111.5 -103.5t-39.5 -79.5q0 -29 37 -29q14 0 28 4.5t37 16.5z" />
    <glyph glyph-name="tilde" unicode="&#x2dc;" horiz-adv-x="363" 
d="M10 683q14 51 48 82.5t71 31.5q17 0 34.5 -5.5t35 -12t34.5 -12t34 -5.5q42 0 62 38h24q-17 -52 -51.5 -85t-71.5 -33q-18 0 -34.5 6t-33.5 13.5t-33.5 13.5t-34.5 6q-46 0 -63 -38h-21z" />
    <glyph glyph-name="hungarumlaut" unicode="&#x2dd;" horiz-adv-x="380" 
d="M10 642l88 171q22 44 56 44q20 0 35.5 -14t15.5 -34q0 -14 -9.5 -27.5t-29.5 -31.5l-138 -119zM170 642l93 171q24 44 56 44q20 0 35.5 -14t15.5 -34q0 -14 -9 -28t-30 -31l-143 -119z" />
    <glyph glyph-name="uni03BC" unicode="&#x3bc;" horiz-adv-x="618" 
d="M-1 -100q-2 -69 -20.5 -105.5t-52.5 -36.5q-22 0 -34 15.5t-12 42.5q0 16 6 39.5t18.5 55.5t33 74t49.5 97q27 52 46.5 88t32 61.5t20.5 41.5t13 27l100 230h113l-188 -427q-13 -31 -13 -48q0 -30 31 -30q24 0 54 23t63.5 64t68.5 98t67 126l91 194h99l-194 -446
q-11 -25 -11 -37t14 -12q17 0 46 23t60 62l20 -16q-41 -52 -86 -83t-80 -31q-26 0 -41.5 16.5t-15.5 42.5q0 37 31 99l-5 2q-60 -81 -110 -120.5t-97 -39.5q-70 0 -70 84q0 16 3 37h-4q-12 -27 -20 -51.5t-13.5 -49t-8.5 -51.5t-4 -59z" />
    <glyph glyph-name="Ddotbelow" unicode="&#x1e0c;" horiz-adv-x="805" 
d="M-58 23l92 19l284 686l-78 19l10 23h206q74 0 134 -21t102.5 -60t65.5 -94.5t23 -124.5q0 -67 -20 -131t-56 -119.5t-87 -100t-113 -72.5q-104 -47 -263 -47h-310zM236 42q87 0 166 30.5t139 88.5t95 142.5t35 191.5q0 112 -56.5 173.5t-159.5 61.5h-27l-249 -601
q-13 -30 -13 -49q0 -21 16 -29.5t54 -8.5zM193 -131q26 0 45 -16t19 -39q0 -14 -6.5 -26.5t-17 -22t-24 -15.5t-27.5 -6q-29 0 -45.5 15.5t-16.5 41.5q0 28 22 48t51 20z" />
    <glyph glyph-name="ddotbelow" unicode="&#x1e0d;" horiz-adv-x="603" 
d="M481 820h191l-268 -711q-7 -18 -9 -26.5t-2 -14.5q0 -11 5 -15t13 -4q15 0 39 21t66 68l20 -14q-99 -134 -183 -134q-33 0 -47 18t-14 54q0 18 7.5 38.5t21.5 48.5l-2 3q-30 -44 -56 -75t-50.5 -50.5t-49 -28t-51.5 -8.5q-109 0 -109 130q0 70 32.5 144t84.5 135.5
t115.5 101t126.5 39.5q29 0 47.5 -10.5t37.5 -36.5l116 300l-77 12zM130 25q25 0 60 28t72 75.5t73.5 110.5t65.5 133q14 35 19 53t6 33q-4 23 -15.5 36.5t-31.5 13.5q-25 0 -56 -21.5t-63 -57t-62 -80.5t-53.5 -92.5t-37.5 -93.5t-14 -82q0 -29 10 -42.5t27 -13.5z
M181 -131q26 0 45 -16t19 -39q0 -14 -6.5 -26.5t-17 -22t-24 -15.5t-27.5 -6q-29 0 -45.5 15.5t-16.5 41.5q0 28 22 48t51 20z" />
    <glyph glyph-name="Hdotbelow" unicode="&#x1e24;" horiz-adv-x="859" 
d="M643 385h-356l-142 -343l82 -19l-10 -23h-289l10 23l97 19l284 686l-83 19l10 23h290l-10 -23l-96 -19l-126 -303h356l126 303l-83 19l10 23h290l-10 -25l-96 -17l-285 -686l81 -21l-9 -21h-290l10 23l97 19zM254 -131q26 0 45 -16t19 -39q0 -14 -6.5 -26.5t-17 -22
t-24 -15.5t-27.5 -6q-29 0 -45.5 15.5t-16.5 41.5q0 28 22 48t51 20z" />
    <glyph glyph-name="hdotbelow" unicode="&#x1e25;" horiz-adv-x="595" 
d="M293 793l-76 12l-2 15h191l-190 -438l5 -2q63 85 115.5 122t108.5 37q42 0 67 -20.5t25 -58.5q0 -20 -6 -44.5t-21 -55.5l-117 -239q-10 -20 -15 -34t-5 -23q0 -15 15 -15q17 0 47.5 24.5t66.5 65.5l21 -15q-51 -66 -101 -100t-98 -34q-32 0 -45.5 14.5t-13.5 43.5
q0 40 35 110l134 269q14 30 14 50q0 28 -29 28q-26 0 -59.5 -23.5t-70 -65.5t-73 -99t-67.5 -123l-91 -194h-93zM106 -131q26 0 45 -16t19 -39q0 -14 -6.5 -26.5t-17 -22t-24 -15.5t-27.5 -6q-29 0 -45.5 15.5t-16.5 41.5q0 28 22 48t51 20z" />
    <glyph glyph-name="Ndotaccent" unicode="&#x1e44;" horiz-adv-x="815" 
d="M353 690h-4l-269 -648l82 -19l-10 -23h-227l10 23l97 19l284 686l-83 19l10 23h212l124 -599h4l231 557l-83 19l10 23h228l-10 -23l-96 -19l-307 -738h-58zM650 970q26 0 45 -16t19 -39q0 -14 -6.5 -26.5t-17 -22t-24 -15.5t-27.5 -6q-29 0 -45.5 15.5t-16.5 41.5
q0 28 22 48t51 20z" />
    <glyph glyph-name="ndotaccent" unicode="&#x1e45;" horiz-adv-x="629" 
d="M246 540q26 0 37 -9.5t11 -30.5q0 -20 -10 -46.5t-34 -71.5l4 -2q32 42 61 72.5t56 49.5t53.5 28t54.5 9q91 0 91 -87q0 -42 -25 -92l-117 -239q-9 -18 -14.5 -34t-5.5 -24q0 -14 12 -14q17 0 48 23.5t69 66.5l21 -15q-107 -134 -201 -134q-59 0 -59 53q0 21 9.5 50.5
t26.5 64.5l136 269q5 11 9 24t4 24q0 30 -32 30q-26 0 -58.5 -23.5t-68 -65t-72 -98.5t-68.5 -124l-93 -194h-97l192 446q11 27 11 34q0 15 -14 15q-17 0 -46 -23.5t-60 -61.5l-20 16q38 53 89.5 83.5t99.5 30.5zM482 780q26 0 45 -16t19 -39q0 -14 -6.5 -26.5t-17 -22
t-24 -15.5t-27.5 -6q-29 0 -45.5 15.5t-16.5 41.5q0 28 22 48t51 20z" />
    <glyph glyph-name="Rdotbelow" unicode="&#x1e5a;" horiz-adv-x="740" 
d="M270 354l-127 -312l119 -19l-10 -23h-316l9 23l88 19l286 686l-78 19l9 23h240q117 0 172 -42t55 -121q0 -49 -19 -90.5t-53.5 -73.5t-84 -53.5t-110.5 -30.5l114 -317l108 -19l-7 -23h-201l-117 354h-77zM382 398q48 0 90.5 17t74.5 45.5t50.5 66.5t18.5 81q0 59 -32 90
t-94 31h-61l-140 -331h93zM247 -131q26 0 45 -16t19 -39q0 -14 -6.5 -26.5t-17 -22t-24 -15.5t-27.5 -6q-29 0 -45.5 15.5t-16.5 41.5q0 28 22 48t51 20z" />
    <glyph glyph-name="rdotbelow" unicode="&#x1e5b;" horiz-adv-x="455" 
d="M438 540q32 0 53.5 -15t21.5 -41q0 -20 -11 -32.5t-33 -12.5q-15 0 -23 5.5t-15 12.5t-15 12.5t-22 5.5q-43 0 -93.5 -70t-118.5 -211l-93 -194h-97l193 446q5 11 8 20.5t3 16.5q0 12 -13 12q-17 0 -47.5 -23.5t-60.5 -61.5l-19 16q40 51 88.5 82.5t90.5 31.5
q21 0 34 -12.5t13 -38.5q0 -20 -9 -43t-34 -64l5 -2q52 85 98.5 122.5t95.5 37.5zM-35 -131q26 0 45 -16t19 -39q0 -14 -6.5 -26.5t-17 -22t-24 -15.5t-27.5 -6q-29 0 -45.5 15.5t-16.5 41.5q0 28 22 48t51 20z" />
    <glyph glyph-name="Sdotbelow" unicode="&#x1e62;" horiz-adv-x="589" 
d="M69 261h29q-13 -52 -13 -96q0 -135 137 -135q77 0 120.5 39t43.5 108q0 40 -14 71t-35 57.5t-45.5 51.5t-45.5 53.5t-35 62.5t-14 79q0 50 18.5 92t51.5 72t78.5 47t100.5 17q49 0 85.5 -15t65.5 -47l46 52h32l-86 -220h-30q5 19 9 44t4 43q0 50 -31 76.5t-91 26.5
q-72 0 -110 -38.5t-38 -110.5q0 -21 3 -37t11 -32.5t23.5 -36t39.5 -47.5q34 -39 56 -69t35 -55t18.5 -47.5t5.5 -47.5q0 -49 -21 -91t-58.5 -72.5t-88 -48t-110.5 -17.5q-128 0 -171 82l-51 -72h-31zM144 -131q26 0 45 -16t19 -39q0 -14 -6.5 -26.5t-17 -22t-24 -15.5
t-27.5 -6q-29 0 -45.5 15.5t-16.5 41.5q0 28 22 48t51 20z" />
    <glyph glyph-name="sdotbelow" unicode="&#x1e63;" horiz-adv-x="441" 
d="M281 540q31 0 59 -7.5t49 -20t33.5 -29.5t12.5 -35t-12.5 -29.5t-32.5 -11.5q-39 0 -45 44q-5 37 -16 48.5t-42 11.5q-45 0 -67.5 -24t-22.5 -66q0 -35 19.5 -69.5t43.5 -70t43.5 -71.5t19.5 -74q0 -31 -15 -57.5t-41.5 -46t-62 -31t-76.5 -11.5q-33 0 -62.5 8
t-51.5 21.5t-35 31.5t-13 37q0 18 12.5 29t32.5 11q18 0 27 -8t14 -20t9.5 -25.5t12 -25.5t21 -20t38.5 -8q43 0 68 26t25 65q0 31 -20.5 63.5t-44.5 66.5t-44.5 70.5t-20.5 77.5q0 31 14.5 58.5t39.5 47.5t59 32t72 12zM39 -131q26 0 45 -16t19 -39q0 -14 -6.5 -26.5
t-17 -22t-24 -15.5t-27.5 -6q-29 0 -45.5 15.5t-16.5 41.5q0 28 22 48t51 20z" />
    <glyph glyph-name="Tdotbelow" unicode="&#x1e6c;" horiz-adv-x="735" 
d="M490 730h-178q-50 -43 -93.5 -90t-75.5 -90h-24l128 220h626l-54 -220h-24q1 11 1 22.5v22.5q0 34 -4 68.5t-15 66.5h-178l-285 -688l102 -19l-10 -23h-318l10 23l107 19zM181 -131q26 0 45 -16t19 -39q0 -14 -6.5 -26.5t-17 -22t-24 -15.5t-27.5 -6q-29 0 -45.5 15.5
t-16.5 41.5q0 28 22 48t51 20z" />
    <glyph glyph-name="tdotbelow" unicode="&#x1e6d;" horiz-adv-x="339" 
d="M112 530h86l63 147l107 10l-68 -157h88l-11 -32h-90l-83 -193q-32 -75 -51 -119t-28.5 -67t-12 -32t-2.5 -14q0 -24 22 -24q15 0 39 19t65 61l20 -12q-48 -61 -98.5 -94t-94.5 -33q-30 0 -41.5 15t-11.5 48q0 10 2.5 23.5t9.5 35.5t20.5 56t36.5 87l105 243h-83zM-8 -131
q26 0 45 -16t19 -39q0 -14 -6.5 -26.5t-17 -22t-24 -15.5t-27.5 -6q-29 0 -45.5 15.5t-16.5 41.5q0 28 22 48t51 20z" />
    <glyph glyph-name="Wgrave" unicode="&#x1e80;" horiz-adv-x="1029" 
d="M175 -10l89 688q1 5 1 9v8q-1 26 -19.5 35t-65.5 12l14 28h288l-14 -28q-24 0 -41 -3.5t-28.5 -12t-18 -23.5t-9.5 -38l-73 -531l286 392l20 152q1 5 1 9v8q-1 26 -12.5 35t-42.5 12l14 28h278l-14 -28q-28 0 -48.5 -3.5t-34.5 -12t-22.5 -23.5t-11.5 -38l-73 -531
l364 499q20 28 27 41t7 27q-1 16 -20.5 25.5t-64.5 15.5l13 28h269l-14 -28q-32 -5 -54.5 -12.5t-41 -20t-35.5 -31.5t-38 -47l-476 -641h-59l59 457l-340 -457h-59zM794 826l-161 47q-37 11 -37 49q0 22 13.5 35t36.5 13q17 0 31.5 -8.5t31.5 -23.5l104 -91z" />
    <glyph glyph-name="wgrave" unicode="&#x1e81;" horiz-adv-x="905" 
d="M532 -10q-86 0 -129 65q-90 -65 -177 -65q-63 0 -98.5 29t-35.5 81q0 23 6.5 47.5t22.5 53t41.5 61.5t64.5 74q16 16 28 29.5t22 26.5t20 27t21 32h-149q-50 0 -71.5 -14t-21.5 -43q0 -13 5.5 -22.5t13.5 -15.5l3 4q-5 5 -8.5 11t-3.5 13q0 14 11.5 24t28.5 10
q16 0 28.5 -11t12.5 -29q0 -19 -13 -29.5t-36 -10.5q-32 0 -51.5 21t-19.5 58q0 57 44 85t144 28h157q-14 -30 -24.5 -50t-22 -40.5t-27.5 -45.5t-41 -64q-24 -36 -39 -65t-24 -53t-12.5 -44.5t-3.5 -39.5q0 -90 71 -90q26 0 56 12.5t62 34.5q-16 36 -16 88q0 61 24.5 126.5
t63 118.5t85 87.5t91.5 34.5q28 0 44 -16t16 -45t-16.5 -71t-45 -89.5t-67.5 -97.5t-84 -96q13 -41 37.5 -63t59.5 -22q43 0 88.5 40t88.5 118q26 49 38.5 88.5t12.5 77.5q0 32 -6 62.5t-6 53.5q0 28 12.5 44t35.5 16q19 0 31 -14t12 -41q0 -23 -6.5 -55.5t-17.5 -69
t-27.5 -76t-35.5 -76.5q-55 -106 -123.5 -162t-143.5 -56zM470 221q0 -16 1 -30t3 -28q32 35 60.5 75t50 80.5t34 80t12.5 74.5q0 19 -4.5 26.5t-12.5 7.5q-26 0 -51.5 -26t-46 -67.5t-33.5 -92.5t-13 -100zM681 636l-45 119q-8 20 -10.5 31.5t-2.5 24.5q0 20 16 33t36 13
q47 0 47 -42q0 -10 -0.5 -14.5t-0.5 -8.5l-12 -150z" />
    <glyph glyph-name="Wacute" unicode="&#x1e82;" horiz-adv-x="1029" 
d="M175 -10l89 688q1 5 1 9v8q-1 26 -19.5 35t-65.5 12l14 28h288l-14 -28q-24 0 -41 -3.5t-28.5 -12t-18 -23.5t-9.5 -38l-73 -531l286 392l20 152q1 5 1 9v8q-1 26 -12.5 35t-42.5 12l14 28h278l-14 -28q-28 0 -48.5 -3.5t-34.5 -12t-22.5 -23.5t-11.5 -38l-73 -531
l364 499q20 28 27 41t7 27q-1 16 -20.5 25.5t-64.5 15.5l13 28h269l-14 -28q-32 -5 -54.5 -12.5t-41 -20t-35.5 -31.5t-38 -47l-476 -641h-59l59 457l-340 -457h-59zM629 847l144 107q22 16 44 16q17 0 30 -12t13 -31q0 -17 -14.5 -31.5t-53.5 -25.5l-152 -44z" />
    <glyph glyph-name="wacute" unicode="&#x1e83;" horiz-adv-x="905" 
d="M532 -10q-86 0 -129 65q-90 -65 -177 -65q-63 0 -98.5 29t-35.5 81q0 23 6.5 47.5t22.5 53t41.5 61.5t64.5 74q16 16 28 29.5t22 26.5t20 27t21 32h-149q-50 0 -71.5 -14t-21.5 -43q0 -13 5.5 -22.5t13.5 -15.5l3 4q-5 5 -8.5 11t-3.5 13q0 14 11.5 24t28.5 10
q16 0 28.5 -11t12.5 -29q0 -19 -13 -29.5t-36 -10.5q-32 0 -51.5 21t-19.5 58q0 57 44 85t144 28h157q-14 -30 -24.5 -50t-22 -40.5t-27.5 -45.5t-41 -64q-24 -36 -39 -65t-24 -53t-12.5 -44.5t-3.5 -39.5q0 -90 71 -90q26 0 56 12.5t62 34.5q-16 36 -16 88q0 61 24.5 126.5
t63 118.5t85 87.5t91.5 34.5q28 0 44 -16t16 -45t-16.5 -71t-45 -89.5t-67.5 -97.5t-84 -96q13 -41 37.5 -63t59.5 -22q43 0 88.5 40t88.5 118q26 49 38.5 88.5t12.5 77.5q0 32 -6 62.5t-6 53.5q0 28 12.5 44t35.5 16q19 0 31 -14t12 -41q0 -23 -6.5 -55.5t-17.5 -69
t-27.5 -76t-35.5 -76.5q-55 -106 -123.5 -162t-143.5 -56zM470 221q0 -16 1 -30t3 -28q32 35 60.5 75t50 80.5t34 80t12.5 74.5q0 19 -4.5 26.5t-12.5 7.5q-26 0 -51.5 -26t-46 -67.5t-33.5 -92.5t-13 -100zM616 642l116 171q29 44 63 44q21 0 35 -12t14 -30
q0 -15 -11.5 -30t-38.5 -35l-162 -119z" />
    <glyph glyph-name="Wdieresis" unicode="&#x1e84;" horiz-adv-x="1029" 
d="M175 -10l89 688q1 5 1 9v8q-1 26 -19.5 35t-65.5 12l14 28h288l-14 -28q-24 0 -41 -3.5t-28.5 -12t-18 -23.5t-9.5 -38l-73 -531l286 392l20 152q1 5 1 9v8q-1 26 -12.5 35t-42.5 12l14 28h278l-14 -28q-28 0 -48.5 -3.5t-34.5 -12t-22.5 -23.5t-11.5 -38l-73 -531
l364 499q20 28 27 41t7 27q-1 16 -20.5 25.5t-64.5 15.5l13 28h269l-14 -28q-32 -5 -54.5 -12.5t-41 -20t-35.5 -31.5t-38 -47l-476 -641h-59l59 457l-340 -457h-59zM670 970q23 0 40 -14t17 -35q0 -12 -5.5 -23t-15 -20t-21.5 -14t-25 -5q-26 0 -40.5 14t-14.5 37
q0 24 19.5 42t45.5 18zM845 970q23 0 40 -14t17 -35q0 -12 -5.5 -23t-15 -20t-21.5 -14t-25 -5q-26 0 -40.5 14t-14.5 37q0 24 19.5 42t45.5 18z" />
    <glyph glyph-name="wdieresis" unicode="&#x1e85;" horiz-adv-x="905" 
d="M532 -10q-86 0 -129 65q-90 -65 -177 -65q-63 0 -98.5 29t-35.5 81q0 23 6.5 47.5t22.5 53t41.5 61.5t64.5 74q16 16 28 29.5t22 26.5t20 27t21 32h-149q-50 0 -71.5 -14t-21.5 -43q0 -13 5.5 -22.5t13.5 -15.5l3 4q-5 5 -8.5 11t-3.5 13q0 14 11.5 24t28.5 10
q16 0 28.5 -11t12.5 -29q0 -19 -13 -29.5t-36 -10.5q-32 0 -51.5 21t-19.5 58q0 57 44 85t144 28h157q-14 -30 -24.5 -50t-22 -40.5t-27.5 -45.5t-41 -64q-24 -36 -39 -65t-24 -53t-12.5 -44.5t-3.5 -39.5q0 -90 71 -90q26 0 56 12.5t62 34.5q-16 36 -16 88q0 61 24.5 126.5
t63 118.5t85 87.5t91.5 34.5q28 0 44 -16t16 -45t-16.5 -71t-45 -89.5t-67.5 -97.5t-84 -96q13 -41 37.5 -63t59.5 -22q43 0 88.5 40t88.5 118q26 49 38.5 88.5t12.5 77.5q0 32 -6 62.5t-6 53.5q0 28 12.5 44t35.5 16q19 0 31 -14t12 -41q0 -23 -6.5 -55.5t-17.5 -69
t-27.5 -76t-35.5 -76.5q-55 -106 -123.5 -162t-143.5 -56zM470 221q0 -16 1 -30t3 -28q32 35 60.5 75t50 80.5t34 80t12.5 74.5q0 19 -4.5 26.5t-12.5 7.5q-26 0 -51.5 -26t-46 -67.5t-33.5 -92.5t-13 -100zM605 780q23 0 40 -14t17 -35q0 -12 -5.5 -23t-15 -20t-21.5 -14
t-25 -5q-26 0 -40.5 14t-14.5 37q0 24 19.5 42t45.5 18zM780 780q23 0 40 -14t17 -35q0 -12 -5.5 -23t-15 -20t-21.5 -14t-25 -5q-26 0 -40.5 14t-14.5 37q0 24 19.5 42t45.5 18z" />
    <glyph glyph-name="Zdotbelow" unicode="&#x1e92;" horiz-adv-x="697" 
d="M-29 0l22 51l625 679h-269q-49 -41 -93.5 -87t-78.5 -90h-27l120 217h496l-22 -52l-622 -676h312q107 101 178 202h34l-123 -244h-552zM194 -131q26 0 45 -16t19 -39q0 -14 -6.5 -26.5t-17 -22t-24 -15.5t-27.5 -6q-29 0 -45.5 15.5t-16.5 41.5q0 28 22 48t51 20z" />
    <glyph glyph-name="zdotbelow" unicode="&#x1e93;" horiz-adv-x="556" 
d="M244 540q27 0 61 -3.5t67.5 -8t63 -8t47.5 -3.5q39 0 76 23l21 -19l-468 -422v-4q40 0 75.5 -5t67 -11.5t58.5 -11.5t50 -5q65 0 65 50l-4 2q-6 -11 -13 -16.5t-18 -5.5q-19 0 -30 12.5t-11 30.5t13 29t34 11q29 0 45 -18.5t16 -50.5q0 -53 -47.5 -84.5t-127.5 -31.5
q-28 0 -55.5 3.5t-54.5 8t-54 8t-54 3.5q-28 0 -45 -5t-35 -18l-23 19l469 421l-2 4q-37 0 -72.5 3.5t-67.5 7.5t-59.5 7.5t-48.5 3.5q-81 0 -81 -52q0 -16 9.5 -26.5t25.5 -13.5l1 4q-18 10 -18 25t11 25.5t28 10.5q19 0 29.5 -13t10.5 -33t-14 -31.5t-37 -11.5
q-33 0 -56 24t-23 60q0 25 12.5 46.5t36 37t55.5 24t71 8.5zM78 -131q26 0 45 -16t19 -39q0 -14 -6.5 -26.5t-17 -22t-24 -15.5t-27.5 -6q-29 0 -45.5 15.5t-16.5 41.5q0 28 22 48t51 20z" />
    <glyph glyph-name="Edotbelow" unicode="&#x1eb8;" horiz-adv-x="713" 
d="M-68 0l10 23l92 19l284 686l-78 19l10 23h480l8 -220h-27q-9 54 -22.5 98t-35.5 82h-226l-124 -304h168q49 57 84 114h29l-113 -274h-29q8 30 11.5 60t5.5 60h-174l-142 -346h323q41 48 74.5 95t62.5 95h29l-91 -230h-609zM224 -131q26 0 45 -16t19 -39q0 -14 -6.5 -26.5
t-17 -22t-24 -15.5t-27.5 -6q-29 0 -45.5 15.5t-16.5 41.5q0 28 22 48t51 20z" />
    <glyph glyph-name="edotbelow" unicode="&#x1eb9;" horiz-adv-x="485" 
d="M398 540q45 0 70.5 -18.5t25.5 -50.5t-25 -62.5t-70 -57t-107.5 -48t-137.5 -34.5q-57 -107 -57 -177q0 -67 58 -67q23 0 50 10t54 27.5t53.5 42t48.5 54.5l22 -14q-123 -155 -253 -155q-62 0 -96 35t-34 100q0 46 17 94.5t46.5 94.5t69 87.5t83.5 72t91 48.5t91 18z
M176 302q46 9 89 28t76 43.5t53 52t20 53.5q0 30 -32 30q-21 0 -44.5 -11t-46.5 -31t-44.5 -47t-38.5 -59zM62 -131q26 0 45 -16t19 -39q0 -14 -6.5 -26.5t-17 -22t-24 -15.5t-27.5 -6q-29 0 -45.5 15.5t-16.5 41.5q0 28 22 48t51 20z" />
    <glyph glyph-name="Etilde" unicode="&#x1ebc;" horiz-adv-x="713" 
d="M-68 0l10 23l92 19l284 686l-78 19l10 23h480l8 -220h-27q-9 54 -22.5 98t-35.5 82h-226l-124 -304h168q49 57 84 114h29l-113 -274h-29q8 30 11.5 60t5.5 60h-174l-142 -346h323q41 48 74.5 95t62.5 95h29l-91 -230h-609zM394 853q14 51 48 82.5t71 31.5q17 0 34.5 -5.5
t35 -12t34.5 -12t34 -5.5q42 0 62 38h24q-17 -52 -51.5 -85t-71.5 -33q-18 0 -34.5 6t-33.5 13.5t-33.5 13.5t-34.5 6q-46 0 -63 -38h-21z" />
    <glyph glyph-name="etilde" unicode="&#x1ebd;" horiz-adv-x="485" 
d="M398 540q45 0 70.5 -18.5t25.5 -50.5t-25 -62.5t-70 -57t-107.5 -48t-137.5 -34.5q-57 -107 -57 -177q0 -67 58 -67q23 0 50 10t54 27.5t53.5 42t48.5 54.5l22 -14q-123 -155 -253 -155q-62 0 -96 35t-34 100q0 46 17 94.5t46.5 94.5t69 87.5t83.5 72t91 48.5t91 18z
M176 302q46 9 89 28t76 43.5t53 52t20 53.5q0 30 -32 30q-21 0 -44.5 -11t-46.5 -31t-44.5 -47t-38.5 -59zM251 683q14 51 48 82.5t71 31.5q17 0 34.5 -5.5t35 -12t34.5 -12t34 -5.5q42 0 62 38h24q-17 -52 -51.5 -85t-71.5 -33q-18 0 -34.5 6t-33.5 13.5t-33.5 13.5
t-34.5 6q-46 0 -63 -38h-21z" />
    <glyph glyph-name="Idotbelow" unicode="&#x1eca;" horiz-adv-x="392" 
d="M319 728l-83 19l10 23h290l-10 -23l-96 -19l-285 -686l82 -19l-10 -23h-289l10 23l97 19zM17 -131q26 0 45 -16t19 -39q0 -14 -6.5 -26.5t-17 -22t-24 -15.5t-27.5 -6q-29 0 -45.5 15.5t-16.5 41.5q0 28 22 48t51 20z" />
    <glyph glyph-name="idotbelow" unicode="&#x1ecb;" horiz-adv-x="340" 
d="M307 780q26 0 45 -16t19 -39q0 -14 -6.5 -26.5t-17 -22t-24 -15.5t-27.5 -6q-29 0 -45.5 15.5t-16.5 41.5q0 28 22 48t51 20zM227 540q29 0 47 -12.5t18 -36.5q0 -28 -16 -66l-143 -344q-3 -8 -3 -13q0 -19 20 -19q7 0 15 3.5t20 12.5t29 24.5t41 39.5l20 -12
q-47 -60 -98 -93.5t-89 -33.5q-29 0 -47 13.5t-18 42.5q0 13 3.5 29t11.5 36l145 356q5 11 5 19q0 9 -13 9q-18 0 -41.5 -16.5t-46.5 -45.5l-23 18q34 42 78.5 65.5t84.5 23.5zM12 -131q26 0 45 -16t19 -39q0 -14 -6.5 -26.5t-17 -22t-24 -15.5t-27.5 -6q-29 0 -45.5 15.5
t-16.5 41.5q0 28 22 48t51 20z" />
    <glyph glyph-name="Odotbelow" unicode="&#x1ecc;" horiz-adv-x="804" 
d="M304 -10q-109 0 -169 64t-60 182q0 68 19.5 134.5t54 127t81.5 112.5t102 89.5t116 59t123 21.5q110 0 170 -65t60 -184q0 -68 -19.5 -134.5t-54 -126.5t-81.5 -111.5t-102 -89t-116.5 -58.5t-123.5 -21zM319 37q46 0 91 21t86.5 58t77 87.5t61 109t40.5 123t15 129.5
q0 171 -125 171q-46 0 -91.5 -21t-87 -58t-77 -87.5t-62 -109t-41.5 -122.5t-15 -128q0 -173 128 -173zM228 -131q26 0 45 -16t19 -39q0 -14 -6.5 -26.5t-17 -22t-24 -15.5t-27.5 -6q-29 0 -45.5 15.5t-16.5 41.5q0 28 22 48t51 20z" />
    <glyph glyph-name="odotbelow" unicode="&#x1ecd;" horiz-adv-x="557" 
d="M161 -10q-72 0 -110 44t-38 121q0 44 14.5 90t40 89t59.5 80.5t73.5 65.5t81.5 44t84 16q72 0 110.5 -44t38.5 -120q0 -68 -32 -136.5t-83 -124t-114 -90.5t-125 -35zM378 505q-27 0 -57.5 -19.5t-61 -51.5t-58.5 -74t-49.5 -87t-34.5 -90.5t-13 -84.5q0 -36 10.5 -54.5
t34.5 -18.5q25 0 55 20t61 53.5t60 77t51.5 89t36 90.5t13.5 82q0 34 -11 51t-37 17zM45 -131q26 0 45 -16t19 -39q0 -14 -6.5 -26.5t-17 -22t-24 -15.5t-27.5 -6q-29 0 -45.5 15.5t-16.5 41.5q0 28 22 48t51 20z" />
    <glyph glyph-name="Udotbelow" unicode="&#x1ee4;" horiz-adv-x="778" 
d="M310 728l-82 19l9 23h285l-10 -23l-96 -20l-191 -458q-14 -32 -21.5 -65.5t-7.5 -59.5q0 -107 144 -107q40 0 73.5 11t63 36.5t56.5 68.5t54 106l203 469l-84 19l11 23h221l-9 -23l-95 -19l-211 -498q-31 -73 -66.5 -119.5t-75 -73.5t-82.5 -37t-89 -10q-106 0 -161 41
t-55 119q0 69 43 170zM241 -131q26 0 45 -16t19 -39q0 -14 -6.5 -26.5t-17 -22t-24 -15.5t-27.5 -6q-29 0 -45.5 15.5t-16.5 41.5q0 28 22 48t51 20z" />
    </font>
</defs>
</svg>
